<mxfile host="app.diagrams.net" modified="2020-10-07T18:21:49.831Z" agent="5.0 (Windows NT 10.0; Win64; x64) AppleWebKit/537.36 (KHTML, like Gecko) Chrome/85.0.4183.121 Safari/537.36" etag="ENrUaT2s1Jy1k4MG2SR_" version="13.7.7" type="github" pages="2">
  <diagram id="R2lEEEUBdFMjLlhIrx00" name="Page-1">
    <mxGraphModel dx="868" dy="433" grid="1" gridSize="10" guides="0" tooltips="1" connect="1" arrows="1" fold="1" page="1" pageScale="1" pageWidth="5050" pageHeight="5000" math="0" shadow="0" extFonts="Permanent Marker^https://fonts.googleapis.com/css?family=Permanent+Marker">
      <root>
        <mxCell id="0" />
        <mxCell id="1" parent="0" />
        <mxCell id="C-vyLk0tnHw3VtMMgP7b-23" value="Properties" style="shape=table;startSize=30;container=1;collapsible=1;childLayout=tableLayout;fixedRows=1;rowLines=0;fontStyle=1;align=center;resizeLast=1;" parent="1" vertex="1">
          <mxGeometry x="120" y="120" width="250" height="90" as="geometry" />
        </mxCell>
        <mxCell id="C-vyLk0tnHw3VtMMgP7b-24" value="" style="shape=partialRectangle;collapsible=0;dropTarget=0;pointerEvents=0;fillColor=none;points=[[0,0.5],[1,0.5]];portConstraint=eastwest;top=0;left=0;right=0;bottom=1;" parent="C-vyLk0tnHw3VtMMgP7b-23" vertex="1">
          <mxGeometry y="30" width="250" height="30" as="geometry" />
        </mxCell>
        <mxCell id="C-vyLk0tnHw3VtMMgP7b-25" value="PK" style="shape=partialRectangle;overflow=hidden;connectable=0;fillColor=none;top=0;left=0;bottom=0;right=0;fontStyle=1;" parent="C-vyLk0tnHw3VtMMgP7b-24" vertex="1">
          <mxGeometry width="30" height="30" as="geometry" />
        </mxCell>
        <mxCell id="C-vyLk0tnHw3VtMMgP7b-26" value="customer_id int NOT NULL " style="shape=partialRectangle;overflow=hidden;connectable=0;fillColor=none;top=0;left=0;bottom=0;right=0;align=left;spacingLeft=6;fontStyle=5;" parent="C-vyLk0tnHw3VtMMgP7b-24" vertex="1">
          <mxGeometry x="30" width="220" height="30" as="geometry" />
        </mxCell>
        <mxCell id="C-vyLk0tnHw3VtMMgP7b-27" value="" style="shape=partialRectangle;collapsible=0;dropTarget=0;pointerEvents=0;fillColor=none;points=[[0,0.5],[1,0.5]];portConstraint=eastwest;top=0;left=0;right=0;bottom=0;" parent="C-vyLk0tnHw3VtMMgP7b-23" vertex="1">
          <mxGeometry y="60" width="250" height="30" as="geometry" />
        </mxCell>
        <mxCell id="C-vyLk0tnHw3VtMMgP7b-28" value="" style="shape=partialRectangle;overflow=hidden;connectable=0;fillColor=none;top=0;left=0;bottom=0;right=0;" parent="C-vyLk0tnHw3VtMMgP7b-27" vertex="1">
          <mxGeometry width="30" height="30" as="geometry" />
        </mxCell>
        <mxCell id="C-vyLk0tnHw3VtMMgP7b-29" value="customer_name char(50) NOT NULL" style="shape=partialRectangle;overflow=hidden;connectable=0;fillColor=none;top=0;left=0;bottom=0;right=0;align=left;spacingLeft=6;" parent="C-vyLk0tnHw3VtMMgP7b-27" vertex="1">
          <mxGeometry x="30" width="220" height="30" as="geometry" />
        </mxCell>
        <mxCell id="PMQKedFjDX-uGiFnLF06-3" value="" style="edgeStyle=orthogonalEdgeStyle;rounded=0;orthogonalLoop=1;jettySize=auto;html=1;" edge="1" parent="1" target="C-vyLk0tnHw3VtMMgP7b-27">
          <mxGeometry relative="1" as="geometry">
            <mxPoint x="255" y="315" as="sourcePoint" />
            <mxPoint x="245" y="270" as="targetPoint" />
          </mxGeometry>
        </mxCell>
        <mxCell id="PMQKedFjDX-uGiFnLF06-31" value="Lead Types" style="shape=table;startSize=30;container=1;collapsible=1;childLayout=tableLayout;fixedRows=1;rowLines=0;fontStyle=1;align=center;resizeLast=1;" vertex="1" parent="1">
          <mxGeometry x="450" y="430" width="270" height="230" as="geometry" />
        </mxCell>
        <mxCell id="PMQKedFjDX-uGiFnLF06-32" value="" style="shape=partialRectangle;collapsible=0;dropTarget=0;pointerEvents=0;fillColor=none;top=0;left=0;bottom=0;right=0;points=[[0,0.5],[1,0.5]];portConstraint=eastwest;" vertex="1" parent="PMQKedFjDX-uGiFnLF06-31">
          <mxGeometry y="30" width="270" height="30" as="geometry" />
        </mxCell>
        <mxCell id="PMQKedFjDX-uGiFnLF06-33" value="PK" style="shape=partialRectangle;connectable=0;fillColor=none;top=0;left=0;bottom=0;right=0;fontStyle=1;overflow=hidden;" vertex="1" parent="PMQKedFjDX-uGiFnLF06-32">
          <mxGeometry width="60" height="30" as="geometry" />
        </mxCell>
        <mxCell id="PMQKedFjDX-uGiFnLF06-34" value="Lead Type Id" style="shape=partialRectangle;connectable=0;fillColor=none;top=0;left=0;bottom=0;right=0;align=left;spacingLeft=6;fontStyle=5;overflow=hidden;" vertex="1" parent="PMQKedFjDX-uGiFnLF06-32">
          <mxGeometry x="60" width="210" height="30" as="geometry" />
        </mxCell>
        <mxCell id="PMQKedFjDX-uGiFnLF06-35" value="" style="shape=partialRectangle;collapsible=0;dropTarget=0;pointerEvents=0;fillColor=none;top=0;left=0;bottom=1;right=0;points=[[0,0.5],[1,0.5]];portConstraint=eastwest;" vertex="1" parent="PMQKedFjDX-uGiFnLF06-31">
          <mxGeometry y="60" width="270" height="30" as="geometry" />
        </mxCell>
        <mxCell id="PMQKedFjDX-uGiFnLF06-36" value="FK" style="shape=partialRectangle;connectable=0;fillColor=none;top=0;left=0;bottom=0;right=0;fontStyle=1;overflow=hidden;" vertex="1" parent="PMQKedFjDX-uGiFnLF06-35">
          <mxGeometry width="60" height="30" as="geometry" />
        </mxCell>
        <mxCell id="PMQKedFjDX-uGiFnLF06-37" value="Lead Type Id" style="shape=partialRectangle;connectable=0;fillColor=none;top=0;left=0;bottom=0;right=0;align=left;spacingLeft=6;fontStyle=5;overflow=hidden;" vertex="1" parent="PMQKedFjDX-uGiFnLF06-35">
          <mxGeometry x="60" width="210" height="30" as="geometry" />
        </mxCell>
        <mxCell id="PMQKedFjDX-uGiFnLF06-38" value="" style="shape=partialRectangle;collapsible=0;dropTarget=0;pointerEvents=0;fillColor=none;top=0;left=0;bottom=0;right=0;points=[[0,0.5],[1,0.5]];portConstraint=eastwest;" vertex="1" parent="PMQKedFjDX-uGiFnLF06-31">
          <mxGeometry y="90" width="270" height="30" as="geometry" />
        </mxCell>
        <mxCell id="PMQKedFjDX-uGiFnLF06-39" value="" style="shape=partialRectangle;connectable=0;fillColor=none;top=0;left=0;bottom=0;right=0;editable=1;overflow=hidden;" vertex="1" parent="PMQKedFjDX-uGiFnLF06-38">
          <mxGeometry width="60" height="30" as="geometry" />
        </mxCell>
        <mxCell id="PMQKedFjDX-uGiFnLF06-40" value="Lead Type Name" style="shape=partialRectangle;connectable=0;fillColor=none;top=0;left=0;bottom=0;right=0;align=left;spacingLeft=6;overflow=hidden;" vertex="1" parent="PMQKedFjDX-uGiFnLF06-38">
          <mxGeometry x="60" width="210" height="30" as="geometry" />
        </mxCell>
        <mxCell id="PMQKedFjDX-uGiFnLF06-41" value="" style="shape=partialRectangle;collapsible=0;dropTarget=0;pointerEvents=0;fillColor=none;top=0;left=0;bottom=0;right=0;points=[[0,0.5],[1,0.5]];portConstraint=eastwest;" vertex="1" parent="PMQKedFjDX-uGiFnLF06-31">
          <mxGeometry y="120" width="270" height="30" as="geometry" />
        </mxCell>
        <mxCell id="PMQKedFjDX-uGiFnLF06-42" value="" style="shape=partialRectangle;connectable=0;fillColor=none;top=0;left=0;bottom=0;right=0;editable=1;overflow=hidden;" vertex="1" parent="PMQKedFjDX-uGiFnLF06-41">
          <mxGeometry width="60" height="30" as="geometry" />
        </mxCell>
        <mxCell id="PMQKedFjDX-uGiFnLF06-43" value="Lead Type Description" style="shape=partialRectangle;connectable=0;fillColor=none;top=0;left=0;bottom=0;right=0;align=left;spacingLeft=6;overflow=hidden;" vertex="1" parent="PMQKedFjDX-uGiFnLF06-41">
          <mxGeometry x="60" width="210" height="30" as="geometry" />
        </mxCell>
        <mxCell id="PMQKedFjDX-uGiFnLF06-45" value="Text" style="text;html=1;resizable=0;autosize=1;align=center;verticalAlign=middle;points=[];fillColor=none;strokeColor=none;rounded=0;" vertex="1" parent="1">
          <mxGeometry x="400" y="450" width="40" height="20" as="geometry" />
        </mxCell>
        <mxCell id="Jz8gkrG2YhVqBwOY9L8W-1" value="" style="edgeStyle=orthogonalEdgeStyle;rounded=0;orthogonalLoop=1;jettySize=auto;html=1;entryX=1;entryY=0.5;entryDx=0;entryDy=0;" edge="1" parent="1" source="PMQKedFjDX-uGiFnLF06-35" target="Jz8gkrG2YhVqBwOY9L8W-64">
          <mxGeometry relative="1" as="geometry">
            <mxPoint x="265" y="480" as="targetPoint" />
          </mxGeometry>
        </mxCell>
        <mxCell id="Jz8gkrG2YhVqBwOY9L8W-2" value="Created_at&lt;br&gt;" style="text;html=1;align=center;verticalAlign=middle;resizable=0;points=[];autosize=1;" vertex="1" parent="1">
          <mxGeometry x="510" y="580" width="70" height="20" as="geometry" />
        </mxCell>
        <mxCell id="Jz8gkrG2YhVqBwOY9L8W-3" value="Created By" style="text;html=1;align=center;verticalAlign=middle;resizable=0;points=[];autosize=1;" vertex="1" parent="1">
          <mxGeometry x="510" y="600" width="80" height="20" as="geometry" />
        </mxCell>
        <mxCell id="Jz8gkrG2YhVqBwOY9L8W-185" value="Clients" style="shape=table;startSize=30;container=1;collapsible=1;childLayout=tableLayout;fixedRows=1;rowLines=0;fontStyle=1;align=center;resizeLast=1;" vertex="1" parent="1">
          <mxGeometry x="860" y="130" width="180" height="160" as="geometry" />
        </mxCell>
        <mxCell id="Jz8gkrG2YhVqBwOY9L8W-186" value="" style="shape=partialRectangle;collapsible=0;dropTarget=0;pointerEvents=0;fillColor=none;top=0;left=0;bottom=0;right=0;points=[[0,0.5],[1,0.5]];portConstraint=eastwest;" vertex="1" parent="Jz8gkrG2YhVqBwOY9L8W-185">
          <mxGeometry y="30" width="180" height="30" as="geometry" />
        </mxCell>
        <mxCell id="Jz8gkrG2YhVqBwOY9L8W-187" value="PK,FK1" style="shape=partialRectangle;connectable=0;fillColor=none;top=0;left=0;bottom=0;right=0;fontStyle=1;overflow=hidden;" vertex="1" parent="Jz8gkrG2YhVqBwOY9L8W-186">
          <mxGeometry width="60" height="30" as="geometry" />
        </mxCell>
        <mxCell id="Jz8gkrG2YhVqBwOY9L8W-188" value="Row 1" style="shape=partialRectangle;connectable=0;fillColor=none;top=0;left=0;bottom=0;right=0;align=left;spacingLeft=6;fontStyle=5;overflow=hidden;" vertex="1" parent="Jz8gkrG2YhVqBwOY9L8W-186">
          <mxGeometry x="60" width="120" height="30" as="geometry" />
        </mxCell>
        <mxCell id="Jz8gkrG2YhVqBwOY9L8W-189" value="" style="shape=partialRectangle;collapsible=0;dropTarget=0;pointerEvents=0;fillColor=none;top=0;left=0;bottom=1;right=0;points=[[0,0.5],[1,0.5]];portConstraint=eastwest;" vertex="1" parent="Jz8gkrG2YhVqBwOY9L8W-185">
          <mxGeometry y="60" width="180" height="30" as="geometry" />
        </mxCell>
        <mxCell id="Jz8gkrG2YhVqBwOY9L8W-190" value="PK,FK2" style="shape=partialRectangle;connectable=0;fillColor=none;top=0;left=0;bottom=0;right=0;fontStyle=1;overflow=hidden;" vertex="1" parent="Jz8gkrG2YhVqBwOY9L8W-189">
          <mxGeometry width="60" height="30" as="geometry" />
        </mxCell>
        <mxCell id="Jz8gkrG2YhVqBwOY9L8W-191" value="Row 2" style="shape=partialRectangle;connectable=0;fillColor=none;top=0;left=0;bottom=0;right=0;align=left;spacingLeft=6;fontStyle=5;overflow=hidden;" vertex="1" parent="Jz8gkrG2YhVqBwOY9L8W-189">
          <mxGeometry x="60" width="120" height="30" as="geometry" />
        </mxCell>
        <mxCell id="Jz8gkrG2YhVqBwOY9L8W-192" value="" style="shape=partialRectangle;collapsible=0;dropTarget=0;pointerEvents=0;fillColor=none;top=0;left=0;bottom=0;right=0;points=[[0,0.5],[1,0.5]];portConstraint=eastwest;" vertex="1" parent="Jz8gkrG2YhVqBwOY9L8W-185">
          <mxGeometry y="90" width="180" height="30" as="geometry" />
        </mxCell>
        <mxCell id="Jz8gkrG2YhVqBwOY9L8W-193" value="" style="shape=partialRectangle;connectable=0;fillColor=none;top=0;left=0;bottom=0;right=0;editable=1;overflow=hidden;" vertex="1" parent="Jz8gkrG2YhVqBwOY9L8W-192">
          <mxGeometry width="60" height="30" as="geometry" />
        </mxCell>
        <mxCell id="Jz8gkrG2YhVqBwOY9L8W-194" value="Row 3" style="shape=partialRectangle;connectable=0;fillColor=none;top=0;left=0;bottom=0;right=0;align=left;spacingLeft=6;overflow=hidden;" vertex="1" parent="Jz8gkrG2YhVqBwOY9L8W-192">
          <mxGeometry x="60" width="120" height="30" as="geometry" />
        </mxCell>
        <mxCell id="Jz8gkrG2YhVqBwOY9L8W-195" value="" style="shape=partialRectangle;collapsible=0;dropTarget=0;pointerEvents=0;fillColor=none;top=0;left=0;bottom=0;right=0;points=[[0,0.5],[1,0.5]];portConstraint=eastwest;" vertex="1" parent="Jz8gkrG2YhVqBwOY9L8W-185">
          <mxGeometry y="120" width="180" height="30" as="geometry" />
        </mxCell>
        <mxCell id="Jz8gkrG2YhVqBwOY9L8W-196" value="" style="shape=partialRectangle;connectable=0;fillColor=none;top=0;left=0;bottom=0;right=0;editable=1;overflow=hidden;" vertex="1" parent="Jz8gkrG2YhVqBwOY9L8W-195">
          <mxGeometry width="60" height="30" as="geometry" />
        </mxCell>
        <mxCell id="Jz8gkrG2YhVqBwOY9L8W-197" value="Row 4" style="shape=partialRectangle;connectable=0;fillColor=none;top=0;left=0;bottom=0;right=0;align=left;spacingLeft=6;overflow=hidden;" vertex="1" parent="Jz8gkrG2YhVqBwOY9L8W-195">
          <mxGeometry x="60" width="120" height="30" as="geometry" />
        </mxCell>
        <mxCell id="Jz8gkrG2YhVqBwOY9L8W-4" value="Last Updated at" style="text;html=1;align=center;verticalAlign=middle;resizable=0;points=[];autosize=1;" vertex="1" parent="1">
          <mxGeometry x="510" y="620" width="100" height="20" as="geometry" />
        </mxCell>
        <mxCell id="Jz8gkrG2YhVqBwOY9L8W-263" value="Client Settings" style="shape=table;startSize=30;container=1;collapsible=1;childLayout=tableLayout;fixedRows=1;rowLines=0;fontStyle=1;align=center;resizeLast=1;" vertex="1" parent="1">
          <mxGeometry x="1100" y="130" width="180" height="160" as="geometry" />
        </mxCell>
        <mxCell id="Jz8gkrG2YhVqBwOY9L8W-264" value="" style="shape=partialRectangle;collapsible=0;dropTarget=0;pointerEvents=0;fillColor=none;top=0;left=0;bottom=0;right=0;points=[[0,0.5],[1,0.5]];portConstraint=eastwest;" vertex="1" parent="Jz8gkrG2YhVqBwOY9L8W-263">
          <mxGeometry y="30" width="180" height="30" as="geometry" />
        </mxCell>
        <mxCell id="Jz8gkrG2YhVqBwOY9L8W-265" value="PK,FK1" style="shape=partialRectangle;connectable=0;fillColor=none;top=0;left=0;bottom=0;right=0;fontStyle=1;overflow=hidden;" vertex="1" parent="Jz8gkrG2YhVqBwOY9L8W-264">
          <mxGeometry width="60" height="30" as="geometry" />
        </mxCell>
        <mxCell id="Jz8gkrG2YhVqBwOY9L8W-266" value="Row 1" style="shape=partialRectangle;connectable=0;fillColor=none;top=0;left=0;bottom=0;right=0;align=left;spacingLeft=6;fontStyle=5;overflow=hidden;" vertex="1" parent="Jz8gkrG2YhVqBwOY9L8W-264">
          <mxGeometry x="60" width="120" height="30" as="geometry" />
        </mxCell>
        <mxCell id="Jz8gkrG2YhVqBwOY9L8W-267" value="" style="shape=partialRectangle;collapsible=0;dropTarget=0;pointerEvents=0;fillColor=none;top=0;left=0;bottom=1;right=0;points=[[0,0.5],[1,0.5]];portConstraint=eastwest;" vertex="1" parent="Jz8gkrG2YhVqBwOY9L8W-263">
          <mxGeometry y="60" width="180" height="30" as="geometry" />
        </mxCell>
        <mxCell id="Jz8gkrG2YhVqBwOY9L8W-268" value="PK,FK2" style="shape=partialRectangle;connectable=0;fillColor=none;top=0;left=0;bottom=0;right=0;fontStyle=1;overflow=hidden;" vertex="1" parent="Jz8gkrG2YhVqBwOY9L8W-267">
          <mxGeometry width="60" height="30" as="geometry" />
        </mxCell>
        <mxCell id="Jz8gkrG2YhVqBwOY9L8W-269" value="Row 2" style="shape=partialRectangle;connectable=0;fillColor=none;top=0;left=0;bottom=0;right=0;align=left;spacingLeft=6;fontStyle=5;overflow=hidden;" vertex="1" parent="Jz8gkrG2YhVqBwOY9L8W-267">
          <mxGeometry x="60" width="120" height="30" as="geometry" />
        </mxCell>
        <mxCell id="Jz8gkrG2YhVqBwOY9L8W-270" value="" style="shape=partialRectangle;collapsible=0;dropTarget=0;pointerEvents=0;fillColor=none;top=0;left=0;bottom=0;right=0;points=[[0,0.5],[1,0.5]];portConstraint=eastwest;" vertex="1" parent="Jz8gkrG2YhVqBwOY9L8W-263">
          <mxGeometry y="90" width="180" height="30" as="geometry" />
        </mxCell>
        <mxCell id="Jz8gkrG2YhVqBwOY9L8W-271" value="" style="shape=partialRectangle;connectable=0;fillColor=none;top=0;left=0;bottom=0;right=0;editable=1;overflow=hidden;" vertex="1" parent="Jz8gkrG2YhVqBwOY9L8W-270">
          <mxGeometry width="60" height="30" as="geometry" />
        </mxCell>
        <mxCell id="Jz8gkrG2YhVqBwOY9L8W-272" value="Row 3" style="shape=partialRectangle;connectable=0;fillColor=none;top=0;left=0;bottom=0;right=0;align=left;spacingLeft=6;overflow=hidden;" vertex="1" parent="Jz8gkrG2YhVqBwOY9L8W-270">
          <mxGeometry x="60" width="120" height="30" as="geometry" />
        </mxCell>
        <mxCell id="Jz8gkrG2YhVqBwOY9L8W-273" value="" style="shape=partialRectangle;collapsible=0;dropTarget=0;pointerEvents=0;fillColor=none;top=0;left=0;bottom=0;right=0;points=[[0,0.5],[1,0.5]];portConstraint=eastwest;" vertex="1" parent="Jz8gkrG2YhVqBwOY9L8W-263">
          <mxGeometry y="120" width="180" height="30" as="geometry" />
        </mxCell>
        <mxCell id="Jz8gkrG2YhVqBwOY9L8W-274" value="" style="shape=partialRectangle;connectable=0;fillColor=none;top=0;left=0;bottom=0;right=0;editable=1;overflow=hidden;" vertex="1" parent="Jz8gkrG2YhVqBwOY9L8W-273">
          <mxGeometry width="60" height="30" as="geometry" />
        </mxCell>
        <mxCell id="Jz8gkrG2YhVqBwOY9L8W-275" value="Row 4" style="shape=partialRectangle;connectable=0;fillColor=none;top=0;left=0;bottom=0;right=0;align=left;spacingLeft=6;overflow=hidden;" vertex="1" parent="Jz8gkrG2YhVqBwOY9L8W-273">
          <mxGeometry x="60" width="120" height="30" as="geometry" />
        </mxCell>
        <mxCell id="Jz8gkrG2YhVqBwOY9L8W-8" value="Last Updated By" style="text;html=1;align=center;verticalAlign=middle;resizable=0;points=[];autosize=1;" vertex="1" parent="1">
          <mxGeometry x="510" y="640" width="100" height="20" as="geometry" />
        </mxCell>
        <mxCell id="Jz8gkrG2YhVqBwOY9L8W-54" value="Seller Lead" style="shape=table;startSize=30;container=1;collapsible=1;childLayout=tableLayout;fixedRows=1;rowLines=0;fontStyle=1;align=center;resizeLast=1;" vertex="1" parent="1">
          <mxGeometry x="160" y="310" width="180" height="220" as="geometry" />
        </mxCell>
        <mxCell id="Jz8gkrG2YhVqBwOY9L8W-55" value="" style="shape=partialRectangle;collapsible=0;dropTarget=0;pointerEvents=0;fillColor=none;top=0;left=0;bottom=0;right=0;points=[[0,0.5],[1,0.5]];portConstraint=eastwest;" vertex="1" parent="Jz8gkrG2YhVqBwOY9L8W-54">
          <mxGeometry y="30" width="180" height="30" as="geometry" />
        </mxCell>
        <mxCell id="Jz8gkrG2YhVqBwOY9L8W-56" value="PK" style="shape=partialRectangle;connectable=0;fillColor=none;top=0;left=0;bottom=0;right=0;fontStyle=1;overflow=hidden;" vertex="1" parent="Jz8gkrG2YhVqBwOY9L8W-55">
          <mxGeometry width="60" height="30" as="geometry" />
        </mxCell>
        <mxCell id="Jz8gkrG2YhVqBwOY9L8W-57" value="Lead Id" style="shape=partialRectangle;connectable=0;fillColor=none;top=0;left=0;bottom=0;right=0;align=left;spacingLeft=6;fontStyle=5;overflow=hidden;" vertex="1" parent="Jz8gkrG2YhVqBwOY9L8W-55">
          <mxGeometry x="60" width="120" height="30" as="geometry" />
        </mxCell>
        <mxCell id="Jz8gkrG2YhVqBwOY9L8W-58" value="" style="shape=partialRectangle;collapsible=0;dropTarget=0;pointerEvents=0;fillColor=none;top=0;left=0;bottom=1;right=0;points=[[0,0.5],[1,0.5]];portConstraint=eastwest;" vertex="1" parent="Jz8gkrG2YhVqBwOY9L8W-54">
          <mxGeometry y="60" width="180" height="30" as="geometry" />
        </mxCell>
        <mxCell id="Jz8gkrG2YhVqBwOY9L8W-59" value="FK" style="shape=partialRectangle;connectable=0;fillColor=none;top=0;left=0;bottom=0;right=0;fontStyle=1;overflow=hidden;" vertex="1" parent="Jz8gkrG2YhVqBwOY9L8W-58">
          <mxGeometry width="60" height="30" as="geometry" />
        </mxCell>
        <mxCell id="Jz8gkrG2YhVqBwOY9L8W-60" value="Row 2" style="shape=partialRectangle;connectable=0;fillColor=none;top=0;left=0;bottom=0;right=0;align=left;spacingLeft=6;fontStyle=5;overflow=hidden;" vertex="1" parent="Jz8gkrG2YhVqBwOY9L8W-58">
          <mxGeometry x="60" width="120" height="30" as="geometry" />
        </mxCell>
        <mxCell id="Jz8gkrG2YhVqBwOY9L8W-61" value="" style="shape=partialRectangle;collapsible=0;dropTarget=0;pointerEvents=0;fillColor=none;top=0;left=0;bottom=0;right=0;points=[[0,0.5],[1,0.5]];portConstraint=eastwest;" vertex="1" parent="Jz8gkrG2YhVqBwOY9L8W-54">
          <mxGeometry y="90" width="180" height="30" as="geometry" />
        </mxCell>
        <mxCell id="Jz8gkrG2YhVqBwOY9L8W-62" value="" style="shape=partialRectangle;connectable=0;fillColor=none;top=0;left=0;bottom=0;right=0;editable=1;overflow=hidden;" vertex="1" parent="Jz8gkrG2YhVqBwOY9L8W-61">
          <mxGeometry width="60" height="30" as="geometry" />
        </mxCell>
        <mxCell id="Jz8gkrG2YhVqBwOY9L8W-63" value="Lead Name" style="shape=partialRectangle;connectable=0;fillColor=none;top=0;left=0;bottom=0;right=0;align=left;spacingLeft=6;overflow=hidden;" vertex="1" parent="Jz8gkrG2YhVqBwOY9L8W-61">
          <mxGeometry x="60" width="120" height="30" as="geometry" />
        </mxCell>
        <mxCell id="Jz8gkrG2YhVqBwOY9L8W-64" value="" style="shape=partialRectangle;collapsible=0;dropTarget=0;pointerEvents=0;fillColor=none;top=0;left=0;bottom=0;right=0;points=[[0,0.5],[1,0.5]];portConstraint=eastwest;" vertex="1" parent="Jz8gkrG2YhVqBwOY9L8W-54">
          <mxGeometry y="120" width="180" height="30" as="geometry" />
        </mxCell>
        <mxCell id="Jz8gkrG2YhVqBwOY9L8W-65" value="" style="shape=partialRectangle;connectable=0;fillColor=none;top=0;left=0;bottom=0;right=0;editable=1;overflow=hidden;" vertex="1" parent="Jz8gkrG2YhVqBwOY9L8W-64">
          <mxGeometry width="60" height="30" as="geometry" />
        </mxCell>
        <mxCell id="Jz8gkrG2YhVqBwOY9L8W-66" value="Lead Type" style="shape=partialRectangle;connectable=0;fillColor=none;top=0;left=0;bottom=0;right=0;align=left;spacingLeft=6;overflow=hidden;" vertex="1" parent="Jz8gkrG2YhVqBwOY9L8W-64">
          <mxGeometry x="60" width="120" height="30" as="geometry" />
        </mxCell>
        <mxCell id="Jz8gkrG2YhVqBwOY9L8W-67" value="" style="shape=partialRectangle;collapsible=0;dropTarget=0;pointerEvents=0;fillColor=none;top=0;left=0;bottom=0;right=0;points=[[0,0.5],[1,0.5]];portConstraint=eastwest;" vertex="1" parent="Jz8gkrG2YhVqBwOY9L8W-54">
          <mxGeometry y="150" width="180" height="30" as="geometry" />
        </mxCell>
        <mxCell id="Jz8gkrG2YhVqBwOY9L8W-68" value="" style="shape=partialRectangle;connectable=0;fillColor=none;top=0;left=0;bottom=0;right=0;editable=1;overflow=hidden;" vertex="1" parent="Jz8gkrG2YhVqBwOY9L8W-67">
          <mxGeometry width="60" height="30" as="geometry" />
        </mxCell>
        <mxCell id="Jz8gkrG2YhVqBwOY9L8W-69" value="Lead Status" style="shape=partialRectangle;connectable=0;fillColor=none;top=0;left=0;bottom=0;right=0;align=left;spacingLeft=6;overflow=hidden;" vertex="1" parent="Jz8gkrG2YhVqBwOY9L8W-67">
          <mxGeometry x="60" width="120" height="30" as="geometry" />
        </mxCell>
        <mxCell id="Jz8gkrG2YhVqBwOY9L8W-70" value="" style="shape=partialRectangle;collapsible=0;dropTarget=0;pointerEvents=0;fillColor=none;top=0;left=0;bottom=0;right=0;points=[[0,0.5],[1,0.5]];portConstraint=eastwest;" vertex="1" parent="Jz8gkrG2YhVqBwOY9L8W-54">
          <mxGeometry y="180" width="180" height="30" as="geometry" />
        </mxCell>
        <mxCell id="Jz8gkrG2YhVqBwOY9L8W-71" value="" style="shape=partialRectangle;connectable=0;fillColor=none;top=0;left=0;bottom=0;right=0;editable=1;overflow=hidden;" vertex="1" parent="Jz8gkrG2YhVqBwOY9L8W-70">
          <mxGeometry width="60" height="30" as="geometry" />
        </mxCell>
        <mxCell id="Jz8gkrG2YhVqBwOY9L8W-72" value="Related Contact" style="shape=partialRectangle;connectable=0;fillColor=none;top=0;left=0;bottom=0;right=0;align=left;spacingLeft=6;overflow=hidden;" vertex="1" parent="Jz8gkrG2YhVqBwOY9L8W-70">
          <mxGeometry x="60" width="120" height="30" as="geometry" />
        </mxCell>
        <mxCell id="Jz8gkrG2YhVqBwOY9L8W-73" value="Contacts" style="shape=table;startSize=30;container=1;collapsible=1;childLayout=tableLayout;fixedRows=1;rowLines=0;fontStyle=1;align=center;resizeLast=1;" vertex="1" parent="1">
          <mxGeometry x="160" y="610" width="180" height="430" as="geometry" />
        </mxCell>
        <mxCell id="Jz8gkrG2YhVqBwOY9L8W-74" value="" style="shape=partialRectangle;collapsible=0;dropTarget=0;pointerEvents=0;fillColor=none;top=0;left=0;bottom=0;right=0;points=[[0,0.5],[1,0.5]];portConstraint=eastwest;" vertex="1" parent="Jz8gkrG2YhVqBwOY9L8W-73">
          <mxGeometry y="30" width="180" height="30" as="geometry" />
        </mxCell>
        <mxCell id="Jz8gkrG2YhVqBwOY9L8W-75" value="PK" style="shape=partialRectangle;connectable=0;fillColor=none;top=0;left=0;bottom=0;right=0;fontStyle=1;overflow=hidden;" vertex="1" parent="Jz8gkrG2YhVqBwOY9L8W-74">
          <mxGeometry width="60" height="30" as="geometry" />
        </mxCell>
        <mxCell id="Jz8gkrG2YhVqBwOY9L8W-76" value=" Phone Number" style="shape=partialRectangle;connectable=0;fillColor=none;top=0;left=0;bottom=0;right=0;align=left;spacingLeft=6;fontStyle=5;overflow=hidden;" vertex="1" parent="Jz8gkrG2YhVqBwOY9L8W-74">
          <mxGeometry x="60" width="120" height="30" as="geometry" />
        </mxCell>
        <mxCell id="Jz8gkrG2YhVqBwOY9L8W-77" value="" style="shape=partialRectangle;collapsible=0;dropTarget=0;pointerEvents=0;fillColor=none;top=0;left=0;bottom=1;right=0;points=[[0,0.5],[1,0.5]];portConstraint=eastwest;" vertex="1" parent="Jz8gkrG2YhVqBwOY9L8W-73">
          <mxGeometry y="60" width="180" height="30" as="geometry" />
        </mxCell>
        <mxCell id="Jz8gkrG2YhVqBwOY9L8W-78" value="FK" style="shape=partialRectangle;connectable=0;fillColor=none;top=0;left=0;bottom=0;right=0;fontStyle=1;overflow=hidden;" vertex="1" parent="Jz8gkrG2YhVqBwOY9L8W-77">
          <mxGeometry width="60" height="30" as="geometry" />
        </mxCell>
        <mxCell id="Jz8gkrG2YhVqBwOY9L8W-79" value="PhoneNumber" style="shape=partialRectangle;connectable=0;fillColor=none;top=0;left=0;bottom=0;right=0;align=left;spacingLeft=6;fontStyle=5;overflow=hidden;" vertex="1" parent="Jz8gkrG2YhVqBwOY9L8W-77">
          <mxGeometry x="60" width="120" height="30" as="geometry" />
        </mxCell>
        <mxCell id="Jz8gkrG2YhVqBwOY9L8W-80" value="" style="shape=partialRectangle;collapsible=0;dropTarget=0;pointerEvents=0;fillColor=none;top=0;left=0;bottom=0;right=0;points=[[0,0.5],[1,0.5]];portConstraint=eastwest;" vertex="1" parent="Jz8gkrG2YhVqBwOY9L8W-73">
          <mxGeometry y="90" width="180" height="30" as="geometry" />
        </mxCell>
        <mxCell id="Jz8gkrG2YhVqBwOY9L8W-81" value="String" style="shape=partialRectangle;connectable=0;fillColor=none;top=0;left=0;bottom=0;right=0;editable=1;overflow=hidden;" vertex="1" parent="Jz8gkrG2YhVqBwOY9L8W-80">
          <mxGeometry width="60" height="30" as="geometry" />
        </mxCell>
        <mxCell id="Jz8gkrG2YhVqBwOY9L8W-82" value="First Name" style="shape=partialRectangle;connectable=0;fillColor=none;top=0;left=0;bottom=0;right=0;align=left;spacingLeft=6;overflow=hidden;" vertex="1" parent="Jz8gkrG2YhVqBwOY9L8W-80">
          <mxGeometry x="60" width="120" height="30" as="geometry" />
        </mxCell>
        <mxCell id="Jz8gkrG2YhVqBwOY9L8W-83" value="" style="shape=partialRectangle;collapsible=0;dropTarget=0;pointerEvents=0;fillColor=none;top=0;left=0;bottom=0;right=0;points=[[0,0.5],[1,0.5]];portConstraint=eastwest;" vertex="1" parent="Jz8gkrG2YhVqBwOY9L8W-73">
          <mxGeometry y="120" width="180" height="30" as="geometry" />
        </mxCell>
        <mxCell id="Jz8gkrG2YhVqBwOY9L8W-84" value="String" style="shape=partialRectangle;connectable=0;fillColor=none;top=0;left=0;bottom=0;right=0;editable=1;overflow=hidden;" vertex="1" parent="Jz8gkrG2YhVqBwOY9L8W-83">
          <mxGeometry width="60" height="30" as="geometry" />
        </mxCell>
        <mxCell id="Jz8gkrG2YhVqBwOY9L8W-85" value="Middle Name" style="shape=partialRectangle;connectable=0;fillColor=none;top=0;left=0;bottom=0;right=0;align=left;spacingLeft=6;overflow=hidden;" vertex="1" parent="Jz8gkrG2YhVqBwOY9L8W-83">
          <mxGeometry x="60" width="120" height="30" as="geometry" />
        </mxCell>
        <mxCell id="Jz8gkrG2YhVqBwOY9L8W-86" value="" style="shape=partialRectangle;collapsible=0;dropTarget=0;pointerEvents=0;fillColor=none;top=0;left=0;bottom=0;right=0;points=[[0,0.5],[1,0.5]];portConstraint=eastwest;" vertex="1" parent="Jz8gkrG2YhVqBwOY9L8W-73">
          <mxGeometry y="150" width="180" height="30" as="geometry" />
        </mxCell>
        <mxCell id="Jz8gkrG2YhVqBwOY9L8W-87" value="" style="shape=partialRectangle;connectable=0;fillColor=none;top=0;left=0;bottom=0;right=0;editable=1;overflow=hidden;" vertex="1" parent="Jz8gkrG2YhVqBwOY9L8W-86">
          <mxGeometry width="60" height="30" as="geometry" />
        </mxCell>
        <mxCell id="Jz8gkrG2YhVqBwOY9L8W-88" value="Last Name" style="shape=partialRectangle;connectable=0;fillColor=none;top=0;left=0;bottom=0;right=0;align=left;spacingLeft=6;overflow=hidden;" vertex="1" parent="Jz8gkrG2YhVqBwOY9L8W-86">
          <mxGeometry x="60" width="120" height="30" as="geometry" />
        </mxCell>
        <mxCell id="Jz8gkrG2YhVqBwOY9L8W-105" value="" style="shape=partialRectangle;collapsible=0;dropTarget=0;pointerEvents=0;fillColor=none;top=0;left=0;bottom=0;right=0;points=[[0,0.5],[1,0.5]];portConstraint=eastwest;" vertex="1" parent="Jz8gkrG2YhVqBwOY9L8W-73">
          <mxGeometry y="180" width="180" height="30" as="geometry" />
        </mxCell>
        <mxCell id="Jz8gkrG2YhVqBwOY9L8W-106" value="Long" style="shape=partialRectangle;connectable=0;fillColor=none;top=0;left=0;bottom=0;right=0;editable=1;overflow=hidden;" vertex="1" parent="Jz8gkrG2YhVqBwOY9L8W-105">
          <mxGeometry width="60" height="30" as="geometry" />
        </mxCell>
        <mxCell id="Jz8gkrG2YhVqBwOY9L8W-107" value="Phone Number" style="shape=partialRectangle;connectable=0;fillColor=none;top=0;left=0;bottom=0;right=0;align=left;spacingLeft=6;overflow=hidden;" vertex="1" parent="Jz8gkrG2YhVqBwOY9L8W-105">
          <mxGeometry x="60" width="120" height="30" as="geometry" />
        </mxCell>
        <mxCell id="Jz8gkrG2YhVqBwOY9L8W-108" value="" style="shape=partialRectangle;collapsible=0;dropTarget=0;pointerEvents=0;fillColor=none;top=0;left=0;bottom=0;right=0;points=[[0,0.5],[1,0.5]];portConstraint=eastwest;" vertex="1" parent="Jz8gkrG2YhVqBwOY9L8W-73">
          <mxGeometry y="210" width="180" height="30" as="geometry" />
        </mxCell>
        <mxCell id="Jz8gkrG2YhVqBwOY9L8W-109" value="String" style="shape=partialRectangle;connectable=0;fillColor=none;top=0;left=0;bottom=0;right=0;editable=1;overflow=hidden;" vertex="1" parent="Jz8gkrG2YhVqBwOY9L8W-108">
          <mxGeometry width="60" height="30" as="geometry" />
        </mxCell>
        <mxCell id="Jz8gkrG2YhVqBwOY9L8W-110" value="Email Address" style="shape=partialRectangle;connectable=0;fillColor=none;top=0;left=0;bottom=0;right=0;align=left;spacingLeft=6;overflow=hidden;" vertex="1" parent="Jz8gkrG2YhVqBwOY9L8W-108">
          <mxGeometry x="60" width="120" height="30" as="geometry" />
        </mxCell>
        <mxCell id="Jz8gkrG2YhVqBwOY9L8W-111" value="" style="shape=partialRectangle;collapsible=0;dropTarget=0;pointerEvents=0;fillColor=none;top=0;left=0;bottom=0;right=0;points=[[0,0.5],[1,0.5]];portConstraint=eastwest;" vertex="1" parent="Jz8gkrG2YhVqBwOY9L8W-73">
          <mxGeometry y="240" width="180" height="30" as="geometry" />
        </mxCell>
        <mxCell id="Jz8gkrG2YhVqBwOY9L8W-112" value="" style="shape=partialRectangle;connectable=0;fillColor=none;top=0;left=0;bottom=0;right=0;editable=1;overflow=hidden;" vertex="1" parent="Jz8gkrG2YhVqBwOY9L8W-111">
          <mxGeometry width="60" height="30" as="geometry" />
        </mxCell>
        <mxCell id="Jz8gkrG2YhVqBwOY9L8W-113" value="Mailing Address" style="shape=partialRectangle;connectable=0;fillColor=none;top=0;left=0;bottom=0;right=0;align=left;spacingLeft=6;overflow=hidden;" vertex="1" parent="Jz8gkrG2YhVqBwOY9L8W-111">
          <mxGeometry x="60" width="120" height="30" as="geometry" />
        </mxCell>
        <mxCell id="Jz8gkrG2YhVqBwOY9L8W-114" value="" style="shape=partialRectangle;collapsible=0;dropTarget=0;pointerEvents=0;fillColor=none;top=0;left=0;bottom=0;right=0;points=[[0,0.5],[1,0.5]];portConstraint=eastwest;" vertex="1" parent="Jz8gkrG2YhVqBwOY9L8W-73">
          <mxGeometry y="270" width="180" height="30" as="geometry" />
        </mxCell>
        <mxCell id="Jz8gkrG2YhVqBwOY9L8W-115" value="" style="shape=partialRectangle;connectable=0;fillColor=none;top=0;left=0;bottom=0;right=0;editable=1;overflow=hidden;" vertex="1" parent="Jz8gkrG2YhVqBwOY9L8W-114">
          <mxGeometry width="60" height="30" as="geometry" />
        </mxCell>
        <mxCell id="Jz8gkrG2YhVqBwOY9L8W-116" value="Permanant Address" style="shape=partialRectangle;connectable=0;fillColor=none;top=0;left=0;bottom=0;right=0;align=left;spacingLeft=6;overflow=hidden;" vertex="1" parent="Jz8gkrG2YhVqBwOY9L8W-114">
          <mxGeometry x="60" width="120" height="30" as="geometry" />
        </mxCell>
        <mxCell id="Jz8gkrG2YhVqBwOY9L8W-117" value="" style="shape=partialRectangle;collapsible=0;dropTarget=0;pointerEvents=0;fillColor=none;top=0;left=0;bottom=0;right=0;points=[[0,0.5],[1,0.5]];portConstraint=eastwest;" vertex="1" parent="Jz8gkrG2YhVqBwOY9L8W-73">
          <mxGeometry y="300" width="180" height="30" as="geometry" />
        </mxCell>
        <mxCell id="Jz8gkrG2YhVqBwOY9L8W-118" value="" style="shape=partialRectangle;connectable=0;fillColor=none;top=0;left=0;bottom=0;right=0;editable=1;overflow=hidden;" vertex="1" parent="Jz8gkrG2YhVqBwOY9L8W-117">
          <mxGeometry width="60" height="30" as="geometry" />
        </mxCell>
        <mxCell id="Jz8gkrG2YhVqBwOY9L8W-119" value="created at" style="shape=partialRectangle;connectable=0;fillColor=none;top=0;left=0;bottom=0;right=0;align=left;spacingLeft=6;overflow=hidden;" vertex="1" parent="Jz8gkrG2YhVqBwOY9L8W-117">
          <mxGeometry x="60" width="120" height="30" as="geometry" />
        </mxCell>
        <mxCell id="Jz8gkrG2YhVqBwOY9L8W-120" value="" style="shape=partialRectangle;collapsible=0;dropTarget=0;pointerEvents=0;fillColor=none;top=0;left=0;bottom=0;right=0;points=[[0,0.5],[1,0.5]];portConstraint=eastwest;" vertex="1" parent="Jz8gkrG2YhVqBwOY9L8W-73">
          <mxGeometry y="330" width="180" height="30" as="geometry" />
        </mxCell>
        <mxCell id="Jz8gkrG2YhVqBwOY9L8W-121" value="" style="shape=partialRectangle;connectable=0;fillColor=none;top=0;left=0;bottom=0;right=0;editable=1;overflow=hidden;" vertex="1" parent="Jz8gkrG2YhVqBwOY9L8W-120">
          <mxGeometry width="60" height="30" as="geometry" />
        </mxCell>
        <mxCell id="Jz8gkrG2YhVqBwOY9L8W-122" value="created by" style="shape=partialRectangle;connectable=0;fillColor=none;top=0;left=0;bottom=0;right=0;align=left;spacingLeft=6;overflow=hidden;" vertex="1" parent="Jz8gkrG2YhVqBwOY9L8W-120">
          <mxGeometry x="60" width="120" height="30" as="geometry" />
        </mxCell>
        <mxCell id="Jz8gkrG2YhVqBwOY9L8W-123" value="" style="shape=partialRectangle;collapsible=0;dropTarget=0;pointerEvents=0;fillColor=none;top=0;left=0;bottom=0;right=0;points=[[0,0.5],[1,0.5]];portConstraint=eastwest;" vertex="1" parent="Jz8gkrG2YhVqBwOY9L8W-73">
          <mxGeometry y="360" width="180" height="30" as="geometry" />
        </mxCell>
        <mxCell id="Jz8gkrG2YhVqBwOY9L8W-124" value="" style="shape=partialRectangle;connectable=0;fillColor=none;top=0;left=0;bottom=0;right=0;editable=1;overflow=hidden;" vertex="1" parent="Jz8gkrG2YhVqBwOY9L8W-123">
          <mxGeometry width="60" height="30" as="geometry" />
        </mxCell>
        <mxCell id="Jz8gkrG2YhVqBwOY9L8W-125" value="last_updated_at" style="shape=partialRectangle;connectable=0;fillColor=none;top=0;left=0;bottom=0;right=0;align=left;spacingLeft=6;overflow=hidden;" vertex="1" parent="Jz8gkrG2YhVqBwOY9L8W-123">
          <mxGeometry x="60" width="120" height="30" as="geometry" />
        </mxCell>
        <mxCell id="Jz8gkrG2YhVqBwOY9L8W-126" value="" style="shape=partialRectangle;collapsible=0;dropTarget=0;pointerEvents=0;fillColor=none;top=0;left=0;bottom=0;right=0;points=[[0,0.5],[1,0.5]];portConstraint=eastwest;" vertex="1" parent="Jz8gkrG2YhVqBwOY9L8W-73">
          <mxGeometry y="390" width="180" height="30" as="geometry" />
        </mxCell>
        <mxCell id="Jz8gkrG2YhVqBwOY9L8W-127" value="" style="shape=partialRectangle;connectable=0;fillColor=none;top=0;left=0;bottom=0;right=0;editable=1;overflow=hidden;" vertex="1" parent="Jz8gkrG2YhVqBwOY9L8W-126">
          <mxGeometry width="60" height="30" as="geometry" />
        </mxCell>
        <mxCell id="Jz8gkrG2YhVqBwOY9L8W-128" value="last_updated_by" style="shape=partialRectangle;connectable=0;fillColor=none;top=0;left=0;bottom=0;right=0;align=left;spacingLeft=6;overflow=hidden;" vertex="1" parent="Jz8gkrG2YhVqBwOY9L8W-126">
          <mxGeometry x="60" width="120" height="30" as="geometry" />
        </mxCell>
        <mxCell id="Jz8gkrG2YhVqBwOY9L8W-171" value="" style="edgeStyle=orthogonalEdgeStyle;rounded=0;orthogonalLoop=1;jettySize=auto;html=1;entryX=1;entryY=0.5;entryDx=0;entryDy=0;exitX=0.5;exitY=0;exitDx=0;exitDy=0;" edge="1" parent="1" source="Jz8gkrG2YhVqBwOY9L8W-73" target="Jz8gkrG2YhVqBwOY9L8W-70">
          <mxGeometry relative="1" as="geometry">
            <mxPoint x="460" y="570" as="sourcePoint" />
            <mxPoint x="350" y="510" as="targetPoint" />
          </mxGeometry>
        </mxCell>
        <mxCell id="Jz8gkrG2YhVqBwOY9L8W-172" value="Lead Statuses" style="shape=table;startSize=30;container=1;collapsible=1;childLayout=tableLayout;fixedRows=1;rowLines=0;fontStyle=1;align=center;resizeLast=1;" vertex="1" parent="1">
          <mxGeometry x="450" y="730" width="290" height="160" as="geometry" />
        </mxCell>
        <mxCell id="Jz8gkrG2YhVqBwOY9L8W-173" value="" style="shape=partialRectangle;collapsible=0;dropTarget=0;pointerEvents=0;fillColor=none;top=0;left=0;bottom=0;right=0;points=[[0,0.5],[1,0.5]];portConstraint=eastwest;" vertex="1" parent="Jz8gkrG2YhVqBwOY9L8W-172">
          <mxGeometry y="30" width="290" height="30" as="geometry" />
        </mxCell>
        <mxCell id="Jz8gkrG2YhVqBwOY9L8W-174" value="PK,FK1" style="shape=partialRectangle;connectable=0;fillColor=none;top=0;left=0;bottom=0;right=0;fontStyle=1;overflow=hidden;" vertex="1" parent="Jz8gkrG2YhVqBwOY9L8W-173">
          <mxGeometry width="60" height="30" as="geometry" />
        </mxCell>
        <mxCell id="Jz8gkrG2YhVqBwOY9L8W-175" value="Lead Status Id" style="shape=partialRectangle;connectable=0;fillColor=none;top=0;left=0;bottom=0;right=0;align=left;spacingLeft=6;fontStyle=5;overflow=hidden;" vertex="1" parent="Jz8gkrG2YhVqBwOY9L8W-173">
          <mxGeometry x="60" width="230" height="30" as="geometry" />
        </mxCell>
        <mxCell id="Jz8gkrG2YhVqBwOY9L8W-176" value="" style="shape=partialRectangle;collapsible=0;dropTarget=0;pointerEvents=0;fillColor=none;top=0;left=0;bottom=1;right=0;points=[[0,0.5],[1,0.5]];portConstraint=eastwest;" vertex="1" parent="Jz8gkrG2YhVqBwOY9L8W-172">
          <mxGeometry y="60" width="290" height="30" as="geometry" />
        </mxCell>
        <mxCell id="Jz8gkrG2YhVqBwOY9L8W-177" value="PK,FK2" style="shape=partialRectangle;connectable=0;fillColor=none;top=0;left=0;bottom=0;right=0;fontStyle=1;overflow=hidden;" vertex="1" parent="Jz8gkrG2YhVqBwOY9L8W-176">
          <mxGeometry width="60" height="30" as="geometry" />
        </mxCell>
        <mxCell id="Jz8gkrG2YhVqBwOY9L8W-178" value="Row 2" style="shape=partialRectangle;connectable=0;fillColor=none;top=0;left=0;bottom=0;right=0;align=left;spacingLeft=6;fontStyle=5;overflow=hidden;" vertex="1" parent="Jz8gkrG2YhVqBwOY9L8W-176">
          <mxGeometry x="60" width="230" height="30" as="geometry" />
        </mxCell>
        <mxCell id="Jz8gkrG2YhVqBwOY9L8W-179" value="" style="shape=partialRectangle;collapsible=0;dropTarget=0;pointerEvents=0;fillColor=none;top=0;left=0;bottom=0;right=0;points=[[0,0.5],[1,0.5]];portConstraint=eastwest;" vertex="1" parent="Jz8gkrG2YhVqBwOY9L8W-172">
          <mxGeometry y="90" width="290" height="30" as="geometry" />
        </mxCell>
        <mxCell id="Jz8gkrG2YhVqBwOY9L8W-180" value="" style="shape=partialRectangle;connectable=0;fillColor=none;top=0;left=0;bottom=0;right=0;editable=1;overflow=hidden;" vertex="1" parent="Jz8gkrG2YhVqBwOY9L8W-179">
          <mxGeometry width="60" height="30" as="geometry" />
        </mxCell>
        <mxCell id="Jz8gkrG2YhVqBwOY9L8W-181" value="Row 3" style="shape=partialRectangle;connectable=0;fillColor=none;top=0;left=0;bottom=0;right=0;align=left;spacingLeft=6;overflow=hidden;" vertex="1" parent="Jz8gkrG2YhVqBwOY9L8W-179">
          <mxGeometry x="60" width="230" height="30" as="geometry" />
        </mxCell>
        <mxCell id="Jz8gkrG2YhVqBwOY9L8W-182" value="" style="shape=partialRectangle;collapsible=0;dropTarget=0;pointerEvents=0;fillColor=none;top=0;left=0;bottom=0;right=0;points=[[0,0.5],[1,0.5]];portConstraint=eastwest;" vertex="1" parent="Jz8gkrG2YhVqBwOY9L8W-172">
          <mxGeometry y="120" width="290" height="30" as="geometry" />
        </mxCell>
        <mxCell id="Jz8gkrG2YhVqBwOY9L8W-183" value="" style="shape=partialRectangle;connectable=0;fillColor=none;top=0;left=0;bottom=0;right=0;editable=1;overflow=hidden;" vertex="1" parent="Jz8gkrG2YhVqBwOY9L8W-182">
          <mxGeometry width="60" height="30" as="geometry" />
        </mxCell>
        <mxCell id="Jz8gkrG2YhVqBwOY9L8W-184" value="Row 4" style="shape=partialRectangle;connectable=0;fillColor=none;top=0;left=0;bottom=0;right=0;align=left;spacingLeft=6;overflow=hidden;" vertex="1" parent="Jz8gkrG2YhVqBwOY9L8W-182">
          <mxGeometry x="60" width="230" height="30" as="geometry" />
        </mxCell>
        <mxCell id="Jz8gkrG2YhVqBwOY9L8W-198" value="Followup Messages" style="shape=table;startSize=30;container=1;collapsible=1;childLayout=tableLayout;fixedRows=1;rowLines=0;fontStyle=1;align=center;resizeLast=1;" vertex="1" parent="1">
          <mxGeometry x="850" y="340" width="180" height="160" as="geometry" />
        </mxCell>
        <mxCell id="Jz8gkrG2YhVqBwOY9L8W-199" value="" style="shape=partialRectangle;collapsible=0;dropTarget=0;pointerEvents=0;fillColor=none;top=0;left=0;bottom=0;right=0;points=[[0,0.5],[1,0.5]];portConstraint=eastwest;" vertex="1" parent="Jz8gkrG2YhVqBwOY9L8W-198">
          <mxGeometry y="30" width="180" height="30" as="geometry" />
        </mxCell>
        <mxCell id="Jz8gkrG2YhVqBwOY9L8W-200" value="PK,FK1" style="shape=partialRectangle;connectable=0;fillColor=none;top=0;left=0;bottom=0;right=0;fontStyle=1;overflow=hidden;" vertex="1" parent="Jz8gkrG2YhVqBwOY9L8W-199">
          <mxGeometry width="60" height="30" as="geometry" />
        </mxCell>
        <mxCell id="Jz8gkrG2YhVqBwOY9L8W-201" value="Row 1" style="shape=partialRectangle;connectable=0;fillColor=none;top=0;left=0;bottom=0;right=0;align=left;spacingLeft=6;fontStyle=5;overflow=hidden;" vertex="1" parent="Jz8gkrG2YhVqBwOY9L8W-199">
          <mxGeometry x="60" width="120" height="30" as="geometry" />
        </mxCell>
        <mxCell id="Jz8gkrG2YhVqBwOY9L8W-202" value="" style="shape=partialRectangle;collapsible=0;dropTarget=0;pointerEvents=0;fillColor=none;top=0;left=0;bottom=1;right=0;points=[[0,0.5],[1,0.5]];portConstraint=eastwest;" vertex="1" parent="Jz8gkrG2YhVqBwOY9L8W-198">
          <mxGeometry y="60" width="180" height="30" as="geometry" />
        </mxCell>
        <mxCell id="Jz8gkrG2YhVqBwOY9L8W-203" value="PK,FK2" style="shape=partialRectangle;connectable=0;fillColor=none;top=0;left=0;bottom=0;right=0;fontStyle=1;overflow=hidden;" vertex="1" parent="Jz8gkrG2YhVqBwOY9L8W-202">
          <mxGeometry width="60" height="30" as="geometry" />
        </mxCell>
        <mxCell id="Jz8gkrG2YhVqBwOY9L8W-204" value="Row 2" style="shape=partialRectangle;connectable=0;fillColor=none;top=0;left=0;bottom=0;right=0;align=left;spacingLeft=6;fontStyle=5;overflow=hidden;" vertex="1" parent="Jz8gkrG2YhVqBwOY9L8W-202">
          <mxGeometry x="60" width="120" height="30" as="geometry" />
        </mxCell>
        <mxCell id="Jz8gkrG2YhVqBwOY9L8W-205" value="" style="shape=partialRectangle;collapsible=0;dropTarget=0;pointerEvents=0;fillColor=none;top=0;left=0;bottom=0;right=0;points=[[0,0.5],[1,0.5]];portConstraint=eastwest;" vertex="1" parent="Jz8gkrG2YhVqBwOY9L8W-198">
          <mxGeometry y="90" width="180" height="30" as="geometry" />
        </mxCell>
        <mxCell id="Jz8gkrG2YhVqBwOY9L8W-206" value="" style="shape=partialRectangle;connectable=0;fillColor=none;top=0;left=0;bottom=0;right=0;editable=1;overflow=hidden;" vertex="1" parent="Jz8gkrG2YhVqBwOY9L8W-205">
          <mxGeometry width="60" height="30" as="geometry" />
        </mxCell>
        <mxCell id="Jz8gkrG2YhVqBwOY9L8W-207" value="Row 3" style="shape=partialRectangle;connectable=0;fillColor=none;top=0;left=0;bottom=0;right=0;align=left;spacingLeft=6;overflow=hidden;" vertex="1" parent="Jz8gkrG2YhVqBwOY9L8W-205">
          <mxGeometry x="60" width="120" height="30" as="geometry" />
        </mxCell>
        <mxCell id="Jz8gkrG2YhVqBwOY9L8W-208" value="" style="shape=partialRectangle;collapsible=0;dropTarget=0;pointerEvents=0;fillColor=none;top=0;left=0;bottom=0;right=0;points=[[0,0.5],[1,0.5]];portConstraint=eastwest;" vertex="1" parent="Jz8gkrG2YhVqBwOY9L8W-198">
          <mxGeometry y="120" width="180" height="30" as="geometry" />
        </mxCell>
        <mxCell id="Jz8gkrG2YhVqBwOY9L8W-209" value="" style="shape=partialRectangle;connectable=0;fillColor=none;top=0;left=0;bottom=0;right=0;editable=1;overflow=hidden;" vertex="1" parent="Jz8gkrG2YhVqBwOY9L8W-208">
          <mxGeometry width="60" height="30" as="geometry" />
        </mxCell>
        <mxCell id="Jz8gkrG2YhVqBwOY9L8W-210" value="Row 4" style="shape=partialRectangle;connectable=0;fillColor=none;top=0;left=0;bottom=0;right=0;align=left;spacingLeft=6;overflow=hidden;" vertex="1" parent="Jz8gkrG2YhVqBwOY9L8W-208">
          <mxGeometry x="60" width="120" height="30" as="geometry" />
        </mxCell>
        <mxCell id="Jz8gkrG2YhVqBwOY9L8W-211" value="Communication Log" style="shape=table;startSize=30;container=1;collapsible=1;childLayout=tableLayout;fixedRows=1;rowLines=0;fontStyle=1;align=center;resizeLast=1;" vertex="1" parent="1">
          <mxGeometry x="850" y="550" width="180" height="160" as="geometry" />
        </mxCell>
        <mxCell id="Jz8gkrG2YhVqBwOY9L8W-212" value="" style="shape=partialRectangle;collapsible=0;dropTarget=0;pointerEvents=0;fillColor=none;top=0;left=0;bottom=0;right=0;points=[[0,0.5],[1,0.5]];portConstraint=eastwest;" vertex="1" parent="Jz8gkrG2YhVqBwOY9L8W-211">
          <mxGeometry y="30" width="180" height="30" as="geometry" />
        </mxCell>
        <mxCell id="Jz8gkrG2YhVqBwOY9L8W-213" value="PK,FK1" style="shape=partialRectangle;connectable=0;fillColor=none;top=0;left=0;bottom=0;right=0;fontStyle=1;overflow=hidden;" vertex="1" parent="Jz8gkrG2YhVqBwOY9L8W-212">
          <mxGeometry width="60" height="30" as="geometry" />
        </mxCell>
        <mxCell id="Jz8gkrG2YhVqBwOY9L8W-214" value="Row 1" style="shape=partialRectangle;connectable=0;fillColor=none;top=0;left=0;bottom=0;right=0;align=left;spacingLeft=6;fontStyle=5;overflow=hidden;" vertex="1" parent="Jz8gkrG2YhVqBwOY9L8W-212">
          <mxGeometry x="60" width="120" height="30" as="geometry" />
        </mxCell>
        <mxCell id="Jz8gkrG2YhVqBwOY9L8W-215" value="" style="shape=partialRectangle;collapsible=0;dropTarget=0;pointerEvents=0;fillColor=none;top=0;left=0;bottom=1;right=0;points=[[0,0.5],[1,0.5]];portConstraint=eastwest;" vertex="1" parent="Jz8gkrG2YhVqBwOY9L8W-211">
          <mxGeometry y="60" width="180" height="30" as="geometry" />
        </mxCell>
        <mxCell id="Jz8gkrG2YhVqBwOY9L8W-216" value="PK,FK2" style="shape=partialRectangle;connectable=0;fillColor=none;top=0;left=0;bottom=0;right=0;fontStyle=1;overflow=hidden;" vertex="1" parent="Jz8gkrG2YhVqBwOY9L8W-215">
          <mxGeometry width="60" height="30" as="geometry" />
        </mxCell>
        <mxCell id="Jz8gkrG2YhVqBwOY9L8W-217" value="Row 2" style="shape=partialRectangle;connectable=0;fillColor=none;top=0;left=0;bottom=0;right=0;align=left;spacingLeft=6;fontStyle=5;overflow=hidden;" vertex="1" parent="Jz8gkrG2YhVqBwOY9L8W-215">
          <mxGeometry x="60" width="120" height="30" as="geometry" />
        </mxCell>
        <mxCell id="Jz8gkrG2YhVqBwOY9L8W-218" value="" style="shape=partialRectangle;collapsible=0;dropTarget=0;pointerEvents=0;fillColor=none;top=0;left=0;bottom=0;right=0;points=[[0,0.5],[1,0.5]];portConstraint=eastwest;" vertex="1" parent="Jz8gkrG2YhVqBwOY9L8W-211">
          <mxGeometry y="90" width="180" height="30" as="geometry" />
        </mxCell>
        <mxCell id="Jz8gkrG2YhVqBwOY9L8W-219" value="" style="shape=partialRectangle;connectable=0;fillColor=none;top=0;left=0;bottom=0;right=0;editable=1;overflow=hidden;" vertex="1" parent="Jz8gkrG2YhVqBwOY9L8W-218">
          <mxGeometry width="60" height="30" as="geometry" />
        </mxCell>
        <mxCell id="Jz8gkrG2YhVqBwOY9L8W-220" value="Row 3" style="shape=partialRectangle;connectable=0;fillColor=none;top=0;left=0;bottom=0;right=0;align=left;spacingLeft=6;overflow=hidden;" vertex="1" parent="Jz8gkrG2YhVqBwOY9L8W-218">
          <mxGeometry x="60" width="120" height="30" as="geometry" />
        </mxCell>
        <mxCell id="Jz8gkrG2YhVqBwOY9L8W-221" value="" style="shape=partialRectangle;collapsible=0;dropTarget=0;pointerEvents=0;fillColor=none;top=0;left=0;bottom=0;right=0;points=[[0,0.5],[1,0.5]];portConstraint=eastwest;" vertex="1" parent="Jz8gkrG2YhVqBwOY9L8W-211">
          <mxGeometry y="120" width="180" height="30" as="geometry" />
        </mxCell>
        <mxCell id="Jz8gkrG2YhVqBwOY9L8W-222" value="" style="shape=partialRectangle;connectable=0;fillColor=none;top=0;left=0;bottom=0;right=0;editable=1;overflow=hidden;" vertex="1" parent="Jz8gkrG2YhVqBwOY9L8W-221">
          <mxGeometry width="60" height="30" as="geometry" />
        </mxCell>
        <mxCell id="Jz8gkrG2YhVqBwOY9L8W-223" value="Row 4" style="shape=partialRectangle;connectable=0;fillColor=none;top=0;left=0;bottom=0;right=0;align=left;spacingLeft=6;overflow=hidden;" vertex="1" parent="Jz8gkrG2YhVqBwOY9L8W-221">
          <mxGeometry x="60" width="120" height="30" as="geometry" />
        </mxCell>
        <mxCell id="Jz8gkrG2YhVqBwOY9L8W-224" value="Cashbuyers" style="shape=table;startSize=30;container=1;collapsible=1;childLayout=tableLayout;fixedRows=1;rowLines=0;fontStyle=1;align=center;resizeLast=1;" vertex="1" parent="1">
          <mxGeometry x="850" y="750" width="180" height="160" as="geometry" />
        </mxCell>
        <mxCell id="Jz8gkrG2YhVqBwOY9L8W-225" value="" style="shape=partialRectangle;collapsible=0;dropTarget=0;pointerEvents=0;fillColor=none;top=0;left=0;bottom=0;right=0;points=[[0,0.5],[1,0.5]];portConstraint=eastwest;" vertex="1" parent="Jz8gkrG2YhVqBwOY9L8W-224">
          <mxGeometry y="30" width="180" height="30" as="geometry" />
        </mxCell>
        <mxCell id="Jz8gkrG2YhVqBwOY9L8W-226" value="PK,FK1" style="shape=partialRectangle;connectable=0;fillColor=none;top=0;left=0;bottom=0;right=0;fontStyle=1;overflow=hidden;" vertex="1" parent="Jz8gkrG2YhVqBwOY9L8W-225">
          <mxGeometry width="60" height="30" as="geometry" />
        </mxCell>
        <mxCell id="Jz8gkrG2YhVqBwOY9L8W-227" value="Row 1" style="shape=partialRectangle;connectable=0;fillColor=none;top=0;left=0;bottom=0;right=0;align=left;spacingLeft=6;fontStyle=5;overflow=hidden;" vertex="1" parent="Jz8gkrG2YhVqBwOY9L8W-225">
          <mxGeometry x="60" width="120" height="30" as="geometry" />
        </mxCell>
        <mxCell id="Jz8gkrG2YhVqBwOY9L8W-228" value="" style="shape=partialRectangle;collapsible=0;dropTarget=0;pointerEvents=0;fillColor=none;top=0;left=0;bottom=1;right=0;points=[[0,0.5],[1,0.5]];portConstraint=eastwest;" vertex="1" parent="Jz8gkrG2YhVqBwOY9L8W-224">
          <mxGeometry y="60" width="180" height="30" as="geometry" />
        </mxCell>
        <mxCell id="Jz8gkrG2YhVqBwOY9L8W-229" value="PK,FK2" style="shape=partialRectangle;connectable=0;fillColor=none;top=0;left=0;bottom=0;right=0;fontStyle=1;overflow=hidden;" vertex="1" parent="Jz8gkrG2YhVqBwOY9L8W-228">
          <mxGeometry width="60" height="30" as="geometry" />
        </mxCell>
        <mxCell id="Jz8gkrG2YhVqBwOY9L8W-230" value="Row 2" style="shape=partialRectangle;connectable=0;fillColor=none;top=0;left=0;bottom=0;right=0;align=left;spacingLeft=6;fontStyle=5;overflow=hidden;" vertex="1" parent="Jz8gkrG2YhVqBwOY9L8W-228">
          <mxGeometry x="60" width="120" height="30" as="geometry" />
        </mxCell>
        <mxCell id="Jz8gkrG2YhVqBwOY9L8W-231" value="" style="shape=partialRectangle;collapsible=0;dropTarget=0;pointerEvents=0;fillColor=none;top=0;left=0;bottom=0;right=0;points=[[0,0.5],[1,0.5]];portConstraint=eastwest;" vertex="1" parent="Jz8gkrG2YhVqBwOY9L8W-224">
          <mxGeometry y="90" width="180" height="30" as="geometry" />
        </mxCell>
        <mxCell id="Jz8gkrG2YhVqBwOY9L8W-232" value="" style="shape=partialRectangle;connectable=0;fillColor=none;top=0;left=0;bottom=0;right=0;editable=1;overflow=hidden;" vertex="1" parent="Jz8gkrG2YhVqBwOY9L8W-231">
          <mxGeometry width="60" height="30" as="geometry" />
        </mxCell>
        <mxCell id="Jz8gkrG2YhVqBwOY9L8W-233" value="Row 3" style="shape=partialRectangle;connectable=0;fillColor=none;top=0;left=0;bottom=0;right=0;align=left;spacingLeft=6;overflow=hidden;" vertex="1" parent="Jz8gkrG2YhVqBwOY9L8W-231">
          <mxGeometry x="60" width="120" height="30" as="geometry" />
        </mxCell>
        <mxCell id="Jz8gkrG2YhVqBwOY9L8W-234" value="" style="shape=partialRectangle;collapsible=0;dropTarget=0;pointerEvents=0;fillColor=none;top=0;left=0;bottom=0;right=0;points=[[0,0.5],[1,0.5]];portConstraint=eastwest;" vertex="1" parent="Jz8gkrG2YhVqBwOY9L8W-224">
          <mxGeometry y="120" width="180" height="30" as="geometry" />
        </mxCell>
        <mxCell id="Jz8gkrG2YhVqBwOY9L8W-235" value="" style="shape=partialRectangle;connectable=0;fillColor=none;top=0;left=0;bottom=0;right=0;editable=1;overflow=hidden;" vertex="1" parent="Jz8gkrG2YhVqBwOY9L8W-234">
          <mxGeometry width="60" height="30" as="geometry" />
        </mxCell>
        <mxCell id="Jz8gkrG2YhVqBwOY9L8W-236" value="Row 4" style="shape=partialRectangle;connectable=0;fillColor=none;top=0;left=0;bottom=0;right=0;align=left;spacingLeft=6;overflow=hidden;" vertex="1" parent="Jz8gkrG2YhVqBwOY9L8W-234">
          <mxGeometry x="60" width="120" height="30" as="geometry" />
        </mxCell>
        <mxCell id="Jz8gkrG2YhVqBwOY9L8W-237" value="Offers" style="shape=table;startSize=30;container=1;collapsible=1;childLayout=tableLayout;fixedRows=1;rowLines=0;fontStyle=1;align=center;resizeLast=1;" vertex="1" parent="1">
          <mxGeometry x="850" y="950" width="180" height="160" as="geometry" />
        </mxCell>
        <mxCell id="Jz8gkrG2YhVqBwOY9L8W-238" value="" style="shape=partialRectangle;collapsible=0;dropTarget=0;pointerEvents=0;fillColor=none;top=0;left=0;bottom=0;right=0;points=[[0,0.5],[1,0.5]];portConstraint=eastwest;" vertex="1" parent="Jz8gkrG2YhVqBwOY9L8W-237">
          <mxGeometry y="30" width="180" height="30" as="geometry" />
        </mxCell>
        <mxCell id="Jz8gkrG2YhVqBwOY9L8W-239" value="PK,FK1" style="shape=partialRectangle;connectable=0;fillColor=none;top=0;left=0;bottom=0;right=0;fontStyle=1;overflow=hidden;" vertex="1" parent="Jz8gkrG2YhVqBwOY9L8W-238">
          <mxGeometry width="60" height="30" as="geometry" />
        </mxCell>
        <mxCell id="Jz8gkrG2YhVqBwOY9L8W-240" value="Row 1" style="shape=partialRectangle;connectable=0;fillColor=none;top=0;left=0;bottom=0;right=0;align=left;spacingLeft=6;fontStyle=5;overflow=hidden;" vertex="1" parent="Jz8gkrG2YhVqBwOY9L8W-238">
          <mxGeometry x="60" width="120" height="30" as="geometry" />
        </mxCell>
        <mxCell id="Jz8gkrG2YhVqBwOY9L8W-241" value="" style="shape=partialRectangle;collapsible=0;dropTarget=0;pointerEvents=0;fillColor=none;top=0;left=0;bottom=1;right=0;points=[[0,0.5],[1,0.5]];portConstraint=eastwest;" vertex="1" parent="Jz8gkrG2YhVqBwOY9L8W-237">
          <mxGeometry y="60" width="180" height="30" as="geometry" />
        </mxCell>
        <mxCell id="Jz8gkrG2YhVqBwOY9L8W-242" value="PK,FK2" style="shape=partialRectangle;connectable=0;fillColor=none;top=0;left=0;bottom=0;right=0;fontStyle=1;overflow=hidden;" vertex="1" parent="Jz8gkrG2YhVqBwOY9L8W-241">
          <mxGeometry width="60" height="30" as="geometry" />
        </mxCell>
        <mxCell id="Jz8gkrG2YhVqBwOY9L8W-243" value="Row 2" style="shape=partialRectangle;connectable=0;fillColor=none;top=0;left=0;bottom=0;right=0;align=left;spacingLeft=6;fontStyle=5;overflow=hidden;" vertex="1" parent="Jz8gkrG2YhVqBwOY9L8W-241">
          <mxGeometry x="60" width="120" height="30" as="geometry" />
        </mxCell>
        <mxCell id="Jz8gkrG2YhVqBwOY9L8W-244" value="" style="shape=partialRectangle;collapsible=0;dropTarget=0;pointerEvents=0;fillColor=none;top=0;left=0;bottom=0;right=0;points=[[0,0.5],[1,0.5]];portConstraint=eastwest;" vertex="1" parent="Jz8gkrG2YhVqBwOY9L8W-237">
          <mxGeometry y="90" width="180" height="30" as="geometry" />
        </mxCell>
        <mxCell id="Jz8gkrG2YhVqBwOY9L8W-245" value="" style="shape=partialRectangle;connectable=0;fillColor=none;top=0;left=0;bottom=0;right=0;editable=1;overflow=hidden;" vertex="1" parent="Jz8gkrG2YhVqBwOY9L8W-244">
          <mxGeometry width="60" height="30" as="geometry" />
        </mxCell>
        <mxCell id="Jz8gkrG2YhVqBwOY9L8W-246" value="Row 3" style="shape=partialRectangle;connectable=0;fillColor=none;top=0;left=0;bottom=0;right=0;align=left;spacingLeft=6;overflow=hidden;" vertex="1" parent="Jz8gkrG2YhVqBwOY9L8W-244">
          <mxGeometry x="60" width="120" height="30" as="geometry" />
        </mxCell>
        <mxCell id="Jz8gkrG2YhVqBwOY9L8W-247" value="" style="shape=partialRectangle;collapsible=0;dropTarget=0;pointerEvents=0;fillColor=none;top=0;left=0;bottom=0;right=0;points=[[0,0.5],[1,0.5]];portConstraint=eastwest;" vertex="1" parent="Jz8gkrG2YhVqBwOY9L8W-237">
          <mxGeometry y="120" width="180" height="30" as="geometry" />
        </mxCell>
        <mxCell id="Jz8gkrG2YhVqBwOY9L8W-248" value="" style="shape=partialRectangle;connectable=0;fillColor=none;top=0;left=0;bottom=0;right=0;editable=1;overflow=hidden;" vertex="1" parent="Jz8gkrG2YhVqBwOY9L8W-247">
          <mxGeometry width="60" height="30" as="geometry" />
        </mxCell>
        <mxCell id="Jz8gkrG2YhVqBwOY9L8W-249" value="Row 4" style="shape=partialRectangle;connectable=0;fillColor=none;top=0;left=0;bottom=0;right=0;align=left;spacingLeft=6;overflow=hidden;" vertex="1" parent="Jz8gkrG2YhVqBwOY9L8W-247">
          <mxGeometry x="60" width="120" height="30" as="geometry" />
        </mxCell>
        <mxCell id="Jz8gkrG2YhVqBwOY9L8W-250" value="Deals" style="shape=table;startSize=30;container=1;collapsible=1;childLayout=tableLayout;fixedRows=1;rowLines=0;fontStyle=1;align=center;resizeLast=1;" vertex="1" parent="1">
          <mxGeometry x="570" y="960" width="180" height="160" as="geometry" />
        </mxCell>
        <mxCell id="Jz8gkrG2YhVqBwOY9L8W-251" value="" style="shape=partialRectangle;collapsible=0;dropTarget=0;pointerEvents=0;fillColor=none;top=0;left=0;bottom=0;right=0;points=[[0,0.5],[1,0.5]];portConstraint=eastwest;" vertex="1" parent="Jz8gkrG2YhVqBwOY9L8W-250">
          <mxGeometry y="30" width="180" height="30" as="geometry" />
        </mxCell>
        <mxCell id="Jz8gkrG2YhVqBwOY9L8W-252" value="PK,FK1" style="shape=partialRectangle;connectable=0;fillColor=none;top=0;left=0;bottom=0;right=0;fontStyle=1;overflow=hidden;" vertex="1" parent="Jz8gkrG2YhVqBwOY9L8W-251">
          <mxGeometry width="60" height="30" as="geometry" />
        </mxCell>
        <mxCell id="Jz8gkrG2YhVqBwOY9L8W-253" value="Row 1" style="shape=partialRectangle;connectable=0;fillColor=none;top=0;left=0;bottom=0;right=0;align=left;spacingLeft=6;fontStyle=5;overflow=hidden;" vertex="1" parent="Jz8gkrG2YhVqBwOY9L8W-251">
          <mxGeometry x="60" width="120" height="30" as="geometry" />
        </mxCell>
        <mxCell id="Jz8gkrG2YhVqBwOY9L8W-254" value="" style="shape=partialRectangle;collapsible=0;dropTarget=0;pointerEvents=0;fillColor=none;top=0;left=0;bottom=1;right=0;points=[[0,0.5],[1,0.5]];portConstraint=eastwest;" vertex="1" parent="Jz8gkrG2YhVqBwOY9L8W-250">
          <mxGeometry y="60" width="180" height="30" as="geometry" />
        </mxCell>
        <mxCell id="Jz8gkrG2YhVqBwOY9L8W-255" value="PK,FK2" style="shape=partialRectangle;connectable=0;fillColor=none;top=0;left=0;bottom=0;right=0;fontStyle=1;overflow=hidden;" vertex="1" parent="Jz8gkrG2YhVqBwOY9L8W-254">
          <mxGeometry width="60" height="30" as="geometry" />
        </mxCell>
        <mxCell id="Jz8gkrG2YhVqBwOY9L8W-256" value="Row 2" style="shape=partialRectangle;connectable=0;fillColor=none;top=0;left=0;bottom=0;right=0;align=left;spacingLeft=6;fontStyle=5;overflow=hidden;" vertex="1" parent="Jz8gkrG2YhVqBwOY9L8W-254">
          <mxGeometry x="60" width="120" height="30" as="geometry" />
        </mxCell>
        <mxCell id="Jz8gkrG2YhVqBwOY9L8W-257" value="" style="shape=partialRectangle;collapsible=0;dropTarget=0;pointerEvents=0;fillColor=none;top=0;left=0;bottom=0;right=0;points=[[0,0.5],[1,0.5]];portConstraint=eastwest;" vertex="1" parent="Jz8gkrG2YhVqBwOY9L8W-250">
          <mxGeometry y="90" width="180" height="30" as="geometry" />
        </mxCell>
        <mxCell id="Jz8gkrG2YhVqBwOY9L8W-258" value="" style="shape=partialRectangle;connectable=0;fillColor=none;top=0;left=0;bottom=0;right=0;editable=1;overflow=hidden;" vertex="1" parent="Jz8gkrG2YhVqBwOY9L8W-257">
          <mxGeometry width="60" height="30" as="geometry" />
        </mxCell>
        <mxCell id="Jz8gkrG2YhVqBwOY9L8W-259" value="Row 3" style="shape=partialRectangle;connectable=0;fillColor=none;top=0;left=0;bottom=0;right=0;align=left;spacingLeft=6;overflow=hidden;" vertex="1" parent="Jz8gkrG2YhVqBwOY9L8W-257">
          <mxGeometry x="60" width="120" height="30" as="geometry" />
        </mxCell>
        <mxCell id="Jz8gkrG2YhVqBwOY9L8W-260" value="" style="shape=partialRectangle;collapsible=0;dropTarget=0;pointerEvents=0;fillColor=none;top=0;left=0;bottom=0;right=0;points=[[0,0.5],[1,0.5]];portConstraint=eastwest;" vertex="1" parent="Jz8gkrG2YhVqBwOY9L8W-250">
          <mxGeometry y="120" width="180" height="30" as="geometry" />
        </mxCell>
        <mxCell id="Jz8gkrG2YhVqBwOY9L8W-261" value="" style="shape=partialRectangle;connectable=0;fillColor=none;top=0;left=0;bottom=0;right=0;editable=1;overflow=hidden;" vertex="1" parent="Jz8gkrG2YhVqBwOY9L8W-260">
          <mxGeometry width="60" height="30" as="geometry" />
        </mxCell>
        <mxCell id="Jz8gkrG2YhVqBwOY9L8W-262" value="Row 4" style="shape=partialRectangle;connectable=0;fillColor=none;top=0;left=0;bottom=0;right=0;align=left;spacingLeft=6;overflow=hidden;" vertex="1" parent="Jz8gkrG2YhVqBwOY9L8W-260">
          <mxGeometry x="60" width="120" height="30" as="geometry" />
        </mxCell>
        <mxCell id="Jz8gkrG2YhVqBwOY9L8W-276" value="Client Companies" style="shape=table;startSize=30;container=1;collapsible=1;childLayout=tableLayout;fixedRows=1;rowLines=0;fontStyle=1;align=center;resizeLast=1;" vertex="1" parent="1">
          <mxGeometry x="1100" y="340" width="180" height="160" as="geometry" />
        </mxCell>
        <mxCell id="Jz8gkrG2YhVqBwOY9L8W-277" value="" style="shape=partialRectangle;collapsible=0;dropTarget=0;pointerEvents=0;fillColor=none;top=0;left=0;bottom=0;right=0;points=[[0,0.5],[1,0.5]];portConstraint=eastwest;" vertex="1" parent="Jz8gkrG2YhVqBwOY9L8W-276">
          <mxGeometry y="30" width="180" height="30" as="geometry" />
        </mxCell>
        <mxCell id="Jz8gkrG2YhVqBwOY9L8W-278" value="PK,FK1" style="shape=partialRectangle;connectable=0;fillColor=none;top=0;left=0;bottom=0;right=0;fontStyle=1;overflow=hidden;" vertex="1" parent="Jz8gkrG2YhVqBwOY9L8W-277">
          <mxGeometry width="60" height="30" as="geometry" />
        </mxCell>
        <mxCell id="Jz8gkrG2YhVqBwOY9L8W-279" value="Row 1" style="shape=partialRectangle;connectable=0;fillColor=none;top=0;left=0;bottom=0;right=0;align=left;spacingLeft=6;fontStyle=5;overflow=hidden;" vertex="1" parent="Jz8gkrG2YhVqBwOY9L8W-277">
          <mxGeometry x="60" width="120" height="30" as="geometry" />
        </mxCell>
        <mxCell id="Jz8gkrG2YhVqBwOY9L8W-280" value="" style="shape=partialRectangle;collapsible=0;dropTarget=0;pointerEvents=0;fillColor=none;top=0;left=0;bottom=1;right=0;points=[[0,0.5],[1,0.5]];portConstraint=eastwest;" vertex="1" parent="Jz8gkrG2YhVqBwOY9L8W-276">
          <mxGeometry y="60" width="180" height="30" as="geometry" />
        </mxCell>
        <mxCell id="Jz8gkrG2YhVqBwOY9L8W-281" value="PK,FK2" style="shape=partialRectangle;connectable=0;fillColor=none;top=0;left=0;bottom=0;right=0;fontStyle=1;overflow=hidden;" vertex="1" parent="Jz8gkrG2YhVqBwOY9L8W-280">
          <mxGeometry width="60" height="30" as="geometry" />
        </mxCell>
        <mxCell id="Jz8gkrG2YhVqBwOY9L8W-282" value="Row 2" style="shape=partialRectangle;connectable=0;fillColor=none;top=0;left=0;bottom=0;right=0;align=left;spacingLeft=6;fontStyle=5;overflow=hidden;" vertex="1" parent="Jz8gkrG2YhVqBwOY9L8W-280">
          <mxGeometry x="60" width="120" height="30" as="geometry" />
        </mxCell>
        <mxCell id="Jz8gkrG2YhVqBwOY9L8W-283" value="" style="shape=partialRectangle;collapsible=0;dropTarget=0;pointerEvents=0;fillColor=none;top=0;left=0;bottom=0;right=0;points=[[0,0.5],[1,0.5]];portConstraint=eastwest;" vertex="1" parent="Jz8gkrG2YhVqBwOY9L8W-276">
          <mxGeometry y="90" width="180" height="30" as="geometry" />
        </mxCell>
        <mxCell id="Jz8gkrG2YhVqBwOY9L8W-284" value="" style="shape=partialRectangle;connectable=0;fillColor=none;top=0;left=0;bottom=0;right=0;editable=1;overflow=hidden;" vertex="1" parent="Jz8gkrG2YhVqBwOY9L8W-283">
          <mxGeometry width="60" height="30" as="geometry" />
        </mxCell>
        <mxCell id="Jz8gkrG2YhVqBwOY9L8W-285" value="Row 3" style="shape=partialRectangle;connectable=0;fillColor=none;top=0;left=0;bottom=0;right=0;align=left;spacingLeft=6;overflow=hidden;" vertex="1" parent="Jz8gkrG2YhVqBwOY9L8W-283">
          <mxGeometry x="60" width="120" height="30" as="geometry" />
        </mxCell>
        <mxCell id="Jz8gkrG2YhVqBwOY9L8W-286" value="" style="shape=partialRectangle;collapsible=0;dropTarget=0;pointerEvents=0;fillColor=none;top=0;left=0;bottom=0;right=0;points=[[0,0.5],[1,0.5]];portConstraint=eastwest;" vertex="1" parent="Jz8gkrG2YhVqBwOY9L8W-276">
          <mxGeometry y="120" width="180" height="30" as="geometry" />
        </mxCell>
        <mxCell id="Jz8gkrG2YhVqBwOY9L8W-287" value="" style="shape=partialRectangle;connectable=0;fillColor=none;top=0;left=0;bottom=0;right=0;editable=1;overflow=hidden;" vertex="1" parent="Jz8gkrG2YhVqBwOY9L8W-286">
          <mxGeometry width="60" height="30" as="geometry" />
        </mxCell>
        <mxCell id="Jz8gkrG2YhVqBwOY9L8W-288" value="Row 4" style="shape=partialRectangle;connectable=0;fillColor=none;top=0;left=0;bottom=0;right=0;align=left;spacingLeft=6;overflow=hidden;" vertex="1" parent="Jz8gkrG2YhVqBwOY9L8W-286">
          <mxGeometry x="60" width="120" height="30" as="geometry" />
        </mxCell>
        <mxCell id="Jz8gkrG2YhVqBwOY9L8W-289" value="Activities" style="shape=table;startSize=30;container=1;collapsible=1;childLayout=tableLayout;fixedRows=1;rowLines=0;fontStyle=1;align=center;resizeLast=1;" vertex="1" parent="1">
          <mxGeometry x="1080" y="550" width="180" height="160" as="geometry" />
        </mxCell>
        <mxCell id="Jz8gkrG2YhVqBwOY9L8W-290" value="" style="shape=partialRectangle;collapsible=0;dropTarget=0;pointerEvents=0;fillColor=none;top=0;left=0;bottom=0;right=0;points=[[0,0.5],[1,0.5]];portConstraint=eastwest;" vertex="1" parent="Jz8gkrG2YhVqBwOY9L8W-289">
          <mxGeometry y="30" width="180" height="30" as="geometry" />
        </mxCell>
        <mxCell id="Jz8gkrG2YhVqBwOY9L8W-291" value="PK,FK1" style="shape=partialRectangle;connectable=0;fillColor=none;top=0;left=0;bottom=0;right=0;fontStyle=1;overflow=hidden;" vertex="1" parent="Jz8gkrG2YhVqBwOY9L8W-290">
          <mxGeometry width="60" height="30" as="geometry" />
        </mxCell>
        <mxCell id="Jz8gkrG2YhVqBwOY9L8W-292" value="Actitivty Id" style="shape=partialRectangle;connectable=0;fillColor=none;top=0;left=0;bottom=0;right=0;align=left;spacingLeft=6;fontStyle=5;overflow=hidden;" vertex="1" parent="Jz8gkrG2YhVqBwOY9L8W-290">
          <mxGeometry x="60" width="120" height="30" as="geometry" />
        </mxCell>
        <mxCell id="Jz8gkrG2YhVqBwOY9L8W-293" value="" style="shape=partialRectangle;collapsible=0;dropTarget=0;pointerEvents=0;fillColor=none;top=0;left=0;bottom=1;right=0;points=[[0,0.5],[1,0.5]];portConstraint=eastwest;" vertex="1" parent="Jz8gkrG2YhVqBwOY9L8W-289">
          <mxGeometry y="60" width="180" height="30" as="geometry" />
        </mxCell>
        <mxCell id="Jz8gkrG2YhVqBwOY9L8W-294" value="PK,FK2" style="shape=partialRectangle;connectable=0;fillColor=none;top=0;left=0;bottom=0;right=0;fontStyle=1;overflow=hidden;" vertex="1" parent="Jz8gkrG2YhVqBwOY9L8W-293">
          <mxGeometry width="60" height="30" as="geometry" />
        </mxCell>
        <mxCell id="Jz8gkrG2YhVqBwOY9L8W-295" value="Row 2" style="shape=partialRectangle;connectable=0;fillColor=none;top=0;left=0;bottom=0;right=0;align=left;spacingLeft=6;fontStyle=5;overflow=hidden;" vertex="1" parent="Jz8gkrG2YhVqBwOY9L8W-293">
          <mxGeometry x="60" width="120" height="30" as="geometry" />
        </mxCell>
        <mxCell id="Jz8gkrG2YhVqBwOY9L8W-296" value="" style="shape=partialRectangle;collapsible=0;dropTarget=0;pointerEvents=0;fillColor=none;top=0;left=0;bottom=0;right=0;points=[[0,0.5],[1,0.5]];portConstraint=eastwest;" vertex="1" parent="Jz8gkrG2YhVqBwOY9L8W-289">
          <mxGeometry y="90" width="180" height="30" as="geometry" />
        </mxCell>
        <mxCell id="Jz8gkrG2YhVqBwOY9L8W-297" value="" style="shape=partialRectangle;connectable=0;fillColor=none;top=0;left=0;bottom=0;right=0;editable=1;overflow=hidden;" vertex="1" parent="Jz8gkrG2YhVqBwOY9L8W-296">
          <mxGeometry width="60" height="30" as="geometry" />
        </mxCell>
        <mxCell id="Jz8gkrG2YhVqBwOY9L8W-298" value="Row 3" style="shape=partialRectangle;connectable=0;fillColor=none;top=0;left=0;bottom=0;right=0;align=left;spacingLeft=6;overflow=hidden;" vertex="1" parent="Jz8gkrG2YhVqBwOY9L8W-296">
          <mxGeometry x="60" width="120" height="30" as="geometry" />
        </mxCell>
        <mxCell id="Jz8gkrG2YhVqBwOY9L8W-299" value="" style="shape=partialRectangle;collapsible=0;dropTarget=0;pointerEvents=0;fillColor=none;top=0;left=0;bottom=0;right=0;points=[[0,0.5],[1,0.5]];portConstraint=eastwest;" vertex="1" parent="Jz8gkrG2YhVqBwOY9L8W-289">
          <mxGeometry y="120" width="180" height="30" as="geometry" />
        </mxCell>
        <mxCell id="Jz8gkrG2YhVqBwOY9L8W-300" value="" style="shape=partialRectangle;connectable=0;fillColor=none;top=0;left=0;bottom=0;right=0;editable=1;overflow=hidden;" vertex="1" parent="Jz8gkrG2YhVqBwOY9L8W-299">
          <mxGeometry width="60" height="30" as="geometry" />
        </mxCell>
        <mxCell id="Jz8gkrG2YhVqBwOY9L8W-301" value="Row 4" style="shape=partialRectangle;connectable=0;fillColor=none;top=0;left=0;bottom=0;right=0;align=left;spacingLeft=6;overflow=hidden;" vertex="1" parent="Jz8gkrG2YhVqBwOY9L8W-299">
          <mxGeometry x="60" width="120" height="30" as="geometry" />
        </mxCell>
        <mxCell id="Jz8gkrG2YhVqBwOY9L8W-302" value="Lead Sources" style="shape=table;startSize=30;container=1;collapsible=1;childLayout=tableLayout;fixedRows=1;rowLines=0;fontStyle=1;align=center;resizeLast=1;" vertex="1" parent="1">
          <mxGeometry x="1090" y="760" width="180" height="160" as="geometry" />
        </mxCell>
        <mxCell id="Jz8gkrG2YhVqBwOY9L8W-303" value="" style="shape=partialRectangle;collapsible=0;dropTarget=0;pointerEvents=0;fillColor=none;top=0;left=0;bottom=0;right=0;points=[[0,0.5],[1,0.5]];portConstraint=eastwest;" vertex="1" parent="Jz8gkrG2YhVqBwOY9L8W-302">
          <mxGeometry y="30" width="180" height="30" as="geometry" />
        </mxCell>
        <mxCell id="Jz8gkrG2YhVqBwOY9L8W-304" value="PK,FK1" style="shape=partialRectangle;connectable=0;fillColor=none;top=0;left=0;bottom=0;right=0;fontStyle=1;overflow=hidden;" vertex="1" parent="Jz8gkrG2YhVqBwOY9L8W-303">
          <mxGeometry width="60" height="30" as="geometry" />
        </mxCell>
        <mxCell id="Jz8gkrG2YhVqBwOY9L8W-305" value="Row 1" style="shape=partialRectangle;connectable=0;fillColor=none;top=0;left=0;bottom=0;right=0;align=left;spacingLeft=6;fontStyle=5;overflow=hidden;" vertex="1" parent="Jz8gkrG2YhVqBwOY9L8W-303">
          <mxGeometry x="60" width="120" height="30" as="geometry" />
        </mxCell>
        <mxCell id="Jz8gkrG2YhVqBwOY9L8W-306" value="" style="shape=partialRectangle;collapsible=0;dropTarget=0;pointerEvents=0;fillColor=none;top=0;left=0;bottom=1;right=0;points=[[0,0.5],[1,0.5]];portConstraint=eastwest;" vertex="1" parent="Jz8gkrG2YhVqBwOY9L8W-302">
          <mxGeometry y="60" width="180" height="30" as="geometry" />
        </mxCell>
        <mxCell id="Jz8gkrG2YhVqBwOY9L8W-307" value="PK,FK2" style="shape=partialRectangle;connectable=0;fillColor=none;top=0;left=0;bottom=0;right=0;fontStyle=1;overflow=hidden;" vertex="1" parent="Jz8gkrG2YhVqBwOY9L8W-306">
          <mxGeometry width="60" height="30" as="geometry" />
        </mxCell>
        <mxCell id="Jz8gkrG2YhVqBwOY9L8W-308" value="Row 2" style="shape=partialRectangle;connectable=0;fillColor=none;top=0;left=0;bottom=0;right=0;align=left;spacingLeft=6;fontStyle=5;overflow=hidden;" vertex="1" parent="Jz8gkrG2YhVqBwOY9L8W-306">
          <mxGeometry x="60" width="120" height="30" as="geometry" />
        </mxCell>
        <mxCell id="Jz8gkrG2YhVqBwOY9L8W-309" value="" style="shape=partialRectangle;collapsible=0;dropTarget=0;pointerEvents=0;fillColor=none;top=0;left=0;bottom=0;right=0;points=[[0,0.5],[1,0.5]];portConstraint=eastwest;" vertex="1" parent="Jz8gkrG2YhVqBwOY9L8W-302">
          <mxGeometry y="90" width="180" height="30" as="geometry" />
        </mxCell>
        <mxCell id="Jz8gkrG2YhVqBwOY9L8W-310" value="" style="shape=partialRectangle;connectable=0;fillColor=none;top=0;left=0;bottom=0;right=0;editable=1;overflow=hidden;" vertex="1" parent="Jz8gkrG2YhVqBwOY9L8W-309">
          <mxGeometry width="60" height="30" as="geometry" />
        </mxCell>
        <mxCell id="Jz8gkrG2YhVqBwOY9L8W-311" value="Row 3" style="shape=partialRectangle;connectable=0;fillColor=none;top=0;left=0;bottom=0;right=0;align=left;spacingLeft=6;overflow=hidden;" vertex="1" parent="Jz8gkrG2YhVqBwOY9L8W-309">
          <mxGeometry x="60" width="120" height="30" as="geometry" />
        </mxCell>
        <mxCell id="Jz8gkrG2YhVqBwOY9L8W-312" value="" style="shape=partialRectangle;collapsible=0;dropTarget=0;pointerEvents=0;fillColor=none;top=0;left=0;bottom=0;right=0;points=[[0,0.5],[1,0.5]];portConstraint=eastwest;" vertex="1" parent="Jz8gkrG2YhVqBwOY9L8W-302">
          <mxGeometry y="120" width="180" height="30" as="geometry" />
        </mxCell>
        <mxCell id="Jz8gkrG2YhVqBwOY9L8W-313" value="" style="shape=partialRectangle;connectable=0;fillColor=none;top=0;left=0;bottom=0;right=0;editable=1;overflow=hidden;" vertex="1" parent="Jz8gkrG2YhVqBwOY9L8W-312">
          <mxGeometry width="60" height="30" as="geometry" />
        </mxCell>
        <mxCell id="Jz8gkrG2YhVqBwOY9L8W-314" value="Row 4" style="shape=partialRectangle;connectable=0;fillColor=none;top=0;left=0;bottom=0;right=0;align=left;spacingLeft=6;overflow=hidden;" vertex="1" parent="Jz8gkrG2YhVqBwOY9L8W-312">
          <mxGeometry x="60" width="120" height="30" as="geometry" />
        </mxCell>
        <mxCell id="Jz8gkrG2YhVqBwOY9L8W-315" value="CRM Types" style="shape=table;startSize=30;container=1;collapsible=1;childLayout=tableLayout;fixedRows=1;rowLines=0;fontStyle=1;align=center;resizeLast=1;" vertex="1" parent="1">
          <mxGeometry x="1090" y="950" width="180" height="160" as="geometry" />
        </mxCell>
        <mxCell id="Jz8gkrG2YhVqBwOY9L8W-316" value="" style="shape=partialRectangle;collapsible=0;dropTarget=0;pointerEvents=0;fillColor=none;top=0;left=0;bottom=0;right=0;points=[[0,0.5],[1,0.5]];portConstraint=eastwest;" vertex="1" parent="Jz8gkrG2YhVqBwOY9L8W-315">
          <mxGeometry y="30" width="180" height="30" as="geometry" />
        </mxCell>
        <mxCell id="Jz8gkrG2YhVqBwOY9L8W-317" value="PK,FK1" style="shape=partialRectangle;connectable=0;fillColor=none;top=0;left=0;bottom=0;right=0;fontStyle=1;overflow=hidden;" vertex="1" parent="Jz8gkrG2YhVqBwOY9L8W-316">
          <mxGeometry width="60" height="30" as="geometry" />
        </mxCell>
        <mxCell id="Jz8gkrG2YhVqBwOY9L8W-318" value="Row 1" style="shape=partialRectangle;connectable=0;fillColor=none;top=0;left=0;bottom=0;right=0;align=left;spacingLeft=6;fontStyle=5;overflow=hidden;" vertex="1" parent="Jz8gkrG2YhVqBwOY9L8W-316">
          <mxGeometry x="60" width="120" height="30" as="geometry" />
        </mxCell>
        <mxCell id="Jz8gkrG2YhVqBwOY9L8W-319" value="" style="shape=partialRectangle;collapsible=0;dropTarget=0;pointerEvents=0;fillColor=none;top=0;left=0;bottom=1;right=0;points=[[0,0.5],[1,0.5]];portConstraint=eastwest;" vertex="1" parent="Jz8gkrG2YhVqBwOY9L8W-315">
          <mxGeometry y="60" width="180" height="30" as="geometry" />
        </mxCell>
        <mxCell id="Jz8gkrG2YhVqBwOY9L8W-320" value="PK,FK2" style="shape=partialRectangle;connectable=0;fillColor=none;top=0;left=0;bottom=0;right=0;fontStyle=1;overflow=hidden;" vertex="1" parent="Jz8gkrG2YhVqBwOY9L8W-319">
          <mxGeometry width="60" height="30" as="geometry" />
        </mxCell>
        <mxCell id="Jz8gkrG2YhVqBwOY9L8W-321" value="Row 2" style="shape=partialRectangle;connectable=0;fillColor=none;top=0;left=0;bottom=0;right=0;align=left;spacingLeft=6;fontStyle=5;overflow=hidden;" vertex="1" parent="Jz8gkrG2YhVqBwOY9L8W-319">
          <mxGeometry x="60" width="120" height="30" as="geometry" />
        </mxCell>
        <mxCell id="Jz8gkrG2YhVqBwOY9L8W-322" value="" style="shape=partialRectangle;collapsible=0;dropTarget=0;pointerEvents=0;fillColor=none;top=0;left=0;bottom=0;right=0;points=[[0,0.5],[1,0.5]];portConstraint=eastwest;" vertex="1" parent="Jz8gkrG2YhVqBwOY9L8W-315">
          <mxGeometry y="90" width="180" height="30" as="geometry" />
        </mxCell>
        <mxCell id="Jz8gkrG2YhVqBwOY9L8W-323" value="" style="shape=partialRectangle;connectable=0;fillColor=none;top=0;left=0;bottom=0;right=0;editable=1;overflow=hidden;" vertex="1" parent="Jz8gkrG2YhVqBwOY9L8W-322">
          <mxGeometry width="60" height="30" as="geometry" />
        </mxCell>
        <mxCell id="Jz8gkrG2YhVqBwOY9L8W-324" value="Row 3" style="shape=partialRectangle;connectable=0;fillColor=none;top=0;left=0;bottom=0;right=0;align=left;spacingLeft=6;overflow=hidden;" vertex="1" parent="Jz8gkrG2YhVqBwOY9L8W-322">
          <mxGeometry x="60" width="120" height="30" as="geometry" />
        </mxCell>
        <mxCell id="Jz8gkrG2YhVqBwOY9L8W-325" value="" style="shape=partialRectangle;collapsible=0;dropTarget=0;pointerEvents=0;fillColor=none;top=0;left=0;bottom=0;right=0;points=[[0,0.5],[1,0.5]];portConstraint=eastwest;" vertex="1" parent="Jz8gkrG2YhVqBwOY9L8W-315">
          <mxGeometry y="120" width="180" height="30" as="geometry" />
        </mxCell>
        <mxCell id="Jz8gkrG2YhVqBwOY9L8W-326" value="" style="shape=partialRectangle;connectable=0;fillColor=none;top=0;left=0;bottom=0;right=0;editable=1;overflow=hidden;" vertex="1" parent="Jz8gkrG2YhVqBwOY9L8W-325">
          <mxGeometry width="60" height="30" as="geometry" />
        </mxCell>
        <mxCell id="Jz8gkrG2YhVqBwOY9L8W-327" value="Row 4" style="shape=partialRectangle;connectable=0;fillColor=none;top=0;left=0;bottom=0;right=0;align=left;spacingLeft=6;overflow=hidden;" vertex="1" parent="Jz8gkrG2YhVqBwOY9L8W-325">
          <mxGeometry x="60" width="120" height="30" as="geometry" />
        </mxCell>
        <mxCell id="Jz8gkrG2YhVqBwOY9L8W-328" value="Team Members" style="shape=table;startSize=30;container=1;collapsible=1;childLayout=tableLayout;fixedRows=1;rowLines=0;fontStyle=1;align=center;resizeLast=1;" vertex="1" parent="1">
          <mxGeometry x="560" y="1160" width="180" height="160" as="geometry" />
        </mxCell>
        <mxCell id="Jz8gkrG2YhVqBwOY9L8W-329" value="" style="shape=partialRectangle;collapsible=0;dropTarget=0;pointerEvents=0;fillColor=none;top=0;left=0;bottom=0;right=0;points=[[0,0.5],[1,0.5]];portConstraint=eastwest;" vertex="1" parent="Jz8gkrG2YhVqBwOY9L8W-328">
          <mxGeometry y="30" width="180" height="30" as="geometry" />
        </mxCell>
        <mxCell id="Jz8gkrG2YhVqBwOY9L8W-330" value="PK,FK1" style="shape=partialRectangle;connectable=0;fillColor=none;top=0;left=0;bottom=0;right=0;fontStyle=1;overflow=hidden;" vertex="1" parent="Jz8gkrG2YhVqBwOY9L8W-329">
          <mxGeometry width="60" height="30" as="geometry" />
        </mxCell>
        <mxCell id="Jz8gkrG2YhVqBwOY9L8W-331" value="Row 1" style="shape=partialRectangle;connectable=0;fillColor=none;top=0;left=0;bottom=0;right=0;align=left;spacingLeft=6;fontStyle=5;overflow=hidden;" vertex="1" parent="Jz8gkrG2YhVqBwOY9L8W-329">
          <mxGeometry x="60" width="120" height="30" as="geometry" />
        </mxCell>
        <mxCell id="Jz8gkrG2YhVqBwOY9L8W-332" value="" style="shape=partialRectangle;collapsible=0;dropTarget=0;pointerEvents=0;fillColor=none;top=0;left=0;bottom=1;right=0;points=[[0,0.5],[1,0.5]];portConstraint=eastwest;" vertex="1" parent="Jz8gkrG2YhVqBwOY9L8W-328">
          <mxGeometry y="60" width="180" height="30" as="geometry" />
        </mxCell>
        <mxCell id="Jz8gkrG2YhVqBwOY9L8W-333" value="PK,FK2" style="shape=partialRectangle;connectable=0;fillColor=none;top=0;left=0;bottom=0;right=0;fontStyle=1;overflow=hidden;" vertex="1" parent="Jz8gkrG2YhVqBwOY9L8W-332">
          <mxGeometry width="60" height="30" as="geometry" />
        </mxCell>
        <mxCell id="Jz8gkrG2YhVqBwOY9L8W-334" value="Row 2" style="shape=partialRectangle;connectable=0;fillColor=none;top=0;left=0;bottom=0;right=0;align=left;spacingLeft=6;fontStyle=5;overflow=hidden;" vertex="1" parent="Jz8gkrG2YhVqBwOY9L8W-332">
          <mxGeometry x="60" width="120" height="30" as="geometry" />
        </mxCell>
        <mxCell id="Jz8gkrG2YhVqBwOY9L8W-335" value="" style="shape=partialRectangle;collapsible=0;dropTarget=0;pointerEvents=0;fillColor=none;top=0;left=0;bottom=0;right=0;points=[[0,0.5],[1,0.5]];portConstraint=eastwest;" vertex="1" parent="Jz8gkrG2YhVqBwOY9L8W-328">
          <mxGeometry y="90" width="180" height="30" as="geometry" />
        </mxCell>
        <mxCell id="Jz8gkrG2YhVqBwOY9L8W-336" value="" style="shape=partialRectangle;connectable=0;fillColor=none;top=0;left=0;bottom=0;right=0;editable=1;overflow=hidden;" vertex="1" parent="Jz8gkrG2YhVqBwOY9L8W-335">
          <mxGeometry width="60" height="30" as="geometry" />
        </mxCell>
        <mxCell id="Jz8gkrG2YhVqBwOY9L8W-337" value="Row 3" style="shape=partialRectangle;connectable=0;fillColor=none;top=0;left=0;bottom=0;right=0;align=left;spacingLeft=6;overflow=hidden;" vertex="1" parent="Jz8gkrG2YhVqBwOY9L8W-335">
          <mxGeometry x="60" width="120" height="30" as="geometry" />
        </mxCell>
        <mxCell id="Jz8gkrG2YhVqBwOY9L8W-338" value="" style="shape=partialRectangle;collapsible=0;dropTarget=0;pointerEvents=0;fillColor=none;top=0;left=0;bottom=0;right=0;points=[[0,0.5],[1,0.5]];portConstraint=eastwest;" vertex="1" parent="Jz8gkrG2YhVqBwOY9L8W-328">
          <mxGeometry y="120" width="180" height="30" as="geometry" />
        </mxCell>
        <mxCell id="Jz8gkrG2YhVqBwOY9L8W-339" value="" style="shape=partialRectangle;connectable=0;fillColor=none;top=0;left=0;bottom=0;right=0;editable=1;overflow=hidden;" vertex="1" parent="Jz8gkrG2YhVqBwOY9L8W-338">
          <mxGeometry width="60" height="30" as="geometry" />
        </mxCell>
        <mxCell id="Jz8gkrG2YhVqBwOY9L8W-340" value="Row 4" style="shape=partialRectangle;connectable=0;fillColor=none;top=0;left=0;bottom=0;right=0;align=left;spacingLeft=6;overflow=hidden;" vertex="1" parent="Jz8gkrG2YhVqBwOY9L8W-338">
          <mxGeometry x="60" width="120" height="30" as="geometry" />
        </mxCell>
        <mxCell id="Jz8gkrG2YhVqBwOY9L8W-341" value="Member Roles" style="shape=table;startSize=30;container=1;collapsible=1;childLayout=tableLayout;fixedRows=1;rowLines=0;fontStyle=1;align=center;resizeLast=1;" vertex="1" parent="1">
          <mxGeometry x="810" y="1160" width="180" height="160" as="geometry" />
        </mxCell>
        <mxCell id="Jz8gkrG2YhVqBwOY9L8W-342" value="" style="shape=partialRectangle;collapsible=0;dropTarget=0;pointerEvents=0;fillColor=none;top=0;left=0;bottom=0;right=0;points=[[0,0.5],[1,0.5]];portConstraint=eastwest;" vertex="1" parent="Jz8gkrG2YhVqBwOY9L8W-341">
          <mxGeometry y="30" width="180" height="30" as="geometry" />
        </mxCell>
        <mxCell id="Jz8gkrG2YhVqBwOY9L8W-343" value="PK,FK1" style="shape=partialRectangle;connectable=0;fillColor=none;top=0;left=0;bottom=0;right=0;fontStyle=1;overflow=hidden;" vertex="1" parent="Jz8gkrG2YhVqBwOY9L8W-342">
          <mxGeometry width="60" height="30" as="geometry" />
        </mxCell>
        <mxCell id="Jz8gkrG2YhVqBwOY9L8W-344" value="Row 1" style="shape=partialRectangle;connectable=0;fillColor=none;top=0;left=0;bottom=0;right=0;align=left;spacingLeft=6;fontStyle=5;overflow=hidden;" vertex="1" parent="Jz8gkrG2YhVqBwOY9L8W-342">
          <mxGeometry x="60" width="120" height="30" as="geometry" />
        </mxCell>
        <mxCell id="Jz8gkrG2YhVqBwOY9L8W-345" value="" style="shape=partialRectangle;collapsible=0;dropTarget=0;pointerEvents=0;fillColor=none;top=0;left=0;bottom=1;right=0;points=[[0,0.5],[1,0.5]];portConstraint=eastwest;" vertex="1" parent="Jz8gkrG2YhVqBwOY9L8W-341">
          <mxGeometry y="60" width="180" height="30" as="geometry" />
        </mxCell>
        <mxCell id="Jz8gkrG2YhVqBwOY9L8W-346" value="PK,FK2" style="shape=partialRectangle;connectable=0;fillColor=none;top=0;left=0;bottom=0;right=0;fontStyle=1;overflow=hidden;" vertex="1" parent="Jz8gkrG2YhVqBwOY9L8W-345">
          <mxGeometry width="60" height="30" as="geometry" />
        </mxCell>
        <mxCell id="Jz8gkrG2YhVqBwOY9L8W-347" value="Row 2" style="shape=partialRectangle;connectable=0;fillColor=none;top=0;left=0;bottom=0;right=0;align=left;spacingLeft=6;fontStyle=5;overflow=hidden;" vertex="1" parent="Jz8gkrG2YhVqBwOY9L8W-345">
          <mxGeometry x="60" width="120" height="30" as="geometry" />
        </mxCell>
        <mxCell id="Jz8gkrG2YhVqBwOY9L8W-348" value="" style="shape=partialRectangle;collapsible=0;dropTarget=0;pointerEvents=0;fillColor=none;top=0;left=0;bottom=0;right=0;points=[[0,0.5],[1,0.5]];portConstraint=eastwest;" vertex="1" parent="Jz8gkrG2YhVqBwOY9L8W-341">
          <mxGeometry y="90" width="180" height="30" as="geometry" />
        </mxCell>
        <mxCell id="Jz8gkrG2YhVqBwOY9L8W-349" value="" style="shape=partialRectangle;connectable=0;fillColor=none;top=0;left=0;bottom=0;right=0;editable=1;overflow=hidden;" vertex="1" parent="Jz8gkrG2YhVqBwOY9L8W-348">
          <mxGeometry width="60" height="30" as="geometry" />
        </mxCell>
        <mxCell id="Jz8gkrG2YhVqBwOY9L8W-350" value="Row 3" style="shape=partialRectangle;connectable=0;fillColor=none;top=0;left=0;bottom=0;right=0;align=left;spacingLeft=6;overflow=hidden;" vertex="1" parent="Jz8gkrG2YhVqBwOY9L8W-348">
          <mxGeometry x="60" width="120" height="30" as="geometry" />
        </mxCell>
        <mxCell id="Jz8gkrG2YhVqBwOY9L8W-351" value="" style="shape=partialRectangle;collapsible=0;dropTarget=0;pointerEvents=0;fillColor=none;top=0;left=0;bottom=0;right=0;points=[[0,0.5],[1,0.5]];portConstraint=eastwest;" vertex="1" parent="Jz8gkrG2YhVqBwOY9L8W-341">
          <mxGeometry y="120" width="180" height="30" as="geometry" />
        </mxCell>
        <mxCell id="Jz8gkrG2YhVqBwOY9L8W-352" value="" style="shape=partialRectangle;connectable=0;fillColor=none;top=0;left=0;bottom=0;right=0;editable=1;overflow=hidden;" vertex="1" parent="Jz8gkrG2YhVqBwOY9L8W-351">
          <mxGeometry width="60" height="30" as="geometry" />
        </mxCell>
        <mxCell id="Jz8gkrG2YhVqBwOY9L8W-353" value="Row 4" style="shape=partialRectangle;connectable=0;fillColor=none;top=0;left=0;bottom=0;right=0;align=left;spacingLeft=6;overflow=hidden;" vertex="1" parent="Jz8gkrG2YhVqBwOY9L8W-351">
          <mxGeometry x="60" width="120" height="30" as="geometry" />
        </mxCell>
        <mxCell id="Jz8gkrG2YhVqBwOY9L8W-354" value="Appointments" style="shape=table;startSize=30;container=1;collapsible=1;childLayout=tableLayout;fixedRows=1;rowLines=0;fontStyle=1;align=center;resizeLast=1;" vertex="1" parent="1">
          <mxGeometry x="1040" y="1160" width="180" height="160" as="geometry" />
        </mxCell>
        <mxCell id="Jz8gkrG2YhVqBwOY9L8W-355" value="" style="shape=partialRectangle;collapsible=0;dropTarget=0;pointerEvents=0;fillColor=none;top=0;left=0;bottom=0;right=0;points=[[0,0.5],[1,0.5]];portConstraint=eastwest;" vertex="1" parent="Jz8gkrG2YhVqBwOY9L8W-354">
          <mxGeometry y="30" width="180" height="30" as="geometry" />
        </mxCell>
        <mxCell id="Jz8gkrG2YhVqBwOY9L8W-356" value="PK,FK1" style="shape=partialRectangle;connectable=0;fillColor=none;top=0;left=0;bottom=0;right=0;fontStyle=1;overflow=hidden;" vertex="1" parent="Jz8gkrG2YhVqBwOY9L8W-355">
          <mxGeometry width="60" height="30" as="geometry" />
        </mxCell>
        <mxCell id="Jz8gkrG2YhVqBwOY9L8W-357" value="Row 1" style="shape=partialRectangle;connectable=0;fillColor=none;top=0;left=0;bottom=0;right=0;align=left;spacingLeft=6;fontStyle=5;overflow=hidden;" vertex="1" parent="Jz8gkrG2YhVqBwOY9L8W-355">
          <mxGeometry x="60" width="120" height="30" as="geometry" />
        </mxCell>
        <mxCell id="Jz8gkrG2YhVqBwOY9L8W-358" value="" style="shape=partialRectangle;collapsible=0;dropTarget=0;pointerEvents=0;fillColor=none;top=0;left=0;bottom=1;right=0;points=[[0,0.5],[1,0.5]];portConstraint=eastwest;" vertex="1" parent="Jz8gkrG2YhVqBwOY9L8W-354">
          <mxGeometry y="60" width="180" height="30" as="geometry" />
        </mxCell>
        <mxCell id="Jz8gkrG2YhVqBwOY9L8W-359" value="PK,FK2" style="shape=partialRectangle;connectable=0;fillColor=none;top=0;left=0;bottom=0;right=0;fontStyle=1;overflow=hidden;" vertex="1" parent="Jz8gkrG2YhVqBwOY9L8W-358">
          <mxGeometry width="60" height="30" as="geometry" />
        </mxCell>
        <mxCell id="Jz8gkrG2YhVqBwOY9L8W-360" value="Row 2" style="shape=partialRectangle;connectable=0;fillColor=none;top=0;left=0;bottom=0;right=0;align=left;spacingLeft=6;fontStyle=5;overflow=hidden;" vertex="1" parent="Jz8gkrG2YhVqBwOY9L8W-358">
          <mxGeometry x="60" width="120" height="30" as="geometry" />
        </mxCell>
        <mxCell id="Jz8gkrG2YhVqBwOY9L8W-361" value="" style="shape=partialRectangle;collapsible=0;dropTarget=0;pointerEvents=0;fillColor=none;top=0;left=0;bottom=0;right=0;points=[[0,0.5],[1,0.5]];portConstraint=eastwest;" vertex="1" parent="Jz8gkrG2YhVqBwOY9L8W-354">
          <mxGeometry y="90" width="180" height="30" as="geometry" />
        </mxCell>
        <mxCell id="Jz8gkrG2YhVqBwOY9L8W-362" value="" style="shape=partialRectangle;connectable=0;fillColor=none;top=0;left=0;bottom=0;right=0;editable=1;overflow=hidden;" vertex="1" parent="Jz8gkrG2YhVqBwOY9L8W-361">
          <mxGeometry width="60" height="30" as="geometry" />
        </mxCell>
        <mxCell id="Jz8gkrG2YhVqBwOY9L8W-363" value="Row 3" style="shape=partialRectangle;connectable=0;fillColor=none;top=0;left=0;bottom=0;right=0;align=left;spacingLeft=6;overflow=hidden;" vertex="1" parent="Jz8gkrG2YhVqBwOY9L8W-361">
          <mxGeometry x="60" width="120" height="30" as="geometry" />
        </mxCell>
        <mxCell id="Jz8gkrG2YhVqBwOY9L8W-364" value="" style="shape=partialRectangle;collapsible=0;dropTarget=0;pointerEvents=0;fillColor=none;top=0;left=0;bottom=0;right=0;points=[[0,0.5],[1,0.5]];portConstraint=eastwest;" vertex="1" parent="Jz8gkrG2YhVqBwOY9L8W-354">
          <mxGeometry y="120" width="180" height="30" as="geometry" />
        </mxCell>
        <mxCell id="Jz8gkrG2YhVqBwOY9L8W-365" value="" style="shape=partialRectangle;connectable=0;fillColor=none;top=0;left=0;bottom=0;right=0;editable=1;overflow=hidden;" vertex="1" parent="Jz8gkrG2YhVqBwOY9L8W-364">
          <mxGeometry width="60" height="30" as="geometry" />
        </mxCell>
        <mxCell id="Jz8gkrG2YhVqBwOY9L8W-366" value="Row 4" style="shape=partialRectangle;connectable=0;fillColor=none;top=0;left=0;bottom=0;right=0;align=left;spacingLeft=6;overflow=hidden;" vertex="1" parent="Jz8gkrG2YhVqBwOY9L8W-364">
          <mxGeometry x="60" width="120" height="30" as="geometry" />
        </mxCell>
        <mxCell id="Jz8gkrG2YhVqBwOY9L8W-367" value="Campaigns" style="shape=table;startSize=30;container=1;collapsible=1;childLayout=tableLayout;fixedRows=1;rowLines=0;fontStyle=1;align=center;resizeLast=1;" vertex="1" parent="1">
          <mxGeometry x="560" y="1350" width="180" height="160" as="geometry" />
        </mxCell>
        <mxCell id="Jz8gkrG2YhVqBwOY9L8W-368" value="" style="shape=partialRectangle;collapsible=0;dropTarget=0;pointerEvents=0;fillColor=none;top=0;left=0;bottom=0;right=0;points=[[0,0.5],[1,0.5]];portConstraint=eastwest;" vertex="1" parent="Jz8gkrG2YhVqBwOY9L8W-367">
          <mxGeometry y="30" width="180" height="30" as="geometry" />
        </mxCell>
        <mxCell id="Jz8gkrG2YhVqBwOY9L8W-369" value="PK,FK1" style="shape=partialRectangle;connectable=0;fillColor=none;top=0;left=0;bottom=0;right=0;fontStyle=1;overflow=hidden;" vertex="1" parent="Jz8gkrG2YhVqBwOY9L8W-368">
          <mxGeometry width="60" height="30" as="geometry" />
        </mxCell>
        <mxCell id="Jz8gkrG2YhVqBwOY9L8W-370" value="Row 1" style="shape=partialRectangle;connectable=0;fillColor=none;top=0;left=0;bottom=0;right=0;align=left;spacingLeft=6;fontStyle=5;overflow=hidden;" vertex="1" parent="Jz8gkrG2YhVqBwOY9L8W-368">
          <mxGeometry x="60" width="120" height="30" as="geometry" />
        </mxCell>
        <mxCell id="Jz8gkrG2YhVqBwOY9L8W-371" value="" style="shape=partialRectangle;collapsible=0;dropTarget=0;pointerEvents=0;fillColor=none;top=0;left=0;bottom=1;right=0;points=[[0,0.5],[1,0.5]];portConstraint=eastwest;" vertex="1" parent="Jz8gkrG2YhVqBwOY9L8W-367">
          <mxGeometry y="60" width="180" height="30" as="geometry" />
        </mxCell>
        <mxCell id="Jz8gkrG2YhVqBwOY9L8W-372" value="PK,FK2" style="shape=partialRectangle;connectable=0;fillColor=none;top=0;left=0;bottom=0;right=0;fontStyle=1;overflow=hidden;" vertex="1" parent="Jz8gkrG2YhVqBwOY9L8W-371">
          <mxGeometry width="60" height="30" as="geometry" />
        </mxCell>
        <mxCell id="Jz8gkrG2YhVqBwOY9L8W-373" value="Row 2" style="shape=partialRectangle;connectable=0;fillColor=none;top=0;left=0;bottom=0;right=0;align=left;spacingLeft=6;fontStyle=5;overflow=hidden;" vertex="1" parent="Jz8gkrG2YhVqBwOY9L8W-371">
          <mxGeometry x="60" width="120" height="30" as="geometry" />
        </mxCell>
        <mxCell id="Jz8gkrG2YhVqBwOY9L8W-374" value="" style="shape=partialRectangle;collapsible=0;dropTarget=0;pointerEvents=0;fillColor=none;top=0;left=0;bottom=0;right=0;points=[[0,0.5],[1,0.5]];portConstraint=eastwest;" vertex="1" parent="Jz8gkrG2YhVqBwOY9L8W-367">
          <mxGeometry y="90" width="180" height="30" as="geometry" />
        </mxCell>
        <mxCell id="Jz8gkrG2YhVqBwOY9L8W-375" value="" style="shape=partialRectangle;connectable=0;fillColor=none;top=0;left=0;bottom=0;right=0;editable=1;overflow=hidden;" vertex="1" parent="Jz8gkrG2YhVqBwOY9L8W-374">
          <mxGeometry width="60" height="30" as="geometry" />
        </mxCell>
        <mxCell id="Jz8gkrG2YhVqBwOY9L8W-376" value="Row 3" style="shape=partialRectangle;connectable=0;fillColor=none;top=0;left=0;bottom=0;right=0;align=left;spacingLeft=6;overflow=hidden;" vertex="1" parent="Jz8gkrG2YhVqBwOY9L8W-374">
          <mxGeometry x="60" width="120" height="30" as="geometry" />
        </mxCell>
        <mxCell id="Jz8gkrG2YhVqBwOY9L8W-377" value="" style="shape=partialRectangle;collapsible=0;dropTarget=0;pointerEvents=0;fillColor=none;top=0;left=0;bottom=0;right=0;points=[[0,0.5],[1,0.5]];portConstraint=eastwest;" vertex="1" parent="Jz8gkrG2YhVqBwOY9L8W-367">
          <mxGeometry y="120" width="180" height="30" as="geometry" />
        </mxCell>
        <mxCell id="Jz8gkrG2YhVqBwOY9L8W-378" value="" style="shape=partialRectangle;connectable=0;fillColor=none;top=0;left=0;bottom=0;right=0;editable=1;overflow=hidden;" vertex="1" parent="Jz8gkrG2YhVqBwOY9L8W-377">
          <mxGeometry width="60" height="30" as="geometry" />
        </mxCell>
        <mxCell id="Jz8gkrG2YhVqBwOY9L8W-379" value="Row 4" style="shape=partialRectangle;connectable=0;fillColor=none;top=0;left=0;bottom=0;right=0;align=left;spacingLeft=6;overflow=hidden;" vertex="1" parent="Jz8gkrG2YhVqBwOY9L8W-377">
          <mxGeometry x="60" width="120" height="30" as="geometry" />
        </mxCell>
        <mxCell id="Jz8gkrG2YhVqBwOY9L8W-393" value="Notifications" style="shape=table;startSize=30;container=1;collapsible=1;childLayout=tableLayout;fixedRows=1;rowLines=0;fontStyle=1;align=center;resizeLast=1;" vertex="1" parent="1">
          <mxGeometry x="1010" y="1350" width="180" height="160" as="geometry" />
        </mxCell>
        <mxCell id="Jz8gkrG2YhVqBwOY9L8W-394" value="" style="shape=partialRectangle;collapsible=0;dropTarget=0;pointerEvents=0;fillColor=none;top=0;left=0;bottom=0;right=0;points=[[0,0.5],[1,0.5]];portConstraint=eastwest;" vertex="1" parent="Jz8gkrG2YhVqBwOY9L8W-393">
          <mxGeometry y="30" width="180" height="30" as="geometry" />
        </mxCell>
        <mxCell id="Jz8gkrG2YhVqBwOY9L8W-395" value="PK,FK1" style="shape=partialRectangle;connectable=0;fillColor=none;top=0;left=0;bottom=0;right=0;fontStyle=1;overflow=hidden;" vertex="1" parent="Jz8gkrG2YhVqBwOY9L8W-394">
          <mxGeometry width="60" height="30" as="geometry" />
        </mxCell>
        <mxCell id="Jz8gkrG2YhVqBwOY9L8W-396" value="Row 1" style="shape=partialRectangle;connectable=0;fillColor=none;top=0;left=0;bottom=0;right=0;align=left;spacingLeft=6;fontStyle=5;overflow=hidden;" vertex="1" parent="Jz8gkrG2YhVqBwOY9L8W-394">
          <mxGeometry x="60" width="120" height="30" as="geometry" />
        </mxCell>
        <mxCell id="Jz8gkrG2YhVqBwOY9L8W-397" value="" style="shape=partialRectangle;collapsible=0;dropTarget=0;pointerEvents=0;fillColor=none;top=0;left=0;bottom=1;right=0;points=[[0,0.5],[1,0.5]];portConstraint=eastwest;" vertex="1" parent="Jz8gkrG2YhVqBwOY9L8W-393">
          <mxGeometry y="60" width="180" height="30" as="geometry" />
        </mxCell>
        <mxCell id="Jz8gkrG2YhVqBwOY9L8W-398" value="PK,FK2" style="shape=partialRectangle;connectable=0;fillColor=none;top=0;left=0;bottom=0;right=0;fontStyle=1;overflow=hidden;" vertex="1" parent="Jz8gkrG2YhVqBwOY9L8W-397">
          <mxGeometry width="60" height="30" as="geometry" />
        </mxCell>
        <mxCell id="Jz8gkrG2YhVqBwOY9L8W-399" value="Row 2" style="shape=partialRectangle;connectable=0;fillColor=none;top=0;left=0;bottom=0;right=0;align=left;spacingLeft=6;fontStyle=5;overflow=hidden;" vertex="1" parent="Jz8gkrG2YhVqBwOY9L8W-397">
          <mxGeometry x="60" width="120" height="30" as="geometry" />
        </mxCell>
        <mxCell id="Jz8gkrG2YhVqBwOY9L8W-400" value="" style="shape=partialRectangle;collapsible=0;dropTarget=0;pointerEvents=0;fillColor=none;top=0;left=0;bottom=0;right=0;points=[[0,0.5],[1,0.5]];portConstraint=eastwest;" vertex="1" parent="Jz8gkrG2YhVqBwOY9L8W-393">
          <mxGeometry y="90" width="180" height="30" as="geometry" />
        </mxCell>
        <mxCell id="Jz8gkrG2YhVqBwOY9L8W-401" value="" style="shape=partialRectangle;connectable=0;fillColor=none;top=0;left=0;bottom=0;right=0;editable=1;overflow=hidden;" vertex="1" parent="Jz8gkrG2YhVqBwOY9L8W-400">
          <mxGeometry width="60" height="30" as="geometry" />
        </mxCell>
        <mxCell id="Jz8gkrG2YhVqBwOY9L8W-402" value="Row 3" style="shape=partialRectangle;connectable=0;fillColor=none;top=0;left=0;bottom=0;right=0;align=left;spacingLeft=6;overflow=hidden;" vertex="1" parent="Jz8gkrG2YhVqBwOY9L8W-400">
          <mxGeometry x="60" width="120" height="30" as="geometry" />
        </mxCell>
        <mxCell id="Jz8gkrG2YhVqBwOY9L8W-403" value="" style="shape=partialRectangle;collapsible=0;dropTarget=0;pointerEvents=0;fillColor=none;top=0;left=0;bottom=0;right=0;points=[[0,0.5],[1,0.5]];portConstraint=eastwest;" vertex="1" parent="Jz8gkrG2YhVqBwOY9L8W-393">
          <mxGeometry y="120" width="180" height="30" as="geometry" />
        </mxCell>
        <mxCell id="Jz8gkrG2YhVqBwOY9L8W-404" value="" style="shape=partialRectangle;connectable=0;fillColor=none;top=0;left=0;bottom=0;right=0;editable=1;overflow=hidden;" vertex="1" parent="Jz8gkrG2YhVqBwOY9L8W-403">
          <mxGeometry width="60" height="30" as="geometry" />
        </mxCell>
        <mxCell id="Jz8gkrG2YhVqBwOY9L8W-405" value="Row 4" style="shape=partialRectangle;connectable=0;fillColor=none;top=0;left=0;bottom=0;right=0;align=left;spacingLeft=6;overflow=hidden;" vertex="1" parent="Jz8gkrG2YhVqBwOY9L8W-403">
          <mxGeometry x="60" width="120" height="30" as="geometry" />
        </mxCell>
        <mxCell id="Jz8gkrG2YhVqBwOY9L8W-406" value="Activities" style="shape=table;startSize=30;container=1;collapsible=1;childLayout=tableLayout;fixedRows=1;rowLines=0;fontStyle=1;align=center;resizeLast=1;" vertex="1" parent="1">
          <mxGeometry x="560" y="1560" width="180" height="160" as="geometry" />
        </mxCell>
        <mxCell id="Jz8gkrG2YhVqBwOY9L8W-407" value="" style="shape=partialRectangle;collapsible=0;dropTarget=0;pointerEvents=0;fillColor=none;top=0;left=0;bottom=0;right=0;points=[[0,0.5],[1,0.5]];portConstraint=eastwest;" vertex="1" parent="Jz8gkrG2YhVqBwOY9L8W-406">
          <mxGeometry y="30" width="180" height="30" as="geometry" />
        </mxCell>
        <mxCell id="Jz8gkrG2YhVqBwOY9L8W-408" value="PK,FK1" style="shape=partialRectangle;connectable=0;fillColor=none;top=0;left=0;bottom=0;right=0;fontStyle=1;overflow=hidden;" vertex="1" parent="Jz8gkrG2YhVqBwOY9L8W-407">
          <mxGeometry width="60" height="30" as="geometry" />
        </mxCell>
        <mxCell id="Jz8gkrG2YhVqBwOY9L8W-409" value="Row 1" style="shape=partialRectangle;connectable=0;fillColor=none;top=0;left=0;bottom=0;right=0;align=left;spacingLeft=6;fontStyle=5;overflow=hidden;" vertex="1" parent="Jz8gkrG2YhVqBwOY9L8W-407">
          <mxGeometry x="60" width="120" height="30" as="geometry" />
        </mxCell>
        <mxCell id="Jz8gkrG2YhVqBwOY9L8W-410" value="" style="shape=partialRectangle;collapsible=0;dropTarget=0;pointerEvents=0;fillColor=none;top=0;left=0;bottom=1;right=0;points=[[0,0.5],[1,0.5]];portConstraint=eastwest;" vertex="1" parent="Jz8gkrG2YhVqBwOY9L8W-406">
          <mxGeometry y="60" width="180" height="30" as="geometry" />
        </mxCell>
        <mxCell id="Jz8gkrG2YhVqBwOY9L8W-411" value="PK,FK2" style="shape=partialRectangle;connectable=0;fillColor=none;top=0;left=0;bottom=0;right=0;fontStyle=1;overflow=hidden;" vertex="1" parent="Jz8gkrG2YhVqBwOY9L8W-410">
          <mxGeometry width="60" height="30" as="geometry" />
        </mxCell>
        <mxCell id="Jz8gkrG2YhVqBwOY9L8W-412" value="Row 2" style="shape=partialRectangle;connectable=0;fillColor=none;top=0;left=0;bottom=0;right=0;align=left;spacingLeft=6;fontStyle=5;overflow=hidden;" vertex="1" parent="Jz8gkrG2YhVqBwOY9L8W-410">
          <mxGeometry x="60" width="120" height="30" as="geometry" />
        </mxCell>
        <mxCell id="Jz8gkrG2YhVqBwOY9L8W-413" value="" style="shape=partialRectangle;collapsible=0;dropTarget=0;pointerEvents=0;fillColor=none;top=0;left=0;bottom=0;right=0;points=[[0,0.5],[1,0.5]];portConstraint=eastwest;" vertex="1" parent="Jz8gkrG2YhVqBwOY9L8W-406">
          <mxGeometry y="90" width="180" height="30" as="geometry" />
        </mxCell>
        <mxCell id="Jz8gkrG2YhVqBwOY9L8W-414" value="" style="shape=partialRectangle;connectable=0;fillColor=none;top=0;left=0;bottom=0;right=0;editable=1;overflow=hidden;" vertex="1" parent="Jz8gkrG2YhVqBwOY9L8W-413">
          <mxGeometry width="60" height="30" as="geometry" />
        </mxCell>
        <mxCell id="Jz8gkrG2YhVqBwOY9L8W-415" value="Row 3" style="shape=partialRectangle;connectable=0;fillColor=none;top=0;left=0;bottom=0;right=0;align=left;spacingLeft=6;overflow=hidden;" vertex="1" parent="Jz8gkrG2YhVqBwOY9L8W-413">
          <mxGeometry x="60" width="120" height="30" as="geometry" />
        </mxCell>
        <mxCell id="Jz8gkrG2YhVqBwOY9L8W-416" value="" style="shape=partialRectangle;collapsible=0;dropTarget=0;pointerEvents=0;fillColor=none;top=0;left=0;bottom=0;right=0;points=[[0,0.5],[1,0.5]];portConstraint=eastwest;" vertex="1" parent="Jz8gkrG2YhVqBwOY9L8W-406">
          <mxGeometry y="120" width="180" height="30" as="geometry" />
        </mxCell>
        <mxCell id="Jz8gkrG2YhVqBwOY9L8W-417" value="" style="shape=partialRectangle;connectable=0;fillColor=none;top=0;left=0;bottom=0;right=0;editable=1;overflow=hidden;" vertex="1" parent="Jz8gkrG2YhVqBwOY9L8W-416">
          <mxGeometry width="60" height="30" as="geometry" />
        </mxCell>
        <mxCell id="Jz8gkrG2YhVqBwOY9L8W-418" value="Row 4" style="shape=partialRectangle;connectable=0;fillColor=none;top=0;left=0;bottom=0;right=0;align=left;spacingLeft=6;overflow=hidden;" vertex="1" parent="Jz8gkrG2YhVqBwOY9L8W-416">
          <mxGeometry x="60" width="120" height="30" as="geometry" />
        </mxCell>
        <mxCell id="Jz8gkrG2YhVqBwOY9L8W-419" value="Countries" style="shape=table;startSize=30;container=1;collapsible=1;childLayout=tableLayout;fixedRows=1;rowLines=0;fontStyle=1;align=center;resizeLast=1;" vertex="1" parent="1">
          <mxGeometry x="830" y="1560" width="180" height="160" as="geometry" />
        </mxCell>
        <mxCell id="Jz8gkrG2YhVqBwOY9L8W-420" value="" style="shape=partialRectangle;collapsible=0;dropTarget=0;pointerEvents=0;fillColor=none;top=0;left=0;bottom=0;right=0;points=[[0,0.5],[1,0.5]];portConstraint=eastwest;" vertex="1" parent="Jz8gkrG2YhVqBwOY9L8W-419">
          <mxGeometry y="30" width="180" height="30" as="geometry" />
        </mxCell>
        <mxCell id="Jz8gkrG2YhVqBwOY9L8W-421" value="PK,FK1" style="shape=partialRectangle;connectable=0;fillColor=none;top=0;left=0;bottom=0;right=0;fontStyle=1;overflow=hidden;" vertex="1" parent="Jz8gkrG2YhVqBwOY9L8W-420">
          <mxGeometry width="60" height="30" as="geometry" />
        </mxCell>
        <mxCell id="Jz8gkrG2YhVqBwOY9L8W-422" value="Row 1" style="shape=partialRectangle;connectable=0;fillColor=none;top=0;left=0;bottom=0;right=0;align=left;spacingLeft=6;fontStyle=5;overflow=hidden;" vertex="1" parent="Jz8gkrG2YhVqBwOY9L8W-420">
          <mxGeometry x="60" width="120" height="30" as="geometry" />
        </mxCell>
        <mxCell id="Jz8gkrG2YhVqBwOY9L8W-423" value="" style="shape=partialRectangle;collapsible=0;dropTarget=0;pointerEvents=0;fillColor=none;top=0;left=0;bottom=1;right=0;points=[[0,0.5],[1,0.5]];portConstraint=eastwest;" vertex="1" parent="Jz8gkrG2YhVqBwOY9L8W-419">
          <mxGeometry y="60" width="180" height="30" as="geometry" />
        </mxCell>
        <mxCell id="Jz8gkrG2YhVqBwOY9L8W-424" value="PK,FK2" style="shape=partialRectangle;connectable=0;fillColor=none;top=0;left=0;bottom=0;right=0;fontStyle=1;overflow=hidden;" vertex="1" parent="Jz8gkrG2YhVqBwOY9L8W-423">
          <mxGeometry width="60" height="30" as="geometry" />
        </mxCell>
        <mxCell id="Jz8gkrG2YhVqBwOY9L8W-425" value="Row 2" style="shape=partialRectangle;connectable=0;fillColor=none;top=0;left=0;bottom=0;right=0;align=left;spacingLeft=6;fontStyle=5;overflow=hidden;" vertex="1" parent="Jz8gkrG2YhVqBwOY9L8W-423">
          <mxGeometry x="60" width="120" height="30" as="geometry" />
        </mxCell>
        <mxCell id="Jz8gkrG2YhVqBwOY9L8W-426" value="" style="shape=partialRectangle;collapsible=0;dropTarget=0;pointerEvents=0;fillColor=none;top=0;left=0;bottom=0;right=0;points=[[0,0.5],[1,0.5]];portConstraint=eastwest;" vertex="1" parent="Jz8gkrG2YhVqBwOY9L8W-419">
          <mxGeometry y="90" width="180" height="30" as="geometry" />
        </mxCell>
        <mxCell id="Jz8gkrG2YhVqBwOY9L8W-427" value="" style="shape=partialRectangle;connectable=0;fillColor=none;top=0;left=0;bottom=0;right=0;editable=1;overflow=hidden;" vertex="1" parent="Jz8gkrG2YhVqBwOY9L8W-426">
          <mxGeometry width="60" height="30" as="geometry" />
        </mxCell>
        <mxCell id="Jz8gkrG2YhVqBwOY9L8W-428" value="Row 3" style="shape=partialRectangle;connectable=0;fillColor=none;top=0;left=0;bottom=0;right=0;align=left;spacingLeft=6;overflow=hidden;" vertex="1" parent="Jz8gkrG2YhVqBwOY9L8W-426">
          <mxGeometry x="60" width="120" height="30" as="geometry" />
        </mxCell>
        <mxCell id="Jz8gkrG2YhVqBwOY9L8W-429" value="" style="shape=partialRectangle;collapsible=0;dropTarget=0;pointerEvents=0;fillColor=none;top=0;left=0;bottom=0;right=0;points=[[0,0.5],[1,0.5]];portConstraint=eastwest;" vertex="1" parent="Jz8gkrG2YhVqBwOY9L8W-419">
          <mxGeometry y="120" width="180" height="30" as="geometry" />
        </mxCell>
        <mxCell id="Jz8gkrG2YhVqBwOY9L8W-430" value="" style="shape=partialRectangle;connectable=0;fillColor=none;top=0;left=0;bottom=0;right=0;editable=1;overflow=hidden;" vertex="1" parent="Jz8gkrG2YhVqBwOY9L8W-429">
          <mxGeometry width="60" height="30" as="geometry" />
        </mxCell>
        <mxCell id="Jz8gkrG2YhVqBwOY9L8W-431" value="Row 4" style="shape=partialRectangle;connectable=0;fillColor=none;top=0;left=0;bottom=0;right=0;align=left;spacingLeft=6;overflow=hidden;" vertex="1" parent="Jz8gkrG2YhVqBwOY9L8W-429">
          <mxGeometry x="60" width="120" height="30" as="geometry" />
        </mxCell>
        <mxCell id="Jz8gkrG2YhVqBwOY9L8W-432" value="States" style="shape=table;startSize=30;container=1;collapsible=1;childLayout=tableLayout;fixedRows=1;rowLines=0;fontStyle=1;align=center;resizeLast=1;" vertex="1" parent="1">
          <mxGeometry x="1050" y="1560" width="180" height="160" as="geometry" />
        </mxCell>
        <mxCell id="Jz8gkrG2YhVqBwOY9L8W-433" value="" style="shape=partialRectangle;collapsible=0;dropTarget=0;pointerEvents=0;fillColor=none;top=0;left=0;bottom=0;right=0;points=[[0,0.5],[1,0.5]];portConstraint=eastwest;" vertex="1" parent="Jz8gkrG2YhVqBwOY9L8W-432">
          <mxGeometry y="30" width="180" height="30" as="geometry" />
        </mxCell>
        <mxCell id="Jz8gkrG2YhVqBwOY9L8W-434" value="PK,FK1" style="shape=partialRectangle;connectable=0;fillColor=none;top=0;left=0;bottom=0;right=0;fontStyle=1;overflow=hidden;" vertex="1" parent="Jz8gkrG2YhVqBwOY9L8W-433">
          <mxGeometry width="60" height="30" as="geometry" />
        </mxCell>
        <mxCell id="Jz8gkrG2YhVqBwOY9L8W-435" value="Row 1" style="shape=partialRectangle;connectable=0;fillColor=none;top=0;left=0;bottom=0;right=0;align=left;spacingLeft=6;fontStyle=5;overflow=hidden;" vertex="1" parent="Jz8gkrG2YhVqBwOY9L8W-433">
          <mxGeometry x="60" width="120" height="30" as="geometry" />
        </mxCell>
        <mxCell id="Jz8gkrG2YhVqBwOY9L8W-436" value="" style="shape=partialRectangle;collapsible=0;dropTarget=0;pointerEvents=0;fillColor=none;top=0;left=0;bottom=1;right=0;points=[[0,0.5],[1,0.5]];portConstraint=eastwest;" vertex="1" parent="Jz8gkrG2YhVqBwOY9L8W-432">
          <mxGeometry y="60" width="180" height="30" as="geometry" />
        </mxCell>
        <mxCell id="Jz8gkrG2YhVqBwOY9L8W-437" value="PK,FK2" style="shape=partialRectangle;connectable=0;fillColor=none;top=0;left=0;bottom=0;right=0;fontStyle=1;overflow=hidden;" vertex="1" parent="Jz8gkrG2YhVqBwOY9L8W-436">
          <mxGeometry width="60" height="30" as="geometry" />
        </mxCell>
        <mxCell id="Jz8gkrG2YhVqBwOY9L8W-438" value="Row 2" style="shape=partialRectangle;connectable=0;fillColor=none;top=0;left=0;bottom=0;right=0;align=left;spacingLeft=6;fontStyle=5;overflow=hidden;" vertex="1" parent="Jz8gkrG2YhVqBwOY9L8W-436">
          <mxGeometry x="60" width="120" height="30" as="geometry" />
        </mxCell>
        <mxCell id="Jz8gkrG2YhVqBwOY9L8W-439" value="" style="shape=partialRectangle;collapsible=0;dropTarget=0;pointerEvents=0;fillColor=none;top=0;left=0;bottom=0;right=0;points=[[0,0.5],[1,0.5]];portConstraint=eastwest;" vertex="1" parent="Jz8gkrG2YhVqBwOY9L8W-432">
          <mxGeometry y="90" width="180" height="30" as="geometry" />
        </mxCell>
        <mxCell id="Jz8gkrG2YhVqBwOY9L8W-440" value="" style="shape=partialRectangle;connectable=0;fillColor=none;top=0;left=0;bottom=0;right=0;editable=1;overflow=hidden;" vertex="1" parent="Jz8gkrG2YhVqBwOY9L8W-439">
          <mxGeometry width="60" height="30" as="geometry" />
        </mxCell>
        <mxCell id="Jz8gkrG2YhVqBwOY9L8W-441" value="Row 3" style="shape=partialRectangle;connectable=0;fillColor=none;top=0;left=0;bottom=0;right=0;align=left;spacingLeft=6;overflow=hidden;" vertex="1" parent="Jz8gkrG2YhVqBwOY9L8W-439">
          <mxGeometry x="60" width="120" height="30" as="geometry" />
        </mxCell>
        <mxCell id="Jz8gkrG2YhVqBwOY9L8W-442" value="" style="shape=partialRectangle;collapsible=0;dropTarget=0;pointerEvents=0;fillColor=none;top=0;left=0;bottom=0;right=0;points=[[0,0.5],[1,0.5]];portConstraint=eastwest;" vertex="1" parent="Jz8gkrG2YhVqBwOY9L8W-432">
          <mxGeometry y="120" width="180" height="30" as="geometry" />
        </mxCell>
        <mxCell id="Jz8gkrG2YhVqBwOY9L8W-443" value="" style="shape=partialRectangle;connectable=0;fillColor=none;top=0;left=0;bottom=0;right=0;editable=1;overflow=hidden;" vertex="1" parent="Jz8gkrG2YhVqBwOY9L8W-442">
          <mxGeometry width="60" height="30" as="geometry" />
        </mxCell>
        <mxCell id="Jz8gkrG2YhVqBwOY9L8W-444" value="Row 4" style="shape=partialRectangle;connectable=0;fillColor=none;top=0;left=0;bottom=0;right=0;align=left;spacingLeft=6;overflow=hidden;" vertex="1" parent="Jz8gkrG2YhVqBwOY9L8W-442">
          <mxGeometry x="60" width="120" height="30" as="geometry" />
        </mxCell>
        <mxCell id="Jz8gkrG2YhVqBwOY9L8W-445" value="login_history" style="shape=table;startSize=30;container=1;collapsible=1;childLayout=tableLayout;fixedRows=1;rowLines=0;fontStyle=1;align=center;resizeLast=1;" vertex="1" parent="1">
          <mxGeometry x="560" y="1780" width="180" height="160" as="geometry" />
        </mxCell>
        <mxCell id="Jz8gkrG2YhVqBwOY9L8W-446" value="" style="shape=partialRectangle;collapsible=0;dropTarget=0;pointerEvents=0;fillColor=none;top=0;left=0;bottom=0;right=0;points=[[0,0.5],[1,0.5]];portConstraint=eastwest;" vertex="1" parent="Jz8gkrG2YhVqBwOY9L8W-445">
          <mxGeometry y="30" width="180" height="30" as="geometry" />
        </mxCell>
        <mxCell id="Jz8gkrG2YhVqBwOY9L8W-447" value="PK,FK1" style="shape=partialRectangle;connectable=0;fillColor=none;top=0;left=0;bottom=0;right=0;fontStyle=1;overflow=hidden;" vertex="1" parent="Jz8gkrG2YhVqBwOY9L8W-446">
          <mxGeometry width="60" height="30" as="geometry" />
        </mxCell>
        <mxCell id="Jz8gkrG2YhVqBwOY9L8W-448" value="Row 1" style="shape=partialRectangle;connectable=0;fillColor=none;top=0;left=0;bottom=0;right=0;align=left;spacingLeft=6;fontStyle=5;overflow=hidden;" vertex="1" parent="Jz8gkrG2YhVqBwOY9L8W-446">
          <mxGeometry x="60" width="120" height="30" as="geometry" />
        </mxCell>
        <mxCell id="Jz8gkrG2YhVqBwOY9L8W-449" value="" style="shape=partialRectangle;collapsible=0;dropTarget=0;pointerEvents=0;fillColor=none;top=0;left=0;bottom=1;right=0;points=[[0,0.5],[1,0.5]];portConstraint=eastwest;" vertex="1" parent="Jz8gkrG2YhVqBwOY9L8W-445">
          <mxGeometry y="60" width="180" height="30" as="geometry" />
        </mxCell>
        <mxCell id="Jz8gkrG2YhVqBwOY9L8W-450" value="PK,FK2" style="shape=partialRectangle;connectable=0;fillColor=none;top=0;left=0;bottom=0;right=0;fontStyle=1;overflow=hidden;" vertex="1" parent="Jz8gkrG2YhVqBwOY9L8W-449">
          <mxGeometry width="60" height="30" as="geometry" />
        </mxCell>
        <mxCell id="Jz8gkrG2YhVqBwOY9L8W-451" value="Row 2" style="shape=partialRectangle;connectable=0;fillColor=none;top=0;left=0;bottom=0;right=0;align=left;spacingLeft=6;fontStyle=5;overflow=hidden;" vertex="1" parent="Jz8gkrG2YhVqBwOY9L8W-449">
          <mxGeometry x="60" width="120" height="30" as="geometry" />
        </mxCell>
        <mxCell id="Jz8gkrG2YhVqBwOY9L8W-452" value="" style="shape=partialRectangle;collapsible=0;dropTarget=0;pointerEvents=0;fillColor=none;top=0;left=0;bottom=0;right=0;points=[[0,0.5],[1,0.5]];portConstraint=eastwest;" vertex="1" parent="Jz8gkrG2YhVqBwOY9L8W-445">
          <mxGeometry y="90" width="180" height="30" as="geometry" />
        </mxCell>
        <mxCell id="Jz8gkrG2YhVqBwOY9L8W-453" value="" style="shape=partialRectangle;connectable=0;fillColor=none;top=0;left=0;bottom=0;right=0;editable=1;overflow=hidden;" vertex="1" parent="Jz8gkrG2YhVqBwOY9L8W-452">
          <mxGeometry width="60" height="30" as="geometry" />
        </mxCell>
        <mxCell id="Jz8gkrG2YhVqBwOY9L8W-454" value="Row 3" style="shape=partialRectangle;connectable=0;fillColor=none;top=0;left=0;bottom=0;right=0;align=left;spacingLeft=6;overflow=hidden;" vertex="1" parent="Jz8gkrG2YhVqBwOY9L8W-452">
          <mxGeometry x="60" width="120" height="30" as="geometry" />
        </mxCell>
        <mxCell id="Jz8gkrG2YhVqBwOY9L8W-455" value="" style="shape=partialRectangle;collapsible=0;dropTarget=0;pointerEvents=0;fillColor=none;top=0;left=0;bottom=0;right=0;points=[[0,0.5],[1,0.5]];portConstraint=eastwest;" vertex="1" parent="Jz8gkrG2YhVqBwOY9L8W-445">
          <mxGeometry y="120" width="180" height="30" as="geometry" />
        </mxCell>
        <mxCell id="Jz8gkrG2YhVqBwOY9L8W-456" value="" style="shape=partialRectangle;connectable=0;fillColor=none;top=0;left=0;bottom=0;right=0;editable=1;overflow=hidden;" vertex="1" parent="Jz8gkrG2YhVqBwOY9L8W-455">
          <mxGeometry width="60" height="30" as="geometry" />
        </mxCell>
        <mxCell id="Jz8gkrG2YhVqBwOY9L8W-457" value="Row 4" style="shape=partialRectangle;connectable=0;fillColor=none;top=0;left=0;bottom=0;right=0;align=left;spacingLeft=6;overflow=hidden;" vertex="1" parent="Jz8gkrG2YhVqBwOY9L8W-455">
          <mxGeometry x="60" width="120" height="30" as="geometry" />
        </mxCell>
        <mxCell id="Jz8gkrG2YhVqBwOY9L8W-458" value="app_modules" style="shape=table;startSize=30;container=1;collapsible=1;childLayout=tableLayout;fixedRows=1;rowLines=0;fontStyle=1;align=center;resizeLast=1;" vertex="1" parent="1">
          <mxGeometry x="790" y="1780" width="180" height="160" as="geometry" />
        </mxCell>
        <mxCell id="Jz8gkrG2YhVqBwOY9L8W-459" value="" style="shape=partialRectangle;collapsible=0;dropTarget=0;pointerEvents=0;fillColor=none;top=0;left=0;bottom=0;right=0;points=[[0,0.5],[1,0.5]];portConstraint=eastwest;" vertex="1" parent="Jz8gkrG2YhVqBwOY9L8W-458">
          <mxGeometry y="30" width="180" height="30" as="geometry" />
        </mxCell>
        <mxCell id="Jz8gkrG2YhVqBwOY9L8W-460" value="PK,FK1" style="shape=partialRectangle;connectable=0;fillColor=none;top=0;left=0;bottom=0;right=0;fontStyle=1;overflow=hidden;" vertex="1" parent="Jz8gkrG2YhVqBwOY9L8W-459">
          <mxGeometry width="60" height="30" as="geometry" />
        </mxCell>
        <mxCell id="Jz8gkrG2YhVqBwOY9L8W-461" value="Row 1" style="shape=partialRectangle;connectable=0;fillColor=none;top=0;left=0;bottom=0;right=0;align=left;spacingLeft=6;fontStyle=5;overflow=hidden;" vertex="1" parent="Jz8gkrG2YhVqBwOY9L8W-459">
          <mxGeometry x="60" width="120" height="30" as="geometry" />
        </mxCell>
        <mxCell id="Jz8gkrG2YhVqBwOY9L8W-462" value="" style="shape=partialRectangle;collapsible=0;dropTarget=0;pointerEvents=0;fillColor=none;top=0;left=0;bottom=1;right=0;points=[[0,0.5],[1,0.5]];portConstraint=eastwest;" vertex="1" parent="Jz8gkrG2YhVqBwOY9L8W-458">
          <mxGeometry y="60" width="180" height="30" as="geometry" />
        </mxCell>
        <mxCell id="Jz8gkrG2YhVqBwOY9L8W-463" value="PK,FK2" style="shape=partialRectangle;connectable=0;fillColor=none;top=0;left=0;bottom=0;right=0;fontStyle=1;overflow=hidden;" vertex="1" parent="Jz8gkrG2YhVqBwOY9L8W-462">
          <mxGeometry width="60" height="30" as="geometry" />
        </mxCell>
        <mxCell id="Jz8gkrG2YhVqBwOY9L8W-464" value="Row 2" style="shape=partialRectangle;connectable=0;fillColor=none;top=0;left=0;bottom=0;right=0;align=left;spacingLeft=6;fontStyle=5;overflow=hidden;" vertex="1" parent="Jz8gkrG2YhVqBwOY9L8W-462">
          <mxGeometry x="60" width="120" height="30" as="geometry" />
        </mxCell>
        <mxCell id="Jz8gkrG2YhVqBwOY9L8W-465" value="" style="shape=partialRectangle;collapsible=0;dropTarget=0;pointerEvents=0;fillColor=none;top=0;left=0;bottom=0;right=0;points=[[0,0.5],[1,0.5]];portConstraint=eastwest;" vertex="1" parent="Jz8gkrG2YhVqBwOY9L8W-458">
          <mxGeometry y="90" width="180" height="30" as="geometry" />
        </mxCell>
        <mxCell id="Jz8gkrG2YhVqBwOY9L8W-466" value="" style="shape=partialRectangle;connectable=0;fillColor=none;top=0;left=0;bottom=0;right=0;editable=1;overflow=hidden;" vertex="1" parent="Jz8gkrG2YhVqBwOY9L8W-465">
          <mxGeometry width="60" height="30" as="geometry" />
        </mxCell>
        <mxCell id="Jz8gkrG2YhVqBwOY9L8W-467" value="Row 3" style="shape=partialRectangle;connectable=0;fillColor=none;top=0;left=0;bottom=0;right=0;align=left;spacingLeft=6;overflow=hidden;" vertex="1" parent="Jz8gkrG2YhVqBwOY9L8W-465">
          <mxGeometry x="60" width="120" height="30" as="geometry" />
        </mxCell>
        <mxCell id="Jz8gkrG2YhVqBwOY9L8W-468" value="" style="shape=partialRectangle;collapsible=0;dropTarget=0;pointerEvents=0;fillColor=none;top=0;left=0;bottom=0;right=0;points=[[0,0.5],[1,0.5]];portConstraint=eastwest;" vertex="1" parent="Jz8gkrG2YhVqBwOY9L8W-458">
          <mxGeometry y="120" width="180" height="30" as="geometry" />
        </mxCell>
        <mxCell id="Jz8gkrG2YhVqBwOY9L8W-469" value="" style="shape=partialRectangle;connectable=0;fillColor=none;top=0;left=0;bottom=0;right=0;editable=1;overflow=hidden;" vertex="1" parent="Jz8gkrG2YhVqBwOY9L8W-468">
          <mxGeometry width="60" height="30" as="geometry" />
        </mxCell>
        <mxCell id="Jz8gkrG2YhVqBwOY9L8W-470" value="Row 4" style="shape=partialRectangle;connectable=0;fillColor=none;top=0;left=0;bottom=0;right=0;align=left;spacingLeft=6;overflow=hidden;" vertex="1" parent="Jz8gkrG2YhVqBwOY9L8W-468">
          <mxGeometry x="60" width="120" height="30" as="geometry" />
        </mxCell>
        <mxCell id="Jz8gkrG2YhVqBwOY9L8W-471" value="Client Parameters" style="shape=table;startSize=30;container=1;collapsible=1;childLayout=tableLayout;fixedRows=1;rowLines=0;fontStyle=1;align=center;resizeLast=1;" vertex="1" parent="1">
          <mxGeometry x="1010" y="1780" width="180" height="160" as="geometry" />
        </mxCell>
        <mxCell id="Jz8gkrG2YhVqBwOY9L8W-472" value="" style="shape=partialRectangle;collapsible=0;dropTarget=0;pointerEvents=0;fillColor=none;top=0;left=0;bottom=0;right=0;points=[[0,0.5],[1,0.5]];portConstraint=eastwest;" vertex="1" parent="Jz8gkrG2YhVqBwOY9L8W-471">
          <mxGeometry y="30" width="180" height="30" as="geometry" />
        </mxCell>
        <mxCell id="Jz8gkrG2YhVqBwOY9L8W-473" value="PK,FK1" style="shape=partialRectangle;connectable=0;fillColor=none;top=0;left=0;bottom=0;right=0;fontStyle=1;overflow=hidden;" vertex="1" parent="Jz8gkrG2YhVqBwOY9L8W-472">
          <mxGeometry width="60" height="30" as="geometry" />
        </mxCell>
        <mxCell id="Jz8gkrG2YhVqBwOY9L8W-474" value="Row 1" style="shape=partialRectangle;connectable=0;fillColor=none;top=0;left=0;bottom=0;right=0;align=left;spacingLeft=6;fontStyle=5;overflow=hidden;" vertex="1" parent="Jz8gkrG2YhVqBwOY9L8W-472">
          <mxGeometry x="60" width="120" height="30" as="geometry" />
        </mxCell>
        <mxCell id="Jz8gkrG2YhVqBwOY9L8W-475" value="" style="shape=partialRectangle;collapsible=0;dropTarget=0;pointerEvents=0;fillColor=none;top=0;left=0;bottom=1;right=0;points=[[0,0.5],[1,0.5]];portConstraint=eastwest;" vertex="1" parent="Jz8gkrG2YhVqBwOY9L8W-471">
          <mxGeometry y="60" width="180" height="30" as="geometry" />
        </mxCell>
        <mxCell id="Jz8gkrG2YhVqBwOY9L8W-476" value="PK,FK2" style="shape=partialRectangle;connectable=0;fillColor=none;top=0;left=0;bottom=0;right=0;fontStyle=1;overflow=hidden;" vertex="1" parent="Jz8gkrG2YhVqBwOY9L8W-475">
          <mxGeometry width="60" height="30" as="geometry" />
        </mxCell>
        <mxCell id="Jz8gkrG2YhVqBwOY9L8W-477" value="Row 2" style="shape=partialRectangle;connectable=0;fillColor=none;top=0;left=0;bottom=0;right=0;align=left;spacingLeft=6;fontStyle=5;overflow=hidden;" vertex="1" parent="Jz8gkrG2YhVqBwOY9L8W-475">
          <mxGeometry x="60" width="120" height="30" as="geometry" />
        </mxCell>
        <mxCell id="Jz8gkrG2YhVqBwOY9L8W-478" value="" style="shape=partialRectangle;collapsible=0;dropTarget=0;pointerEvents=0;fillColor=none;top=0;left=0;bottom=0;right=0;points=[[0,0.5],[1,0.5]];portConstraint=eastwest;" vertex="1" parent="Jz8gkrG2YhVqBwOY9L8W-471">
          <mxGeometry y="90" width="180" height="30" as="geometry" />
        </mxCell>
        <mxCell id="Jz8gkrG2YhVqBwOY9L8W-479" value="" style="shape=partialRectangle;connectable=0;fillColor=none;top=0;left=0;bottom=0;right=0;editable=1;overflow=hidden;" vertex="1" parent="Jz8gkrG2YhVqBwOY9L8W-478">
          <mxGeometry width="60" height="30" as="geometry" />
        </mxCell>
        <mxCell id="Jz8gkrG2YhVqBwOY9L8W-480" value="Row 3" style="shape=partialRectangle;connectable=0;fillColor=none;top=0;left=0;bottom=0;right=0;align=left;spacingLeft=6;overflow=hidden;" vertex="1" parent="Jz8gkrG2YhVqBwOY9L8W-478">
          <mxGeometry x="60" width="120" height="30" as="geometry" />
        </mxCell>
        <mxCell id="Jz8gkrG2YhVqBwOY9L8W-481" value="" style="shape=partialRectangle;collapsible=0;dropTarget=0;pointerEvents=0;fillColor=none;top=0;left=0;bottom=0;right=0;points=[[0,0.5],[1,0.5]];portConstraint=eastwest;" vertex="1" parent="Jz8gkrG2YhVqBwOY9L8W-471">
          <mxGeometry y="120" width="180" height="30" as="geometry" />
        </mxCell>
        <mxCell id="Jz8gkrG2YhVqBwOY9L8W-482" value="" style="shape=partialRectangle;connectable=0;fillColor=none;top=0;left=0;bottom=0;right=0;editable=1;overflow=hidden;" vertex="1" parent="Jz8gkrG2YhVqBwOY9L8W-481">
          <mxGeometry width="60" height="30" as="geometry" />
        </mxCell>
        <mxCell id="Jz8gkrG2YhVqBwOY9L8W-483" value="Row 4" style="shape=partialRectangle;connectable=0;fillColor=none;top=0;left=0;bottom=0;right=0;align=left;spacingLeft=6;overflow=hidden;" vertex="1" parent="Jz8gkrG2YhVqBwOY9L8W-481">
          <mxGeometry x="60" width="120" height="30" as="geometry" />
        </mxCell>
        <mxCell id="Jz8gkrG2YhVqBwOY9L8W-484" value="Brand Parameters" style="shape=table;startSize=30;container=1;collapsible=1;childLayout=tableLayout;fixedRows=1;rowLines=0;fontStyle=1;align=center;resizeLast=1;" vertex="1" parent="1">
          <mxGeometry x="180" y="1990" width="180" height="160" as="geometry" />
        </mxCell>
        <mxCell id="Jz8gkrG2YhVqBwOY9L8W-485" value="" style="shape=partialRectangle;collapsible=0;dropTarget=0;pointerEvents=0;fillColor=none;top=0;left=0;bottom=0;right=0;points=[[0,0.5],[1,0.5]];portConstraint=eastwest;" vertex="1" parent="Jz8gkrG2YhVqBwOY9L8W-484">
          <mxGeometry y="30" width="180" height="30" as="geometry" />
        </mxCell>
        <mxCell id="Jz8gkrG2YhVqBwOY9L8W-486" value="PK,FK1" style="shape=partialRectangle;connectable=0;fillColor=none;top=0;left=0;bottom=0;right=0;fontStyle=1;overflow=hidden;" vertex="1" parent="Jz8gkrG2YhVqBwOY9L8W-485">
          <mxGeometry width="60" height="30" as="geometry" />
        </mxCell>
        <mxCell id="Jz8gkrG2YhVqBwOY9L8W-487" value="Row 1" style="shape=partialRectangle;connectable=0;fillColor=none;top=0;left=0;bottom=0;right=0;align=left;spacingLeft=6;fontStyle=5;overflow=hidden;" vertex="1" parent="Jz8gkrG2YhVqBwOY9L8W-485">
          <mxGeometry x="60" width="120" height="30" as="geometry" />
        </mxCell>
        <mxCell id="Jz8gkrG2YhVqBwOY9L8W-488" value="" style="shape=partialRectangle;collapsible=0;dropTarget=0;pointerEvents=0;fillColor=none;top=0;left=0;bottom=1;right=0;points=[[0,0.5],[1,0.5]];portConstraint=eastwest;" vertex="1" parent="Jz8gkrG2YhVqBwOY9L8W-484">
          <mxGeometry y="60" width="180" height="30" as="geometry" />
        </mxCell>
        <mxCell id="Jz8gkrG2YhVqBwOY9L8W-489" value="PK,FK2" style="shape=partialRectangle;connectable=0;fillColor=none;top=0;left=0;bottom=0;right=0;fontStyle=1;overflow=hidden;" vertex="1" parent="Jz8gkrG2YhVqBwOY9L8W-488">
          <mxGeometry width="60" height="30" as="geometry" />
        </mxCell>
        <mxCell id="Jz8gkrG2YhVqBwOY9L8W-490" value="Row 2" style="shape=partialRectangle;connectable=0;fillColor=none;top=0;left=0;bottom=0;right=0;align=left;spacingLeft=6;fontStyle=5;overflow=hidden;" vertex="1" parent="Jz8gkrG2YhVqBwOY9L8W-488">
          <mxGeometry x="60" width="120" height="30" as="geometry" />
        </mxCell>
        <mxCell id="Jz8gkrG2YhVqBwOY9L8W-491" value="" style="shape=partialRectangle;collapsible=0;dropTarget=0;pointerEvents=0;fillColor=none;top=0;left=0;bottom=0;right=0;points=[[0,0.5],[1,0.5]];portConstraint=eastwest;" vertex="1" parent="Jz8gkrG2YhVqBwOY9L8W-484">
          <mxGeometry y="90" width="180" height="30" as="geometry" />
        </mxCell>
        <mxCell id="Jz8gkrG2YhVqBwOY9L8W-492" value="" style="shape=partialRectangle;connectable=0;fillColor=none;top=0;left=0;bottom=0;right=0;editable=1;overflow=hidden;" vertex="1" parent="Jz8gkrG2YhVqBwOY9L8W-491">
          <mxGeometry width="60" height="30" as="geometry" />
        </mxCell>
        <mxCell id="Jz8gkrG2YhVqBwOY9L8W-493" value="Row 3" style="shape=partialRectangle;connectable=0;fillColor=none;top=0;left=0;bottom=0;right=0;align=left;spacingLeft=6;overflow=hidden;" vertex="1" parent="Jz8gkrG2YhVqBwOY9L8W-491">
          <mxGeometry x="60" width="120" height="30" as="geometry" />
        </mxCell>
        <mxCell id="Jz8gkrG2YhVqBwOY9L8W-494" value="" style="shape=partialRectangle;collapsible=0;dropTarget=0;pointerEvents=0;fillColor=none;top=0;left=0;bottom=0;right=0;points=[[0,0.5],[1,0.5]];portConstraint=eastwest;" vertex="1" parent="Jz8gkrG2YhVqBwOY9L8W-484">
          <mxGeometry y="120" width="180" height="30" as="geometry" />
        </mxCell>
        <mxCell id="Jz8gkrG2YhVqBwOY9L8W-495" value="" style="shape=partialRectangle;connectable=0;fillColor=none;top=0;left=0;bottom=0;right=0;editable=1;overflow=hidden;" vertex="1" parent="Jz8gkrG2YhVqBwOY9L8W-494">
          <mxGeometry width="60" height="30" as="geometry" />
        </mxCell>
        <mxCell id="Jz8gkrG2YhVqBwOY9L8W-496" value="Row 4" style="shape=partialRectangle;connectable=0;fillColor=none;top=0;left=0;bottom=0;right=0;align=left;spacingLeft=6;overflow=hidden;" vertex="1" parent="Jz8gkrG2YhVqBwOY9L8W-494">
          <mxGeometry x="60" width="120" height="30" as="geometry" />
        </mxCell>
        <mxCell id="Jz8gkrG2YhVqBwOY9L8W-497" value="web_applications" style="shape=table;startSize=30;container=1;collapsible=1;childLayout=tableLayout;fixedRows=1;rowLines=0;fontStyle=1;align=center;resizeLast=1;" vertex="1" parent="1">
          <mxGeometry x="440" y="1990" width="180" height="160" as="geometry" />
        </mxCell>
        <mxCell id="Jz8gkrG2YhVqBwOY9L8W-498" value="" style="shape=partialRectangle;collapsible=0;dropTarget=0;pointerEvents=0;fillColor=none;top=0;left=0;bottom=0;right=0;points=[[0,0.5],[1,0.5]];portConstraint=eastwest;" vertex="1" parent="Jz8gkrG2YhVqBwOY9L8W-497">
          <mxGeometry y="30" width="180" height="30" as="geometry" />
        </mxCell>
        <mxCell id="Jz8gkrG2YhVqBwOY9L8W-499" value="PK,FK1" style="shape=partialRectangle;connectable=0;fillColor=none;top=0;left=0;bottom=0;right=0;fontStyle=1;overflow=hidden;" vertex="1" parent="Jz8gkrG2YhVqBwOY9L8W-498">
          <mxGeometry width="60" height="30" as="geometry" />
        </mxCell>
        <mxCell id="Jz8gkrG2YhVqBwOY9L8W-500" value="Row 1" style="shape=partialRectangle;connectable=0;fillColor=none;top=0;left=0;bottom=0;right=0;align=left;spacingLeft=6;fontStyle=5;overflow=hidden;" vertex="1" parent="Jz8gkrG2YhVqBwOY9L8W-498">
          <mxGeometry x="60" width="120" height="30" as="geometry" />
        </mxCell>
        <mxCell id="Jz8gkrG2YhVqBwOY9L8W-501" value="" style="shape=partialRectangle;collapsible=0;dropTarget=0;pointerEvents=0;fillColor=none;top=0;left=0;bottom=1;right=0;points=[[0,0.5],[1,0.5]];portConstraint=eastwest;" vertex="1" parent="Jz8gkrG2YhVqBwOY9L8W-497">
          <mxGeometry y="60" width="180" height="30" as="geometry" />
        </mxCell>
        <mxCell id="Jz8gkrG2YhVqBwOY9L8W-502" value="PK,FK2" style="shape=partialRectangle;connectable=0;fillColor=none;top=0;left=0;bottom=0;right=0;fontStyle=1;overflow=hidden;" vertex="1" parent="Jz8gkrG2YhVqBwOY9L8W-501">
          <mxGeometry width="60" height="30" as="geometry" />
        </mxCell>
        <mxCell id="Jz8gkrG2YhVqBwOY9L8W-503" value="Row 2" style="shape=partialRectangle;connectable=0;fillColor=none;top=0;left=0;bottom=0;right=0;align=left;spacingLeft=6;fontStyle=5;overflow=hidden;" vertex="1" parent="Jz8gkrG2YhVqBwOY9L8W-501">
          <mxGeometry x="60" width="120" height="30" as="geometry" />
        </mxCell>
        <mxCell id="Jz8gkrG2YhVqBwOY9L8W-504" value="" style="shape=partialRectangle;collapsible=0;dropTarget=0;pointerEvents=0;fillColor=none;top=0;left=0;bottom=0;right=0;points=[[0,0.5],[1,0.5]];portConstraint=eastwest;" vertex="1" parent="Jz8gkrG2YhVqBwOY9L8W-497">
          <mxGeometry y="90" width="180" height="30" as="geometry" />
        </mxCell>
        <mxCell id="Jz8gkrG2YhVqBwOY9L8W-505" value="" style="shape=partialRectangle;connectable=0;fillColor=none;top=0;left=0;bottom=0;right=0;editable=1;overflow=hidden;" vertex="1" parent="Jz8gkrG2YhVqBwOY9L8W-504">
          <mxGeometry width="60" height="30" as="geometry" />
        </mxCell>
        <mxCell id="Jz8gkrG2YhVqBwOY9L8W-506" value="Row 3" style="shape=partialRectangle;connectable=0;fillColor=none;top=0;left=0;bottom=0;right=0;align=left;spacingLeft=6;overflow=hidden;" vertex="1" parent="Jz8gkrG2YhVqBwOY9L8W-504">
          <mxGeometry x="60" width="120" height="30" as="geometry" />
        </mxCell>
        <mxCell id="Jz8gkrG2YhVqBwOY9L8W-507" value="" style="shape=partialRectangle;collapsible=0;dropTarget=0;pointerEvents=0;fillColor=none;top=0;left=0;bottom=0;right=0;points=[[0,0.5],[1,0.5]];portConstraint=eastwest;" vertex="1" parent="Jz8gkrG2YhVqBwOY9L8W-497">
          <mxGeometry y="120" width="180" height="30" as="geometry" />
        </mxCell>
        <mxCell id="Jz8gkrG2YhVqBwOY9L8W-508" value="" style="shape=partialRectangle;connectable=0;fillColor=none;top=0;left=0;bottom=0;right=0;editable=1;overflow=hidden;" vertex="1" parent="Jz8gkrG2YhVqBwOY9L8W-507">
          <mxGeometry width="60" height="30" as="geometry" />
        </mxCell>
        <mxCell id="Jz8gkrG2YhVqBwOY9L8W-509" value="Row 4" style="shape=partialRectangle;connectable=0;fillColor=none;top=0;left=0;bottom=0;right=0;align=left;spacingLeft=6;overflow=hidden;" vertex="1" parent="Jz8gkrG2YhVqBwOY9L8W-507">
          <mxGeometry x="60" width="120" height="30" as="geometry" />
        </mxCell>
        <mxCell id="Jz8gkrG2YhVqBwOY9L8W-510" value="Industries" style="shape=table;startSize=30;container=1;collapsible=1;childLayout=tableLayout;fixedRows=1;rowLines=0;fontStyle=1;align=center;resizeLast=1;" vertex="1" parent="1">
          <mxGeometry x="710" y="1990" width="180" height="160" as="geometry" />
        </mxCell>
        <mxCell id="Jz8gkrG2YhVqBwOY9L8W-511" value="" style="shape=partialRectangle;collapsible=0;dropTarget=0;pointerEvents=0;fillColor=none;top=0;left=0;bottom=0;right=0;points=[[0,0.5],[1,0.5]];portConstraint=eastwest;" vertex="1" parent="Jz8gkrG2YhVqBwOY9L8W-510">
          <mxGeometry y="30" width="180" height="30" as="geometry" />
        </mxCell>
        <mxCell id="Jz8gkrG2YhVqBwOY9L8W-512" value="PK,FK1" style="shape=partialRectangle;connectable=0;fillColor=none;top=0;left=0;bottom=0;right=0;fontStyle=1;overflow=hidden;" vertex="1" parent="Jz8gkrG2YhVqBwOY9L8W-511">
          <mxGeometry width="60" height="30" as="geometry" />
        </mxCell>
        <mxCell id="Jz8gkrG2YhVqBwOY9L8W-513" value="Row 1" style="shape=partialRectangle;connectable=0;fillColor=none;top=0;left=0;bottom=0;right=0;align=left;spacingLeft=6;fontStyle=5;overflow=hidden;" vertex="1" parent="Jz8gkrG2YhVqBwOY9L8W-511">
          <mxGeometry x="60" width="120" height="30" as="geometry" />
        </mxCell>
        <mxCell id="Jz8gkrG2YhVqBwOY9L8W-514" value="" style="shape=partialRectangle;collapsible=0;dropTarget=0;pointerEvents=0;fillColor=none;top=0;left=0;bottom=1;right=0;points=[[0,0.5],[1,0.5]];portConstraint=eastwest;" vertex="1" parent="Jz8gkrG2YhVqBwOY9L8W-510">
          <mxGeometry y="60" width="180" height="30" as="geometry" />
        </mxCell>
        <mxCell id="Jz8gkrG2YhVqBwOY9L8W-515" value="PK,FK2" style="shape=partialRectangle;connectable=0;fillColor=none;top=0;left=0;bottom=0;right=0;fontStyle=1;overflow=hidden;" vertex="1" parent="Jz8gkrG2YhVqBwOY9L8W-514">
          <mxGeometry width="60" height="30" as="geometry" />
        </mxCell>
        <mxCell id="Jz8gkrG2YhVqBwOY9L8W-516" value="Row 2" style="shape=partialRectangle;connectable=0;fillColor=none;top=0;left=0;bottom=0;right=0;align=left;spacingLeft=6;fontStyle=5;overflow=hidden;" vertex="1" parent="Jz8gkrG2YhVqBwOY9L8W-514">
          <mxGeometry x="60" width="120" height="30" as="geometry" />
        </mxCell>
        <mxCell id="Jz8gkrG2YhVqBwOY9L8W-517" value="" style="shape=partialRectangle;collapsible=0;dropTarget=0;pointerEvents=0;fillColor=none;top=0;left=0;bottom=0;right=0;points=[[0,0.5],[1,0.5]];portConstraint=eastwest;" vertex="1" parent="Jz8gkrG2YhVqBwOY9L8W-510">
          <mxGeometry y="90" width="180" height="30" as="geometry" />
        </mxCell>
        <mxCell id="Jz8gkrG2YhVqBwOY9L8W-518" value="" style="shape=partialRectangle;connectable=0;fillColor=none;top=0;left=0;bottom=0;right=0;editable=1;overflow=hidden;" vertex="1" parent="Jz8gkrG2YhVqBwOY9L8W-517">
          <mxGeometry width="60" height="30" as="geometry" />
        </mxCell>
        <mxCell id="Jz8gkrG2YhVqBwOY9L8W-519" value="Row 3" style="shape=partialRectangle;connectable=0;fillColor=none;top=0;left=0;bottom=0;right=0;align=left;spacingLeft=6;overflow=hidden;" vertex="1" parent="Jz8gkrG2YhVqBwOY9L8W-517">
          <mxGeometry x="60" width="120" height="30" as="geometry" />
        </mxCell>
        <mxCell id="Jz8gkrG2YhVqBwOY9L8W-520" value="" style="shape=partialRectangle;collapsible=0;dropTarget=0;pointerEvents=0;fillColor=none;top=0;left=0;bottom=0;right=0;points=[[0,0.5],[1,0.5]];portConstraint=eastwest;" vertex="1" parent="Jz8gkrG2YhVqBwOY9L8W-510">
          <mxGeometry y="120" width="180" height="30" as="geometry" />
        </mxCell>
        <mxCell id="Jz8gkrG2YhVqBwOY9L8W-521" value="" style="shape=partialRectangle;connectable=0;fillColor=none;top=0;left=0;bottom=0;right=0;editable=1;overflow=hidden;" vertex="1" parent="Jz8gkrG2YhVqBwOY9L8W-520">
          <mxGeometry width="60" height="30" as="geometry" />
        </mxCell>
        <mxCell id="Jz8gkrG2YhVqBwOY9L8W-522" value="Row 4" style="shape=partialRectangle;connectable=0;fillColor=none;top=0;left=0;bottom=0;right=0;align=left;spacingLeft=6;overflow=hidden;" vertex="1" parent="Jz8gkrG2YhVqBwOY9L8W-520">
          <mxGeometry x="60" width="120" height="30" as="geometry" />
        </mxCell>
        <mxCell id="Jz8gkrG2YhVqBwOY9L8W-523" value="app_urls" style="shape=table;startSize=30;container=1;collapsible=1;childLayout=tableLayout;fixedRows=1;rowLines=0;fontStyle=1;align=center;resizeLast=1;" vertex="1" parent="1">
          <mxGeometry x="1000" y="1990" width="180" height="160" as="geometry" />
        </mxCell>
        <mxCell id="Jz8gkrG2YhVqBwOY9L8W-524" value="" style="shape=partialRectangle;collapsible=0;dropTarget=0;pointerEvents=0;fillColor=none;top=0;left=0;bottom=0;right=0;points=[[0,0.5],[1,0.5]];portConstraint=eastwest;" vertex="1" parent="Jz8gkrG2YhVqBwOY9L8W-523">
          <mxGeometry y="30" width="180" height="30" as="geometry" />
        </mxCell>
        <mxCell id="Jz8gkrG2YhVqBwOY9L8W-525" value="PK,FK1" style="shape=partialRectangle;connectable=0;fillColor=none;top=0;left=0;bottom=0;right=0;fontStyle=1;overflow=hidden;" vertex="1" parent="Jz8gkrG2YhVqBwOY9L8W-524">
          <mxGeometry width="60" height="30" as="geometry" />
        </mxCell>
        <mxCell id="Jz8gkrG2YhVqBwOY9L8W-526" value="Row 1" style="shape=partialRectangle;connectable=0;fillColor=none;top=0;left=0;bottom=0;right=0;align=left;spacingLeft=6;fontStyle=5;overflow=hidden;" vertex="1" parent="Jz8gkrG2YhVqBwOY9L8W-524">
          <mxGeometry x="60" width="120" height="30" as="geometry" />
        </mxCell>
        <mxCell id="Jz8gkrG2YhVqBwOY9L8W-527" value="" style="shape=partialRectangle;collapsible=0;dropTarget=0;pointerEvents=0;fillColor=none;top=0;left=0;bottom=1;right=0;points=[[0,0.5],[1,0.5]];portConstraint=eastwest;" vertex="1" parent="Jz8gkrG2YhVqBwOY9L8W-523">
          <mxGeometry y="60" width="180" height="30" as="geometry" />
        </mxCell>
        <mxCell id="Jz8gkrG2YhVqBwOY9L8W-528" value="PK,FK2" style="shape=partialRectangle;connectable=0;fillColor=none;top=0;left=0;bottom=0;right=0;fontStyle=1;overflow=hidden;" vertex="1" parent="Jz8gkrG2YhVqBwOY9L8W-527">
          <mxGeometry width="60" height="30" as="geometry" />
        </mxCell>
        <mxCell id="Jz8gkrG2YhVqBwOY9L8W-529" value="Row 2" style="shape=partialRectangle;connectable=0;fillColor=none;top=0;left=0;bottom=0;right=0;align=left;spacingLeft=6;fontStyle=5;overflow=hidden;" vertex="1" parent="Jz8gkrG2YhVqBwOY9L8W-527">
          <mxGeometry x="60" width="120" height="30" as="geometry" />
        </mxCell>
        <mxCell id="Jz8gkrG2YhVqBwOY9L8W-530" value="" style="shape=partialRectangle;collapsible=0;dropTarget=0;pointerEvents=0;fillColor=none;top=0;left=0;bottom=0;right=0;points=[[0,0.5],[1,0.5]];portConstraint=eastwest;" vertex="1" parent="Jz8gkrG2YhVqBwOY9L8W-523">
          <mxGeometry y="90" width="180" height="30" as="geometry" />
        </mxCell>
        <mxCell id="Jz8gkrG2YhVqBwOY9L8W-531" value="" style="shape=partialRectangle;connectable=0;fillColor=none;top=0;left=0;bottom=0;right=0;editable=1;overflow=hidden;" vertex="1" parent="Jz8gkrG2YhVqBwOY9L8W-530">
          <mxGeometry width="60" height="30" as="geometry" />
        </mxCell>
        <mxCell id="Jz8gkrG2YhVqBwOY9L8W-532" value="Row 3" style="shape=partialRectangle;connectable=0;fillColor=none;top=0;left=0;bottom=0;right=0;align=left;spacingLeft=6;overflow=hidden;" vertex="1" parent="Jz8gkrG2YhVqBwOY9L8W-530">
          <mxGeometry x="60" width="120" height="30" as="geometry" />
        </mxCell>
        <mxCell id="Jz8gkrG2YhVqBwOY9L8W-533" value="" style="shape=partialRectangle;collapsible=0;dropTarget=0;pointerEvents=0;fillColor=none;top=0;left=0;bottom=0;right=0;points=[[0,0.5],[1,0.5]];portConstraint=eastwest;" vertex="1" parent="Jz8gkrG2YhVqBwOY9L8W-523">
          <mxGeometry y="120" width="180" height="30" as="geometry" />
        </mxCell>
        <mxCell id="Jz8gkrG2YhVqBwOY9L8W-534" value="" style="shape=partialRectangle;connectable=0;fillColor=none;top=0;left=0;bottom=0;right=0;editable=1;overflow=hidden;" vertex="1" parent="Jz8gkrG2YhVqBwOY9L8W-533">
          <mxGeometry width="60" height="30" as="geometry" />
        </mxCell>
        <mxCell id="Jz8gkrG2YhVqBwOY9L8W-535" value="Row 4" style="shape=partialRectangle;connectable=0;fillColor=none;top=0;left=0;bottom=0;right=0;align=left;spacingLeft=6;overflow=hidden;" vertex="1" parent="Jz8gkrG2YhVqBwOY9L8W-533">
          <mxGeometry x="60" width="120" height="30" as="geometry" />
        </mxCell>
        <mxCell id="Jz8gkrG2YhVqBwOY9L8W-536" value="third_party_services" style="shape=table;startSize=30;container=1;collapsible=1;childLayout=tableLayout;fixedRows=1;rowLines=0;fontStyle=1;align=center;resizeLast=1;" vertex="1" parent="1">
          <mxGeometry x="440" y="2180" width="180" height="160" as="geometry" />
        </mxCell>
        <mxCell id="Jz8gkrG2YhVqBwOY9L8W-537" value="" style="shape=partialRectangle;collapsible=0;dropTarget=0;pointerEvents=0;fillColor=none;top=0;left=0;bottom=0;right=0;points=[[0,0.5],[1,0.5]];portConstraint=eastwest;" vertex="1" parent="Jz8gkrG2YhVqBwOY9L8W-536">
          <mxGeometry y="30" width="180" height="30" as="geometry" />
        </mxCell>
        <mxCell id="Jz8gkrG2YhVqBwOY9L8W-538" value="PK,FK1" style="shape=partialRectangle;connectable=0;fillColor=none;top=0;left=0;bottom=0;right=0;fontStyle=1;overflow=hidden;" vertex="1" parent="Jz8gkrG2YhVqBwOY9L8W-537">
          <mxGeometry width="60" height="30" as="geometry" />
        </mxCell>
        <mxCell id="Jz8gkrG2YhVqBwOY9L8W-539" value="Row 1" style="shape=partialRectangle;connectable=0;fillColor=none;top=0;left=0;bottom=0;right=0;align=left;spacingLeft=6;fontStyle=5;overflow=hidden;" vertex="1" parent="Jz8gkrG2YhVqBwOY9L8W-537">
          <mxGeometry x="60" width="120" height="30" as="geometry" />
        </mxCell>
        <mxCell id="Jz8gkrG2YhVqBwOY9L8W-540" value="" style="shape=partialRectangle;collapsible=0;dropTarget=0;pointerEvents=0;fillColor=none;top=0;left=0;bottom=1;right=0;points=[[0,0.5],[1,0.5]];portConstraint=eastwest;" vertex="1" parent="Jz8gkrG2YhVqBwOY9L8W-536">
          <mxGeometry y="60" width="180" height="30" as="geometry" />
        </mxCell>
        <mxCell id="Jz8gkrG2YhVqBwOY9L8W-541" value="PK,FK2" style="shape=partialRectangle;connectable=0;fillColor=none;top=0;left=0;bottom=0;right=0;fontStyle=1;overflow=hidden;" vertex="1" parent="Jz8gkrG2YhVqBwOY9L8W-540">
          <mxGeometry width="60" height="30" as="geometry" />
        </mxCell>
        <mxCell id="Jz8gkrG2YhVqBwOY9L8W-542" value="Row 2" style="shape=partialRectangle;connectable=0;fillColor=none;top=0;left=0;bottom=0;right=0;align=left;spacingLeft=6;fontStyle=5;overflow=hidden;" vertex="1" parent="Jz8gkrG2YhVqBwOY9L8W-540">
          <mxGeometry x="60" width="120" height="30" as="geometry" />
        </mxCell>
        <mxCell id="Jz8gkrG2YhVqBwOY9L8W-543" value="" style="shape=partialRectangle;collapsible=0;dropTarget=0;pointerEvents=0;fillColor=none;top=0;left=0;bottom=0;right=0;points=[[0,0.5],[1,0.5]];portConstraint=eastwest;" vertex="1" parent="Jz8gkrG2YhVqBwOY9L8W-536">
          <mxGeometry y="90" width="180" height="30" as="geometry" />
        </mxCell>
        <mxCell id="Jz8gkrG2YhVqBwOY9L8W-544" value="" style="shape=partialRectangle;connectable=0;fillColor=none;top=0;left=0;bottom=0;right=0;editable=1;overflow=hidden;" vertex="1" parent="Jz8gkrG2YhVqBwOY9L8W-543">
          <mxGeometry width="60" height="30" as="geometry" />
        </mxCell>
        <mxCell id="Jz8gkrG2YhVqBwOY9L8W-545" value="Row 3" style="shape=partialRectangle;connectable=0;fillColor=none;top=0;left=0;bottom=0;right=0;align=left;spacingLeft=6;overflow=hidden;" vertex="1" parent="Jz8gkrG2YhVqBwOY9L8W-543">
          <mxGeometry x="60" width="120" height="30" as="geometry" />
        </mxCell>
        <mxCell id="Jz8gkrG2YhVqBwOY9L8W-546" value="" style="shape=partialRectangle;collapsible=0;dropTarget=0;pointerEvents=0;fillColor=none;top=0;left=0;bottom=0;right=0;points=[[0,0.5],[1,0.5]];portConstraint=eastwest;" vertex="1" parent="Jz8gkrG2YhVqBwOY9L8W-536">
          <mxGeometry y="120" width="180" height="30" as="geometry" />
        </mxCell>
        <mxCell id="Jz8gkrG2YhVqBwOY9L8W-547" value="" style="shape=partialRectangle;connectable=0;fillColor=none;top=0;left=0;bottom=0;right=0;editable=1;overflow=hidden;" vertex="1" parent="Jz8gkrG2YhVqBwOY9L8W-546">
          <mxGeometry width="60" height="30" as="geometry" />
        </mxCell>
        <mxCell id="Jz8gkrG2YhVqBwOY9L8W-548" value="Row 4" style="shape=partialRectangle;connectable=0;fillColor=none;top=0;left=0;bottom=0;right=0;align=left;spacingLeft=6;overflow=hidden;" vertex="1" parent="Jz8gkrG2YhVqBwOY9L8W-546">
          <mxGeometry x="60" width="120" height="30" as="geometry" />
        </mxCell>
        <mxCell id="Jz8gkrG2YhVqBwOY9L8W-549" value="Users" style="shape=table;startSize=30;container=1;collapsible=1;childLayout=tableLayout;fixedRows=1;rowLines=0;fontStyle=1;align=center;resizeLast=1;" vertex="1" parent="1">
          <mxGeometry x="730" y="2190" width="180" height="160" as="geometry" />
        </mxCell>
        <mxCell id="Jz8gkrG2YhVqBwOY9L8W-550" value="" style="shape=partialRectangle;collapsible=0;dropTarget=0;pointerEvents=0;fillColor=none;top=0;left=0;bottom=0;right=0;points=[[0,0.5],[1,0.5]];portConstraint=eastwest;" vertex="1" parent="Jz8gkrG2YhVqBwOY9L8W-549">
          <mxGeometry y="30" width="180" height="30" as="geometry" />
        </mxCell>
        <mxCell id="Jz8gkrG2YhVqBwOY9L8W-551" value="PK,FK1" style="shape=partialRectangle;connectable=0;fillColor=none;top=0;left=0;bottom=0;right=0;fontStyle=1;overflow=hidden;" vertex="1" parent="Jz8gkrG2YhVqBwOY9L8W-550">
          <mxGeometry width="60" height="30" as="geometry" />
        </mxCell>
        <mxCell id="Jz8gkrG2YhVqBwOY9L8W-552" value="Row 1" style="shape=partialRectangle;connectable=0;fillColor=none;top=0;left=0;bottom=0;right=0;align=left;spacingLeft=6;fontStyle=5;overflow=hidden;" vertex="1" parent="Jz8gkrG2YhVqBwOY9L8W-550">
          <mxGeometry x="60" width="120" height="30" as="geometry" />
        </mxCell>
        <mxCell id="Jz8gkrG2YhVqBwOY9L8W-553" value="" style="shape=partialRectangle;collapsible=0;dropTarget=0;pointerEvents=0;fillColor=none;top=0;left=0;bottom=1;right=0;points=[[0,0.5],[1,0.5]];portConstraint=eastwest;" vertex="1" parent="Jz8gkrG2YhVqBwOY9L8W-549">
          <mxGeometry y="60" width="180" height="30" as="geometry" />
        </mxCell>
        <mxCell id="Jz8gkrG2YhVqBwOY9L8W-554" value="PK,FK2" style="shape=partialRectangle;connectable=0;fillColor=none;top=0;left=0;bottom=0;right=0;fontStyle=1;overflow=hidden;" vertex="1" parent="Jz8gkrG2YhVqBwOY9L8W-553">
          <mxGeometry width="60" height="30" as="geometry" />
        </mxCell>
        <mxCell id="Jz8gkrG2YhVqBwOY9L8W-555" value="Row 2" style="shape=partialRectangle;connectable=0;fillColor=none;top=0;left=0;bottom=0;right=0;align=left;spacingLeft=6;fontStyle=5;overflow=hidden;" vertex="1" parent="Jz8gkrG2YhVqBwOY9L8W-553">
          <mxGeometry x="60" width="120" height="30" as="geometry" />
        </mxCell>
        <mxCell id="Jz8gkrG2YhVqBwOY9L8W-556" value="" style="shape=partialRectangle;collapsible=0;dropTarget=0;pointerEvents=0;fillColor=none;top=0;left=0;bottom=0;right=0;points=[[0,0.5],[1,0.5]];portConstraint=eastwest;" vertex="1" parent="Jz8gkrG2YhVqBwOY9L8W-549">
          <mxGeometry y="90" width="180" height="30" as="geometry" />
        </mxCell>
        <mxCell id="Jz8gkrG2YhVqBwOY9L8W-557" value="" style="shape=partialRectangle;connectable=0;fillColor=none;top=0;left=0;bottom=0;right=0;editable=1;overflow=hidden;" vertex="1" parent="Jz8gkrG2YhVqBwOY9L8W-556">
          <mxGeometry width="60" height="30" as="geometry" />
        </mxCell>
        <mxCell id="Jz8gkrG2YhVqBwOY9L8W-558" value="login_status: Y, N" style="shape=partialRectangle;connectable=0;fillColor=none;top=0;left=0;bottom=0;right=0;align=left;spacingLeft=6;overflow=hidden;" vertex="1" parent="Jz8gkrG2YhVqBwOY9L8W-556">
          <mxGeometry x="60" width="120" height="30" as="geometry" />
        </mxCell>
        <mxCell id="Jz8gkrG2YhVqBwOY9L8W-559" value="" style="shape=partialRectangle;collapsible=0;dropTarget=0;pointerEvents=0;fillColor=none;top=0;left=0;bottom=0;right=0;points=[[0,0.5],[1,0.5]];portConstraint=eastwest;" vertex="1" parent="Jz8gkrG2YhVqBwOY9L8W-549">
          <mxGeometry y="120" width="180" height="30" as="geometry" />
        </mxCell>
        <mxCell id="Jz8gkrG2YhVqBwOY9L8W-560" value="" style="shape=partialRectangle;connectable=0;fillColor=none;top=0;left=0;bottom=0;right=0;editable=1;overflow=hidden;" vertex="1" parent="Jz8gkrG2YhVqBwOY9L8W-559">
          <mxGeometry width="60" height="30" as="geometry" />
        </mxCell>
        <mxCell id="Jz8gkrG2YhVqBwOY9L8W-561" value="Row 4" style="shape=partialRectangle;connectable=0;fillColor=none;top=0;left=0;bottom=0;right=0;align=left;spacingLeft=6;overflow=hidden;" vertex="1" parent="Jz8gkrG2YhVqBwOY9L8W-559">
          <mxGeometry x="60" width="120" height="30" as="geometry" />
        </mxCell>
        <mxCell id="Jz8gkrG2YhVqBwOY9L8W-562" value="Web_menus" style="shape=table;startSize=30;container=1;collapsible=1;childLayout=tableLayout;fixedRows=1;rowLines=0;fontStyle=1;align=center;resizeLast=1;" vertex="1" parent="1">
          <mxGeometry x="190" y="2200" width="180" height="160" as="geometry" />
        </mxCell>
        <mxCell id="Jz8gkrG2YhVqBwOY9L8W-563" value="" style="shape=partialRectangle;collapsible=0;dropTarget=0;pointerEvents=0;fillColor=none;top=0;left=0;bottom=0;right=0;points=[[0,0.5],[1,0.5]];portConstraint=eastwest;" vertex="1" parent="Jz8gkrG2YhVqBwOY9L8W-562">
          <mxGeometry y="30" width="180" height="30" as="geometry" />
        </mxCell>
        <mxCell id="Jz8gkrG2YhVqBwOY9L8W-564" value="PK,FK1" style="shape=partialRectangle;connectable=0;fillColor=none;top=0;left=0;bottom=0;right=0;fontStyle=1;overflow=hidden;" vertex="1" parent="Jz8gkrG2YhVqBwOY9L8W-563">
          <mxGeometry width="60" height="30" as="geometry" />
        </mxCell>
        <mxCell id="Jz8gkrG2YhVqBwOY9L8W-565" value="Row 1" style="shape=partialRectangle;connectable=0;fillColor=none;top=0;left=0;bottom=0;right=0;align=left;spacingLeft=6;fontStyle=5;overflow=hidden;" vertex="1" parent="Jz8gkrG2YhVqBwOY9L8W-563">
          <mxGeometry x="60" width="120" height="30" as="geometry" />
        </mxCell>
        <mxCell id="Jz8gkrG2YhVqBwOY9L8W-566" value="" style="shape=partialRectangle;collapsible=0;dropTarget=0;pointerEvents=0;fillColor=none;top=0;left=0;bottom=1;right=0;points=[[0,0.5],[1,0.5]];portConstraint=eastwest;" vertex="1" parent="Jz8gkrG2YhVqBwOY9L8W-562">
          <mxGeometry y="60" width="180" height="30" as="geometry" />
        </mxCell>
        <mxCell id="Jz8gkrG2YhVqBwOY9L8W-567" value="PK,FK2" style="shape=partialRectangle;connectable=0;fillColor=none;top=0;left=0;bottom=0;right=0;fontStyle=1;overflow=hidden;" vertex="1" parent="Jz8gkrG2YhVqBwOY9L8W-566">
          <mxGeometry width="60" height="30" as="geometry" />
        </mxCell>
        <mxCell id="Jz8gkrG2YhVqBwOY9L8W-568" value="Row 2" style="shape=partialRectangle;connectable=0;fillColor=none;top=0;left=0;bottom=0;right=0;align=left;spacingLeft=6;fontStyle=5;overflow=hidden;" vertex="1" parent="Jz8gkrG2YhVqBwOY9L8W-566">
          <mxGeometry x="60" width="120" height="30" as="geometry" />
        </mxCell>
        <mxCell id="Jz8gkrG2YhVqBwOY9L8W-569" value="" style="shape=partialRectangle;collapsible=0;dropTarget=0;pointerEvents=0;fillColor=none;top=0;left=0;bottom=0;right=0;points=[[0,0.5],[1,0.5]];portConstraint=eastwest;" vertex="1" parent="Jz8gkrG2YhVqBwOY9L8W-562">
          <mxGeometry y="90" width="180" height="30" as="geometry" />
        </mxCell>
        <mxCell id="Jz8gkrG2YhVqBwOY9L8W-570" value="" style="shape=partialRectangle;connectable=0;fillColor=none;top=0;left=0;bottom=0;right=0;editable=1;overflow=hidden;" vertex="1" parent="Jz8gkrG2YhVqBwOY9L8W-569">
          <mxGeometry width="60" height="30" as="geometry" />
        </mxCell>
        <mxCell id="Jz8gkrG2YhVqBwOY9L8W-571" value="Row 3" style="shape=partialRectangle;connectable=0;fillColor=none;top=0;left=0;bottom=0;right=0;align=left;spacingLeft=6;overflow=hidden;" vertex="1" parent="Jz8gkrG2YhVqBwOY9L8W-569">
          <mxGeometry x="60" width="120" height="30" as="geometry" />
        </mxCell>
        <mxCell id="Jz8gkrG2YhVqBwOY9L8W-572" value="" style="shape=partialRectangle;collapsible=0;dropTarget=0;pointerEvents=0;fillColor=none;top=0;left=0;bottom=0;right=0;points=[[0,0.5],[1,0.5]];portConstraint=eastwest;" vertex="1" parent="Jz8gkrG2YhVqBwOY9L8W-562">
          <mxGeometry y="120" width="180" height="30" as="geometry" />
        </mxCell>
        <mxCell id="Jz8gkrG2YhVqBwOY9L8W-573" value="" style="shape=partialRectangle;connectable=0;fillColor=none;top=0;left=0;bottom=0;right=0;editable=1;overflow=hidden;" vertex="1" parent="Jz8gkrG2YhVqBwOY9L8W-572">
          <mxGeometry width="60" height="30" as="geometry" />
        </mxCell>
        <mxCell id="Jz8gkrG2YhVqBwOY9L8W-574" value="Row 4" style="shape=partialRectangle;connectable=0;fillColor=none;top=0;left=0;bottom=0;right=0;align=left;spacingLeft=6;overflow=hidden;" vertex="1" parent="Jz8gkrG2YhVqBwOY9L8W-572">
          <mxGeometry x="60" width="120" height="30" as="geometry" />
        </mxCell>
        <mxCell id="Jz8gkrG2YhVqBwOY9L8W-575" value="tasks" style="shape=table;startSize=30;container=1;collapsible=1;childLayout=tableLayout;fixedRows=1;rowLines=0;fontStyle=1;align=center;resizeLast=1;" vertex="1" parent="1">
          <mxGeometry x="190" y="2400" width="180" height="160" as="geometry" />
        </mxCell>
        <mxCell id="Jz8gkrG2YhVqBwOY9L8W-576" value="" style="shape=partialRectangle;collapsible=0;dropTarget=0;pointerEvents=0;fillColor=none;top=0;left=0;bottom=0;right=0;points=[[0,0.5],[1,0.5]];portConstraint=eastwest;" vertex="1" parent="Jz8gkrG2YhVqBwOY9L8W-575">
          <mxGeometry y="30" width="180" height="30" as="geometry" />
        </mxCell>
        <mxCell id="Jz8gkrG2YhVqBwOY9L8W-577" value="PK,FK1" style="shape=partialRectangle;connectable=0;fillColor=none;top=0;left=0;bottom=0;right=0;fontStyle=1;overflow=hidden;" vertex="1" parent="Jz8gkrG2YhVqBwOY9L8W-576">
          <mxGeometry width="60" height="30" as="geometry" />
        </mxCell>
        <mxCell id="Jz8gkrG2YhVqBwOY9L8W-578" value="Row 1" style="shape=partialRectangle;connectable=0;fillColor=none;top=0;left=0;bottom=0;right=0;align=left;spacingLeft=6;fontStyle=5;overflow=hidden;" vertex="1" parent="Jz8gkrG2YhVqBwOY9L8W-576">
          <mxGeometry x="60" width="120" height="30" as="geometry" />
        </mxCell>
        <mxCell id="Jz8gkrG2YhVqBwOY9L8W-579" value="" style="shape=partialRectangle;collapsible=0;dropTarget=0;pointerEvents=0;fillColor=none;top=0;left=0;bottom=1;right=0;points=[[0,0.5],[1,0.5]];portConstraint=eastwest;" vertex="1" parent="Jz8gkrG2YhVqBwOY9L8W-575">
          <mxGeometry y="60" width="180" height="30" as="geometry" />
        </mxCell>
        <mxCell id="Jz8gkrG2YhVqBwOY9L8W-580" value="PK,FK2" style="shape=partialRectangle;connectable=0;fillColor=none;top=0;left=0;bottom=0;right=0;fontStyle=1;overflow=hidden;" vertex="1" parent="Jz8gkrG2YhVqBwOY9L8W-579">
          <mxGeometry width="60" height="30" as="geometry" />
        </mxCell>
        <mxCell id="Jz8gkrG2YhVqBwOY9L8W-581" value="Row 2" style="shape=partialRectangle;connectable=0;fillColor=none;top=0;left=0;bottom=0;right=0;align=left;spacingLeft=6;fontStyle=5;overflow=hidden;" vertex="1" parent="Jz8gkrG2YhVqBwOY9L8W-579">
          <mxGeometry x="60" width="120" height="30" as="geometry" />
        </mxCell>
        <mxCell id="Jz8gkrG2YhVqBwOY9L8W-582" value="" style="shape=partialRectangle;collapsible=0;dropTarget=0;pointerEvents=0;fillColor=none;top=0;left=0;bottom=0;right=0;points=[[0,0.5],[1,0.5]];portConstraint=eastwest;" vertex="1" parent="Jz8gkrG2YhVqBwOY9L8W-575">
          <mxGeometry y="90" width="180" height="30" as="geometry" />
        </mxCell>
        <mxCell id="Jz8gkrG2YhVqBwOY9L8W-583" value="" style="shape=partialRectangle;connectable=0;fillColor=none;top=0;left=0;bottom=0;right=0;editable=1;overflow=hidden;" vertex="1" parent="Jz8gkrG2YhVqBwOY9L8W-582">
          <mxGeometry width="60" height="30" as="geometry" />
        </mxCell>
        <mxCell id="Jz8gkrG2YhVqBwOY9L8W-584" value="Row 3" style="shape=partialRectangle;connectable=0;fillColor=none;top=0;left=0;bottom=0;right=0;align=left;spacingLeft=6;overflow=hidden;" vertex="1" parent="Jz8gkrG2YhVqBwOY9L8W-582">
          <mxGeometry x="60" width="120" height="30" as="geometry" />
        </mxCell>
        <mxCell id="Jz8gkrG2YhVqBwOY9L8W-585" value="" style="shape=partialRectangle;collapsible=0;dropTarget=0;pointerEvents=0;fillColor=none;top=0;left=0;bottom=0;right=0;points=[[0,0.5],[1,0.5]];portConstraint=eastwest;" vertex="1" parent="Jz8gkrG2YhVqBwOY9L8W-575">
          <mxGeometry y="120" width="180" height="30" as="geometry" />
        </mxCell>
        <mxCell id="Jz8gkrG2YhVqBwOY9L8W-586" value="" style="shape=partialRectangle;connectable=0;fillColor=none;top=0;left=0;bottom=0;right=0;editable=1;overflow=hidden;" vertex="1" parent="Jz8gkrG2YhVqBwOY9L8W-585">
          <mxGeometry width="60" height="30" as="geometry" />
        </mxCell>
        <mxCell id="Jz8gkrG2YhVqBwOY9L8W-587" value="Row 4" style="shape=partialRectangle;connectable=0;fillColor=none;top=0;left=0;bottom=0;right=0;align=left;spacingLeft=6;overflow=hidden;" vertex="1" parent="Jz8gkrG2YhVqBwOY9L8W-585">
          <mxGeometry x="60" width="120" height="30" as="geometry" />
        </mxCell>
        <mxCell id="Jz8gkrG2YhVqBwOY9L8W-588" value="role_tasks" style="shape=table;startSize=30;container=1;collapsible=1;childLayout=tableLayout;fixedRows=1;rowLines=0;fontStyle=1;align=center;resizeLast=1;" vertex="1" parent="1">
          <mxGeometry x="420" y="2400" width="180" height="160" as="geometry" />
        </mxCell>
        <mxCell id="Jz8gkrG2YhVqBwOY9L8W-589" value="" style="shape=partialRectangle;collapsible=0;dropTarget=0;pointerEvents=0;fillColor=none;top=0;left=0;bottom=0;right=0;points=[[0,0.5],[1,0.5]];portConstraint=eastwest;" vertex="1" parent="Jz8gkrG2YhVqBwOY9L8W-588">
          <mxGeometry y="30" width="180" height="30" as="geometry" />
        </mxCell>
        <mxCell id="Jz8gkrG2YhVqBwOY9L8W-590" value="PK,FK1" style="shape=partialRectangle;connectable=0;fillColor=none;top=0;left=0;bottom=0;right=0;fontStyle=1;overflow=hidden;" vertex="1" parent="Jz8gkrG2YhVqBwOY9L8W-589">
          <mxGeometry width="60" height="30" as="geometry" />
        </mxCell>
        <mxCell id="Jz8gkrG2YhVqBwOY9L8W-591" value="Row 1" style="shape=partialRectangle;connectable=0;fillColor=none;top=0;left=0;bottom=0;right=0;align=left;spacingLeft=6;fontStyle=5;overflow=hidden;" vertex="1" parent="Jz8gkrG2YhVqBwOY9L8W-589">
          <mxGeometry x="60" width="120" height="30" as="geometry" />
        </mxCell>
        <mxCell id="Jz8gkrG2YhVqBwOY9L8W-592" value="" style="shape=partialRectangle;collapsible=0;dropTarget=0;pointerEvents=0;fillColor=none;top=0;left=0;bottom=1;right=0;points=[[0,0.5],[1,0.5]];portConstraint=eastwest;" vertex="1" parent="Jz8gkrG2YhVqBwOY9L8W-588">
          <mxGeometry y="60" width="180" height="30" as="geometry" />
        </mxCell>
        <mxCell id="Jz8gkrG2YhVqBwOY9L8W-593" value="PK,FK2" style="shape=partialRectangle;connectable=0;fillColor=none;top=0;left=0;bottom=0;right=0;fontStyle=1;overflow=hidden;" vertex="1" parent="Jz8gkrG2YhVqBwOY9L8W-592">
          <mxGeometry width="60" height="30" as="geometry" />
        </mxCell>
        <mxCell id="Jz8gkrG2YhVqBwOY9L8W-594" value="Row 2" style="shape=partialRectangle;connectable=0;fillColor=none;top=0;left=0;bottom=0;right=0;align=left;spacingLeft=6;fontStyle=5;overflow=hidden;" vertex="1" parent="Jz8gkrG2YhVqBwOY9L8W-592">
          <mxGeometry x="60" width="120" height="30" as="geometry" />
        </mxCell>
        <mxCell id="Jz8gkrG2YhVqBwOY9L8W-595" value="" style="shape=partialRectangle;collapsible=0;dropTarget=0;pointerEvents=0;fillColor=none;top=0;left=0;bottom=0;right=0;points=[[0,0.5],[1,0.5]];portConstraint=eastwest;" vertex="1" parent="Jz8gkrG2YhVqBwOY9L8W-588">
          <mxGeometry y="90" width="180" height="30" as="geometry" />
        </mxCell>
        <mxCell id="Jz8gkrG2YhVqBwOY9L8W-596" value="" style="shape=partialRectangle;connectable=0;fillColor=none;top=0;left=0;bottom=0;right=0;editable=1;overflow=hidden;" vertex="1" parent="Jz8gkrG2YhVqBwOY9L8W-595">
          <mxGeometry width="60" height="30" as="geometry" />
        </mxCell>
        <mxCell id="Jz8gkrG2YhVqBwOY9L8W-597" value="Row 3" style="shape=partialRectangle;connectable=0;fillColor=none;top=0;left=0;bottom=0;right=0;align=left;spacingLeft=6;overflow=hidden;" vertex="1" parent="Jz8gkrG2YhVqBwOY9L8W-595">
          <mxGeometry x="60" width="120" height="30" as="geometry" />
        </mxCell>
        <mxCell id="Jz8gkrG2YhVqBwOY9L8W-598" value="" style="shape=partialRectangle;collapsible=0;dropTarget=0;pointerEvents=0;fillColor=none;top=0;left=0;bottom=0;right=0;points=[[0,0.5],[1,0.5]];portConstraint=eastwest;" vertex="1" parent="Jz8gkrG2YhVqBwOY9L8W-588">
          <mxGeometry y="120" width="180" height="30" as="geometry" />
        </mxCell>
        <mxCell id="Jz8gkrG2YhVqBwOY9L8W-599" value="" style="shape=partialRectangle;connectable=0;fillColor=none;top=0;left=0;bottom=0;right=0;editable=1;overflow=hidden;" vertex="1" parent="Jz8gkrG2YhVqBwOY9L8W-598">
          <mxGeometry width="60" height="30" as="geometry" />
        </mxCell>
        <mxCell id="Jz8gkrG2YhVqBwOY9L8W-600" value="Row 4" style="shape=partialRectangle;connectable=0;fillColor=none;top=0;left=0;bottom=0;right=0;align=left;spacingLeft=6;overflow=hidden;" vertex="1" parent="Jz8gkrG2YhVqBwOY9L8W-598">
          <mxGeometry x="60" width="120" height="30" as="geometry" />
        </mxCell>
        <mxCell id="Jz8gkrG2YhVqBwOY9L8W-601" value="Trainings" style="shape=table;startSize=30;container=1;collapsible=1;childLayout=tableLayout;fixedRows=1;rowLines=0;fontStyle=1;align=center;resizeLast=1;" vertex="1" parent="1">
          <mxGeometry x="660" y="2400" width="180" height="160" as="geometry" />
        </mxCell>
        <mxCell id="Jz8gkrG2YhVqBwOY9L8W-602" value="" style="shape=partialRectangle;collapsible=0;dropTarget=0;pointerEvents=0;fillColor=none;top=0;left=0;bottom=0;right=0;points=[[0,0.5],[1,0.5]];portConstraint=eastwest;" vertex="1" parent="Jz8gkrG2YhVqBwOY9L8W-601">
          <mxGeometry y="30" width="180" height="30" as="geometry" />
        </mxCell>
        <mxCell id="Jz8gkrG2YhVqBwOY9L8W-603" value="PK,FK1" style="shape=partialRectangle;connectable=0;fillColor=none;top=0;left=0;bottom=0;right=0;fontStyle=1;overflow=hidden;" vertex="1" parent="Jz8gkrG2YhVqBwOY9L8W-602">
          <mxGeometry width="60" height="30" as="geometry" />
        </mxCell>
        <mxCell id="Jz8gkrG2YhVqBwOY9L8W-604" value="Row 1" style="shape=partialRectangle;connectable=0;fillColor=none;top=0;left=0;bottom=0;right=0;align=left;spacingLeft=6;fontStyle=5;overflow=hidden;" vertex="1" parent="Jz8gkrG2YhVqBwOY9L8W-602">
          <mxGeometry x="60" width="120" height="30" as="geometry" />
        </mxCell>
        <mxCell id="Jz8gkrG2YhVqBwOY9L8W-605" value="" style="shape=partialRectangle;collapsible=0;dropTarget=0;pointerEvents=0;fillColor=none;top=0;left=0;bottom=1;right=0;points=[[0,0.5],[1,0.5]];portConstraint=eastwest;" vertex="1" parent="Jz8gkrG2YhVqBwOY9L8W-601">
          <mxGeometry y="60" width="180" height="30" as="geometry" />
        </mxCell>
        <mxCell id="Jz8gkrG2YhVqBwOY9L8W-606" value="PK,FK2" style="shape=partialRectangle;connectable=0;fillColor=none;top=0;left=0;bottom=0;right=0;fontStyle=1;overflow=hidden;" vertex="1" parent="Jz8gkrG2YhVqBwOY9L8W-605">
          <mxGeometry width="60" height="30" as="geometry" />
        </mxCell>
        <mxCell id="Jz8gkrG2YhVqBwOY9L8W-607" value="Row 2" style="shape=partialRectangle;connectable=0;fillColor=none;top=0;left=0;bottom=0;right=0;align=left;spacingLeft=6;fontStyle=5;overflow=hidden;" vertex="1" parent="Jz8gkrG2YhVqBwOY9L8W-605">
          <mxGeometry x="60" width="120" height="30" as="geometry" />
        </mxCell>
        <mxCell id="Jz8gkrG2YhVqBwOY9L8W-608" value="" style="shape=partialRectangle;collapsible=0;dropTarget=0;pointerEvents=0;fillColor=none;top=0;left=0;bottom=0;right=0;points=[[0,0.5],[1,0.5]];portConstraint=eastwest;" vertex="1" parent="Jz8gkrG2YhVqBwOY9L8W-601">
          <mxGeometry y="90" width="180" height="30" as="geometry" />
        </mxCell>
        <mxCell id="Jz8gkrG2YhVqBwOY9L8W-609" value="" style="shape=partialRectangle;connectable=0;fillColor=none;top=0;left=0;bottom=0;right=0;editable=1;overflow=hidden;" vertex="1" parent="Jz8gkrG2YhVqBwOY9L8W-608">
          <mxGeometry width="60" height="30" as="geometry" />
        </mxCell>
        <mxCell id="Jz8gkrG2YhVqBwOY9L8W-610" value="Row 3" style="shape=partialRectangle;connectable=0;fillColor=none;top=0;left=0;bottom=0;right=0;align=left;spacingLeft=6;overflow=hidden;" vertex="1" parent="Jz8gkrG2YhVqBwOY9L8W-608">
          <mxGeometry x="60" width="120" height="30" as="geometry" />
        </mxCell>
        <mxCell id="Jz8gkrG2YhVqBwOY9L8W-611" value="" style="shape=partialRectangle;collapsible=0;dropTarget=0;pointerEvents=0;fillColor=none;top=0;left=0;bottom=0;right=0;points=[[0,0.5],[1,0.5]];portConstraint=eastwest;" vertex="1" parent="Jz8gkrG2YhVqBwOY9L8W-601">
          <mxGeometry y="120" width="180" height="30" as="geometry" />
        </mxCell>
        <mxCell id="Jz8gkrG2YhVqBwOY9L8W-612" value="" style="shape=partialRectangle;connectable=0;fillColor=none;top=0;left=0;bottom=0;right=0;editable=1;overflow=hidden;" vertex="1" parent="Jz8gkrG2YhVqBwOY9L8W-611">
          <mxGeometry width="60" height="30" as="geometry" />
        </mxCell>
        <mxCell id="Jz8gkrG2YhVqBwOY9L8W-613" value="Row 4" style="shape=partialRectangle;connectable=0;fillColor=none;top=0;left=0;bottom=0;right=0;align=left;spacingLeft=6;overflow=hidden;" vertex="1" parent="Jz8gkrG2YhVqBwOY9L8W-611">
          <mxGeometry x="60" width="120" height="30" as="geometry" />
        </mxCell>
        <mxCell id="Jz8gkrG2YhVqBwOY9L8W-614" value="Topics" style="shape=table;startSize=30;container=1;collapsible=1;childLayout=tableLayout;fixedRows=1;rowLines=0;fontStyle=1;align=center;resizeLast=1;" vertex="1" parent="1">
          <mxGeometry x="870" y="2400" width="180" height="160" as="geometry" />
        </mxCell>
        <mxCell id="Jz8gkrG2YhVqBwOY9L8W-615" value="" style="shape=partialRectangle;collapsible=0;dropTarget=0;pointerEvents=0;fillColor=none;top=0;left=0;bottom=0;right=0;points=[[0,0.5],[1,0.5]];portConstraint=eastwest;" vertex="1" parent="Jz8gkrG2YhVqBwOY9L8W-614">
          <mxGeometry y="30" width="180" height="30" as="geometry" />
        </mxCell>
        <mxCell id="Jz8gkrG2YhVqBwOY9L8W-616" value="PK,FK1" style="shape=partialRectangle;connectable=0;fillColor=none;top=0;left=0;bottom=0;right=0;fontStyle=1;overflow=hidden;" vertex="1" parent="Jz8gkrG2YhVqBwOY9L8W-615">
          <mxGeometry width="60" height="30" as="geometry" />
        </mxCell>
        <mxCell id="Jz8gkrG2YhVqBwOY9L8W-617" value="Row 1" style="shape=partialRectangle;connectable=0;fillColor=none;top=0;left=0;bottom=0;right=0;align=left;spacingLeft=6;fontStyle=5;overflow=hidden;" vertex="1" parent="Jz8gkrG2YhVqBwOY9L8W-615">
          <mxGeometry x="60" width="120" height="30" as="geometry" />
        </mxCell>
        <mxCell id="Jz8gkrG2YhVqBwOY9L8W-618" value="" style="shape=partialRectangle;collapsible=0;dropTarget=0;pointerEvents=0;fillColor=none;top=0;left=0;bottom=1;right=0;points=[[0,0.5],[1,0.5]];portConstraint=eastwest;" vertex="1" parent="Jz8gkrG2YhVqBwOY9L8W-614">
          <mxGeometry y="60" width="180" height="30" as="geometry" />
        </mxCell>
        <mxCell id="Jz8gkrG2YhVqBwOY9L8W-619" value="PK,FK2" style="shape=partialRectangle;connectable=0;fillColor=none;top=0;left=0;bottom=0;right=0;fontStyle=1;overflow=hidden;" vertex="1" parent="Jz8gkrG2YhVqBwOY9L8W-618">
          <mxGeometry width="60" height="30" as="geometry" />
        </mxCell>
        <mxCell id="Jz8gkrG2YhVqBwOY9L8W-620" value="Row 2" style="shape=partialRectangle;connectable=0;fillColor=none;top=0;left=0;bottom=0;right=0;align=left;spacingLeft=6;fontStyle=5;overflow=hidden;" vertex="1" parent="Jz8gkrG2YhVqBwOY9L8W-618">
          <mxGeometry x="60" width="120" height="30" as="geometry" />
        </mxCell>
        <mxCell id="Jz8gkrG2YhVqBwOY9L8W-621" value="" style="shape=partialRectangle;collapsible=0;dropTarget=0;pointerEvents=0;fillColor=none;top=0;left=0;bottom=0;right=0;points=[[0,0.5],[1,0.5]];portConstraint=eastwest;" vertex="1" parent="Jz8gkrG2YhVqBwOY9L8W-614">
          <mxGeometry y="90" width="180" height="30" as="geometry" />
        </mxCell>
        <mxCell id="Jz8gkrG2YhVqBwOY9L8W-622" value="" style="shape=partialRectangle;connectable=0;fillColor=none;top=0;left=0;bottom=0;right=0;editable=1;overflow=hidden;" vertex="1" parent="Jz8gkrG2YhVqBwOY9L8W-621">
          <mxGeometry width="60" height="30" as="geometry" />
        </mxCell>
        <mxCell id="Jz8gkrG2YhVqBwOY9L8W-623" value="Row 3" style="shape=partialRectangle;connectable=0;fillColor=none;top=0;left=0;bottom=0;right=0;align=left;spacingLeft=6;overflow=hidden;" vertex="1" parent="Jz8gkrG2YhVqBwOY9L8W-621">
          <mxGeometry x="60" width="120" height="30" as="geometry" />
        </mxCell>
        <mxCell id="Jz8gkrG2YhVqBwOY9L8W-624" value="" style="shape=partialRectangle;collapsible=0;dropTarget=0;pointerEvents=0;fillColor=none;top=0;left=0;bottom=0;right=0;points=[[0,0.5],[1,0.5]];portConstraint=eastwest;" vertex="1" parent="Jz8gkrG2YhVqBwOY9L8W-614">
          <mxGeometry y="120" width="180" height="30" as="geometry" />
        </mxCell>
        <mxCell id="Jz8gkrG2YhVqBwOY9L8W-625" value="" style="shape=partialRectangle;connectable=0;fillColor=none;top=0;left=0;bottom=0;right=0;editable=1;overflow=hidden;" vertex="1" parent="Jz8gkrG2YhVqBwOY9L8W-624">
          <mxGeometry width="60" height="30" as="geometry" />
        </mxCell>
        <mxCell id="Jz8gkrG2YhVqBwOY9L8W-626" value="Row 4" style="shape=partialRectangle;connectable=0;fillColor=none;top=0;left=0;bottom=0;right=0;align=left;spacingLeft=6;overflow=hidden;" vertex="1" parent="Jz8gkrG2YhVqBwOY9L8W-624">
          <mxGeometry x="60" width="120" height="30" as="geometry" />
        </mxCell>
        <mxCell id="Jz8gkrG2YhVqBwOY9L8W-627" value="Tenants" style="shape=table;startSize=30;container=1;collapsible=1;childLayout=tableLayout;fixedRows=1;rowLines=0;fontStyle=1;align=center;resizeLast=1;" vertex="1" parent="1">
          <mxGeometry x="200" y="2600" width="180" height="160" as="geometry" />
        </mxCell>
        <mxCell id="Jz8gkrG2YhVqBwOY9L8W-628" value="" style="shape=partialRectangle;collapsible=0;dropTarget=0;pointerEvents=0;fillColor=none;top=0;left=0;bottom=0;right=0;points=[[0,0.5],[1,0.5]];portConstraint=eastwest;" vertex="1" parent="Jz8gkrG2YhVqBwOY9L8W-627">
          <mxGeometry y="30" width="180" height="30" as="geometry" />
        </mxCell>
        <mxCell id="Jz8gkrG2YhVqBwOY9L8W-629" value="PK,FK1" style="shape=partialRectangle;connectable=0;fillColor=none;top=0;left=0;bottom=0;right=0;fontStyle=1;overflow=hidden;" vertex="1" parent="Jz8gkrG2YhVqBwOY9L8W-628">
          <mxGeometry width="60" height="30" as="geometry" />
        </mxCell>
        <mxCell id="Jz8gkrG2YhVqBwOY9L8W-630" value="Row 1" style="shape=partialRectangle;connectable=0;fillColor=none;top=0;left=0;bottom=0;right=0;align=left;spacingLeft=6;fontStyle=5;overflow=hidden;" vertex="1" parent="Jz8gkrG2YhVqBwOY9L8W-628">
          <mxGeometry x="60" width="120" height="30" as="geometry" />
        </mxCell>
        <mxCell id="Jz8gkrG2YhVqBwOY9L8W-631" value="" style="shape=partialRectangle;collapsible=0;dropTarget=0;pointerEvents=0;fillColor=none;top=0;left=0;bottom=1;right=0;points=[[0,0.5],[1,0.5]];portConstraint=eastwest;" vertex="1" parent="Jz8gkrG2YhVqBwOY9L8W-627">
          <mxGeometry y="60" width="180" height="30" as="geometry" />
        </mxCell>
        <mxCell id="Jz8gkrG2YhVqBwOY9L8W-632" value="PK,FK2" style="shape=partialRectangle;connectable=0;fillColor=none;top=0;left=0;bottom=0;right=0;fontStyle=1;overflow=hidden;" vertex="1" parent="Jz8gkrG2YhVqBwOY9L8W-631">
          <mxGeometry width="60" height="30" as="geometry" />
        </mxCell>
        <mxCell id="Jz8gkrG2YhVqBwOY9L8W-633" value="Row 2" style="shape=partialRectangle;connectable=0;fillColor=none;top=0;left=0;bottom=0;right=0;align=left;spacingLeft=6;fontStyle=5;overflow=hidden;" vertex="1" parent="Jz8gkrG2YhVqBwOY9L8W-631">
          <mxGeometry x="60" width="120" height="30" as="geometry" />
        </mxCell>
        <mxCell id="Jz8gkrG2YhVqBwOY9L8W-634" value="" style="shape=partialRectangle;collapsible=0;dropTarget=0;pointerEvents=0;fillColor=none;top=0;left=0;bottom=0;right=0;points=[[0,0.5],[1,0.5]];portConstraint=eastwest;" vertex="1" parent="Jz8gkrG2YhVqBwOY9L8W-627">
          <mxGeometry y="90" width="180" height="30" as="geometry" />
        </mxCell>
        <mxCell id="Jz8gkrG2YhVqBwOY9L8W-635" value="" style="shape=partialRectangle;connectable=0;fillColor=none;top=0;left=0;bottom=0;right=0;editable=1;overflow=hidden;" vertex="1" parent="Jz8gkrG2YhVqBwOY9L8W-634">
          <mxGeometry width="60" height="30" as="geometry" />
        </mxCell>
        <mxCell id="Jz8gkrG2YhVqBwOY9L8W-636" value="Row 3" style="shape=partialRectangle;connectable=0;fillColor=none;top=0;left=0;bottom=0;right=0;align=left;spacingLeft=6;overflow=hidden;" vertex="1" parent="Jz8gkrG2YhVqBwOY9L8W-634">
          <mxGeometry x="60" width="120" height="30" as="geometry" />
        </mxCell>
        <mxCell id="Jz8gkrG2YhVqBwOY9L8W-637" value="" style="shape=partialRectangle;collapsible=0;dropTarget=0;pointerEvents=0;fillColor=none;top=0;left=0;bottom=0;right=0;points=[[0,0.5],[1,0.5]];portConstraint=eastwest;" vertex="1" parent="Jz8gkrG2YhVqBwOY9L8W-627">
          <mxGeometry y="120" width="180" height="30" as="geometry" />
        </mxCell>
        <mxCell id="Jz8gkrG2YhVqBwOY9L8W-638" value="" style="shape=partialRectangle;connectable=0;fillColor=none;top=0;left=0;bottom=0;right=0;editable=1;overflow=hidden;" vertex="1" parent="Jz8gkrG2YhVqBwOY9L8W-637">
          <mxGeometry width="60" height="30" as="geometry" />
        </mxCell>
        <mxCell id="Jz8gkrG2YhVqBwOY9L8W-639" value="Row 4" style="shape=partialRectangle;connectable=0;fillColor=none;top=0;left=0;bottom=0;right=0;align=left;spacingLeft=6;overflow=hidden;" vertex="1" parent="Jz8gkrG2YhVqBwOY9L8W-637">
          <mxGeometry x="60" width="120" height="30" as="geometry" />
        </mxCell>
        <mxCell id="Jz8gkrG2YhVqBwOY9L8W-640" value="Payments" style="shape=table;startSize=30;container=1;collapsible=1;childLayout=tableLayout;fixedRows=1;rowLines=0;fontStyle=1;align=center;resizeLast=1;" vertex="1" parent="1">
          <mxGeometry x="420" y="2600" width="180" height="160" as="geometry" />
        </mxCell>
        <mxCell id="Jz8gkrG2YhVqBwOY9L8W-641" value="" style="shape=partialRectangle;collapsible=0;dropTarget=0;pointerEvents=0;fillColor=none;top=0;left=0;bottom=0;right=0;points=[[0,0.5],[1,0.5]];portConstraint=eastwest;" vertex="1" parent="Jz8gkrG2YhVqBwOY9L8W-640">
          <mxGeometry y="30" width="180" height="30" as="geometry" />
        </mxCell>
        <mxCell id="Jz8gkrG2YhVqBwOY9L8W-642" value="PK,FK1" style="shape=partialRectangle;connectable=0;fillColor=none;top=0;left=0;bottom=0;right=0;fontStyle=1;overflow=hidden;" vertex="1" parent="Jz8gkrG2YhVqBwOY9L8W-641">
          <mxGeometry width="60" height="30" as="geometry" />
        </mxCell>
        <mxCell id="Jz8gkrG2YhVqBwOY9L8W-643" value="Row 1" style="shape=partialRectangle;connectable=0;fillColor=none;top=0;left=0;bottom=0;right=0;align=left;spacingLeft=6;fontStyle=5;overflow=hidden;" vertex="1" parent="Jz8gkrG2YhVqBwOY9L8W-641">
          <mxGeometry x="60" width="120" height="30" as="geometry" />
        </mxCell>
        <mxCell id="Jz8gkrG2YhVqBwOY9L8W-644" value="" style="shape=partialRectangle;collapsible=0;dropTarget=0;pointerEvents=0;fillColor=none;top=0;left=0;bottom=1;right=0;points=[[0,0.5],[1,0.5]];portConstraint=eastwest;" vertex="1" parent="Jz8gkrG2YhVqBwOY9L8W-640">
          <mxGeometry y="60" width="180" height="30" as="geometry" />
        </mxCell>
        <mxCell id="Jz8gkrG2YhVqBwOY9L8W-645" value="PK,FK2" style="shape=partialRectangle;connectable=0;fillColor=none;top=0;left=0;bottom=0;right=0;fontStyle=1;overflow=hidden;" vertex="1" parent="Jz8gkrG2YhVqBwOY9L8W-644">
          <mxGeometry width="60" height="30" as="geometry" />
        </mxCell>
        <mxCell id="Jz8gkrG2YhVqBwOY9L8W-646" value="Row 2" style="shape=partialRectangle;connectable=0;fillColor=none;top=0;left=0;bottom=0;right=0;align=left;spacingLeft=6;fontStyle=5;overflow=hidden;" vertex="1" parent="Jz8gkrG2YhVqBwOY9L8W-644">
          <mxGeometry x="60" width="120" height="30" as="geometry" />
        </mxCell>
        <mxCell id="Jz8gkrG2YhVqBwOY9L8W-647" value="" style="shape=partialRectangle;collapsible=0;dropTarget=0;pointerEvents=0;fillColor=none;top=0;left=0;bottom=0;right=0;points=[[0,0.5],[1,0.5]];portConstraint=eastwest;" vertex="1" parent="Jz8gkrG2YhVqBwOY9L8W-640">
          <mxGeometry y="90" width="180" height="30" as="geometry" />
        </mxCell>
        <mxCell id="Jz8gkrG2YhVqBwOY9L8W-648" value="" style="shape=partialRectangle;connectable=0;fillColor=none;top=0;left=0;bottom=0;right=0;editable=1;overflow=hidden;" vertex="1" parent="Jz8gkrG2YhVqBwOY9L8W-647">
          <mxGeometry width="60" height="30" as="geometry" />
        </mxCell>
        <mxCell id="Jz8gkrG2YhVqBwOY9L8W-649" value="Row 3" style="shape=partialRectangle;connectable=0;fillColor=none;top=0;left=0;bottom=0;right=0;align=left;spacingLeft=6;overflow=hidden;" vertex="1" parent="Jz8gkrG2YhVqBwOY9L8W-647">
          <mxGeometry x="60" width="120" height="30" as="geometry" />
        </mxCell>
        <mxCell id="Jz8gkrG2YhVqBwOY9L8W-650" value="" style="shape=partialRectangle;collapsible=0;dropTarget=0;pointerEvents=0;fillColor=none;top=0;left=0;bottom=0;right=0;points=[[0,0.5],[1,0.5]];portConstraint=eastwest;" vertex="1" parent="Jz8gkrG2YhVqBwOY9L8W-640">
          <mxGeometry y="120" width="180" height="30" as="geometry" />
        </mxCell>
        <mxCell id="Jz8gkrG2YhVqBwOY9L8W-651" value="" style="shape=partialRectangle;connectable=0;fillColor=none;top=0;left=0;bottom=0;right=0;editable=1;overflow=hidden;" vertex="1" parent="Jz8gkrG2YhVqBwOY9L8W-650">
          <mxGeometry width="60" height="30" as="geometry" />
        </mxCell>
        <mxCell id="Jz8gkrG2YhVqBwOY9L8W-652" value="Row 4" style="shape=partialRectangle;connectable=0;fillColor=none;top=0;left=0;bottom=0;right=0;align=left;spacingLeft=6;overflow=hidden;" vertex="1" parent="Jz8gkrG2YhVqBwOY9L8W-650">
          <mxGeometry x="60" width="120" height="30" as="geometry" />
        </mxCell>
        <mxCell id="Jz8gkrG2YhVqBwOY9L8W-653" value="Property Inspections" style="shape=table;startSize=30;container=1;collapsible=1;childLayout=tableLayout;fixedRows=1;rowLines=0;fontStyle=1;align=center;resizeLast=1;" vertex="1" parent="1">
          <mxGeometry x="660" y="2600" width="180" height="160" as="geometry" />
        </mxCell>
        <mxCell id="Jz8gkrG2YhVqBwOY9L8W-654" value="" style="shape=partialRectangle;collapsible=0;dropTarget=0;pointerEvents=0;fillColor=none;top=0;left=0;bottom=0;right=0;points=[[0,0.5],[1,0.5]];portConstraint=eastwest;" vertex="1" parent="Jz8gkrG2YhVqBwOY9L8W-653">
          <mxGeometry y="30" width="180" height="30" as="geometry" />
        </mxCell>
        <mxCell id="Jz8gkrG2YhVqBwOY9L8W-655" value="PK,FK1" style="shape=partialRectangle;connectable=0;fillColor=none;top=0;left=0;bottom=0;right=0;fontStyle=1;overflow=hidden;" vertex="1" parent="Jz8gkrG2YhVqBwOY9L8W-654">
          <mxGeometry width="60" height="30" as="geometry" />
        </mxCell>
        <mxCell id="Jz8gkrG2YhVqBwOY9L8W-656" value="Row 1" style="shape=partialRectangle;connectable=0;fillColor=none;top=0;left=0;bottom=0;right=0;align=left;spacingLeft=6;fontStyle=5;overflow=hidden;" vertex="1" parent="Jz8gkrG2YhVqBwOY9L8W-654">
          <mxGeometry x="60" width="120" height="30" as="geometry" />
        </mxCell>
        <mxCell id="Jz8gkrG2YhVqBwOY9L8W-657" value="" style="shape=partialRectangle;collapsible=0;dropTarget=0;pointerEvents=0;fillColor=none;top=0;left=0;bottom=1;right=0;points=[[0,0.5],[1,0.5]];portConstraint=eastwest;" vertex="1" parent="Jz8gkrG2YhVqBwOY9L8W-653">
          <mxGeometry y="60" width="180" height="30" as="geometry" />
        </mxCell>
        <mxCell id="Jz8gkrG2YhVqBwOY9L8W-658" value="PK,FK2" style="shape=partialRectangle;connectable=0;fillColor=none;top=0;left=0;bottom=0;right=0;fontStyle=1;overflow=hidden;" vertex="1" parent="Jz8gkrG2YhVqBwOY9L8W-657">
          <mxGeometry width="60" height="30" as="geometry" />
        </mxCell>
        <mxCell id="Jz8gkrG2YhVqBwOY9L8W-659" value="Row 2" style="shape=partialRectangle;connectable=0;fillColor=none;top=0;left=0;bottom=0;right=0;align=left;spacingLeft=6;fontStyle=5;overflow=hidden;" vertex="1" parent="Jz8gkrG2YhVqBwOY9L8W-657">
          <mxGeometry x="60" width="120" height="30" as="geometry" />
        </mxCell>
        <mxCell id="Jz8gkrG2YhVqBwOY9L8W-660" value="" style="shape=partialRectangle;collapsible=0;dropTarget=0;pointerEvents=0;fillColor=none;top=0;left=0;bottom=0;right=0;points=[[0,0.5],[1,0.5]];portConstraint=eastwest;" vertex="1" parent="Jz8gkrG2YhVqBwOY9L8W-653">
          <mxGeometry y="90" width="180" height="30" as="geometry" />
        </mxCell>
        <mxCell id="Jz8gkrG2YhVqBwOY9L8W-661" value="" style="shape=partialRectangle;connectable=0;fillColor=none;top=0;left=0;bottom=0;right=0;editable=1;overflow=hidden;" vertex="1" parent="Jz8gkrG2YhVqBwOY9L8W-660">
          <mxGeometry width="60" height="30" as="geometry" />
        </mxCell>
        <mxCell id="Jz8gkrG2YhVqBwOY9L8W-662" value="Row 3" style="shape=partialRectangle;connectable=0;fillColor=none;top=0;left=0;bottom=0;right=0;align=left;spacingLeft=6;overflow=hidden;" vertex="1" parent="Jz8gkrG2YhVqBwOY9L8W-660">
          <mxGeometry x="60" width="120" height="30" as="geometry" />
        </mxCell>
        <mxCell id="Jz8gkrG2YhVqBwOY9L8W-663" value="" style="shape=partialRectangle;collapsible=0;dropTarget=0;pointerEvents=0;fillColor=none;top=0;left=0;bottom=0;right=0;points=[[0,0.5],[1,0.5]];portConstraint=eastwest;" vertex="1" parent="Jz8gkrG2YhVqBwOY9L8W-653">
          <mxGeometry y="120" width="180" height="30" as="geometry" />
        </mxCell>
        <mxCell id="Jz8gkrG2YhVqBwOY9L8W-664" value="" style="shape=partialRectangle;connectable=0;fillColor=none;top=0;left=0;bottom=0;right=0;editable=1;overflow=hidden;" vertex="1" parent="Jz8gkrG2YhVqBwOY9L8W-663">
          <mxGeometry width="60" height="30" as="geometry" />
        </mxCell>
        <mxCell id="Jz8gkrG2YhVqBwOY9L8W-665" value="Row 4" style="shape=partialRectangle;connectable=0;fillColor=none;top=0;left=0;bottom=0;right=0;align=left;spacingLeft=6;overflow=hidden;" vertex="1" parent="Jz8gkrG2YhVqBwOY9L8W-663">
          <mxGeometry x="60" width="120" height="30" as="geometry" />
        </mxCell>
        <mxCell id="Jz8gkrG2YhVqBwOY9L8W-666" value="Tasks" style="shape=table;startSize=30;container=1;collapsible=1;childLayout=tableLayout;fixedRows=1;rowLines=0;fontStyle=1;align=center;resizeLast=1;" vertex="1" parent="1">
          <mxGeometry x="860" y="2600" width="180" height="160" as="geometry" />
        </mxCell>
        <mxCell id="Jz8gkrG2YhVqBwOY9L8W-667" value="" style="shape=partialRectangle;collapsible=0;dropTarget=0;pointerEvents=0;fillColor=none;top=0;left=0;bottom=0;right=0;points=[[0,0.5],[1,0.5]];portConstraint=eastwest;" vertex="1" parent="Jz8gkrG2YhVqBwOY9L8W-666">
          <mxGeometry y="30" width="180" height="30" as="geometry" />
        </mxCell>
        <mxCell id="Jz8gkrG2YhVqBwOY9L8W-668" value="PK,FK1" style="shape=partialRectangle;connectable=0;fillColor=none;top=0;left=0;bottom=0;right=0;fontStyle=1;overflow=hidden;" vertex="1" parent="Jz8gkrG2YhVqBwOY9L8W-667">
          <mxGeometry width="60" height="30" as="geometry" />
        </mxCell>
        <mxCell id="Jz8gkrG2YhVqBwOY9L8W-669" value="Row 1" style="shape=partialRectangle;connectable=0;fillColor=none;top=0;left=0;bottom=0;right=0;align=left;spacingLeft=6;fontStyle=5;overflow=hidden;" vertex="1" parent="Jz8gkrG2YhVqBwOY9L8W-667">
          <mxGeometry x="60" width="120" height="30" as="geometry" />
        </mxCell>
        <mxCell id="Jz8gkrG2YhVqBwOY9L8W-670" value="" style="shape=partialRectangle;collapsible=0;dropTarget=0;pointerEvents=0;fillColor=none;top=0;left=0;bottom=1;right=0;points=[[0,0.5],[1,0.5]];portConstraint=eastwest;" vertex="1" parent="Jz8gkrG2YhVqBwOY9L8W-666">
          <mxGeometry y="60" width="180" height="30" as="geometry" />
        </mxCell>
        <mxCell id="Jz8gkrG2YhVqBwOY9L8W-671" value="PK,FK2" style="shape=partialRectangle;connectable=0;fillColor=none;top=0;left=0;bottom=0;right=0;fontStyle=1;overflow=hidden;" vertex="1" parent="Jz8gkrG2YhVqBwOY9L8W-670">
          <mxGeometry width="60" height="30" as="geometry" />
        </mxCell>
        <mxCell id="Jz8gkrG2YhVqBwOY9L8W-672" value="Row 2" style="shape=partialRectangle;connectable=0;fillColor=none;top=0;left=0;bottom=0;right=0;align=left;spacingLeft=6;fontStyle=5;overflow=hidden;" vertex="1" parent="Jz8gkrG2YhVqBwOY9L8W-670">
          <mxGeometry x="60" width="120" height="30" as="geometry" />
        </mxCell>
        <mxCell id="Jz8gkrG2YhVqBwOY9L8W-673" value="" style="shape=partialRectangle;collapsible=0;dropTarget=0;pointerEvents=0;fillColor=none;top=0;left=0;bottom=0;right=0;points=[[0,0.5],[1,0.5]];portConstraint=eastwest;" vertex="1" parent="Jz8gkrG2YhVqBwOY9L8W-666">
          <mxGeometry y="90" width="180" height="30" as="geometry" />
        </mxCell>
        <mxCell id="Jz8gkrG2YhVqBwOY9L8W-674" value="" style="shape=partialRectangle;connectable=0;fillColor=none;top=0;left=0;bottom=0;right=0;editable=1;overflow=hidden;" vertex="1" parent="Jz8gkrG2YhVqBwOY9L8W-673">
          <mxGeometry width="60" height="30" as="geometry" />
        </mxCell>
        <mxCell id="Jz8gkrG2YhVqBwOY9L8W-675" value="Row 3" style="shape=partialRectangle;connectable=0;fillColor=none;top=0;left=0;bottom=0;right=0;align=left;spacingLeft=6;overflow=hidden;" vertex="1" parent="Jz8gkrG2YhVqBwOY9L8W-673">
          <mxGeometry x="60" width="120" height="30" as="geometry" />
        </mxCell>
        <mxCell id="Jz8gkrG2YhVqBwOY9L8W-676" value="" style="shape=partialRectangle;collapsible=0;dropTarget=0;pointerEvents=0;fillColor=none;top=0;left=0;bottom=0;right=0;points=[[0,0.5],[1,0.5]];portConstraint=eastwest;" vertex="1" parent="Jz8gkrG2YhVqBwOY9L8W-666">
          <mxGeometry y="120" width="180" height="30" as="geometry" />
        </mxCell>
        <mxCell id="Jz8gkrG2YhVqBwOY9L8W-677" value="" style="shape=partialRectangle;connectable=0;fillColor=none;top=0;left=0;bottom=0;right=0;editable=1;overflow=hidden;" vertex="1" parent="Jz8gkrG2YhVqBwOY9L8W-676">
          <mxGeometry width="60" height="30" as="geometry" />
        </mxCell>
        <mxCell id="Jz8gkrG2YhVqBwOY9L8W-678" value="Row 4" style="shape=partialRectangle;connectable=0;fillColor=none;top=0;left=0;bottom=0;right=0;align=left;spacingLeft=6;overflow=hidden;" vertex="1" parent="Jz8gkrG2YhVqBwOY9L8W-676">
          <mxGeometry x="60" width="120" height="30" as="geometry" />
        </mxCell>
      </root>
    </mxGraphModel>
  </diagram>
  <diagram id="0JGktx_kmZs3hVnowzJB" name="Page-2">
    <mxGraphModel dx="868" dy="482" grid="1" gridSize="10" guides="1" tooltips="1" connect="1" arrows="1" fold="1" page="1" pageScale="1" pageWidth="850" pageHeight="1100" math="0" shadow="0">
      <root>
        <mxCell id="2tpzPtVNIs2mFqTlgHVv-0" />
        <mxCell id="2tpzPtVNIs2mFqTlgHVv-1" parent="2tpzPtVNIs2mFqTlgHVv-0" />
      </root>
    </mxGraphModel>
  </diagram>
</mxfile>
